<svg width="40" height="40" viewBox="0 0 40 40" fill="none" xmlns="http://www.w3.org/2000/svg">
<path d="M0.375 0.125V39.25H39.5V0.125H0.375ZM2.53125 2.25H37.375V37.125H2.53125V2.25Z" fill="white"/>
<path d="M18.3759 11.3633C17.7618 10.8144 17.3759 10.0158 17.3759 9.125C17.3759 7.465 18.7159 6.125 20.3759 6.125C22.0359 6.125 23.3759 7.465 23.3759 9.125C23.3759 10.0158 22.99 10.8144 22.3759 11.3633V14.125H25.8759C26.7059 14.125 27.3759 14.795 27.3759 15.625C27.3759 16.455 26.7059 17.125 25.8759 17.125H22.3759V30.9013C25.0371 30.2959 27.252 28.5088 28.4359 26.125L28.3959 26.1249C27.5259 26.1249 27.0559 25.1049 27.6259 24.4449L31.0159 20.4849C31.5859 19.8149 32.6759 20.1349 32.7959 21.0049L33.3659 24.9649C33.4559 25.5749 32.9759 26.1249 32.3559 26.1249H31.6852C30.0452 30.7849 25.6059 34.125 20.3759 34.125C15.1459 34.125 10.7059 30.785 9.06586 26.125L8.39588 26.1249C7.77588 26.1249 7.29588 25.5749 7.38588 24.9649L7.95588 21.0049C8.07588 20.1349 9.16588 19.8149 9.73588 20.4849L13.1259 24.4449C13.6959 25.1049 13.2259 26.1249 12.3559 26.1249H12.3152C13.499 28.5086 15.7147 30.2959 18.3759 30.9014V17.125H14.8759C14.0459 17.125 13.3759 16.455 13.3759 15.625C13.3759 14.795 14.0459 14.125 14.8759 14.125H18.3759V11.3633ZM20.3759 8.125C19.8259 8.125 19.3759 8.575 19.3759 9.125C19.3759 9.675 19.8259 10.125 20.3759 10.125C20.9259 10.125 21.3759 9.675 21.3759 9.125C21.3759 8.575 20.9259 8.125 20.3759 8.125Z" fill="white"/>
</svg>
