<svg width="40" height="40" viewBox="0 0 40 40" fill="none" xmlns="http://www.w3.org/2000/svg">
<path d="M0.5 0.5V39.625H39.625V0.5H0.5ZM2.65625 2.625H37.5V37.5H2.65625V2.625Z" fill="white"/>
<path d="M14.5789 11.4274C14.5854 11.2158 14.7244 11.0313 14.9259 10.9666C15.0159 10.9377 15.1097 10.9355 15.1974 10.957L25.2162 13.3743L24.9816 14.3464L16.3304 12.259L20.3287 17.4997L19.5336 18.1062L15.5354 12.8656L15.2632 21.7609L14.2636 21.7303L14.5789 11.4274Z" fill="white"/>
<path d="M25.8864 13.5C28.0329 16.7771 28.0232 20.5429 24.099 23.5C20.1748 26.4571 16.4653 25.4939 13.9068 22.5272L25.8864 13.5Z" fill="white"/>
<path d="M27.5722 23.5C27.5763 23.5 27.5804 23.5 27.5845 23.5C28.9323 23.5 30.0889 24.6739 30.099 26.1413L30.0969 31.436H17.1698C17.2151 31.3393 17.2829 31.2495 17.3756 31.1738L22.8485 26.6988L24.4387 23.6268L26.5568 22.9993L27.5722 23.5Z" fill="white"/>
<path d="M13.5099 10.4867C13.0959 11.5139 13.5967 12.6721 14.6239 13.087C15.651 13.5019 16.8083 13.0018 17.2223 11.9745C17.6363 10.9472 17.1298 9.77938 16.1083 9.37414C15.0868 8.96891 13.9239 9.45939 13.5099 10.4867Z" fill="white"/>
<path d="M26.4972 12.2987C26.1648 11.8576 25.5378 11.7695 25.0968 12.1018L13.1172 21.1291C12.6761 21.4614 12.588 22.0884 12.9204 22.5295C13.2528 22.9706 13.8798 23.0587 14.3208 22.7263L26.3004 13.6991C26.7415 13.3667 26.8296 12.7397 26.4972 12.2987Z" fill="white"/>
<path d="M22.8552 26.6933L26.0959 24.0435C26.5284 23.6957 27.0514 23.5 27.5845 23.5L27.6155 23.5002L26.099 21.5L21.5391 24.9209L22.8552 26.6933Z" fill="white"/>
<path d="M17.1927 30.5H30.9857C31.6064 30.5 32.099 30.9465 32.099 31.5C32.099 32.0536 31.6064 32.5 30.9956 32.5H17.2026C16.5917 32.5 16.0991 32.0536 16.0991 31.5C16.0893 30.9465 16.5819 30.5 17.1927 30.5Z" fill="white"/>
<path d="M27.099 27.5C26.5467 27.5 26.099 27.0523 26.099 26.5C26.099 25.9477 26.5467 25.5 27.099 25.5C27.6513 25.5 28.099 25.9477 28.099 26.5C28.099 27.0523 27.6513 27.5 27.099 27.5Z" fill="white"/>
<path d="M10.7232 7.17022C11.4196 6.37658 12.3621 5.73504 13.3455 5.39141C14.3241 5.04945 15.4028 4.98426 16.322 5.44223C16.5691 5.56538 16.6697 5.86558 16.5465 6.11274C16.4234 6.3599 16.1232 6.46043 15.876 6.33729C15.2772 6.03892 14.4968 6.04841 13.6754 6.33544C12.8587 6.62079 12.0603 7.16253 11.4748 7.82977C10.3521 9.10926 10.3098 10.5273 10.7893 12.3743C10.8586 12.6416 10.6982 12.9145 10.4309 12.9839C10.1636 13.0533 9.89072 12.8929 9.82133 12.6256C9.30567 10.6391 9.28214 8.81247 10.7232 7.17022Z" fill="white"/>
<path d="M12.6824 7.96271C13.6845 6.98423 15.0971 6.75277 16.295 7.26315C16.549 7.37139 16.6672 7.66508 16.559 7.91912C16.4507 8.17317 16.157 8.29136 15.903 8.18312C15.0735 7.82969 14.0918 7.98418 13.3811 8.67818C12.6665 9.3759 12.4337 10.4284 12.7149 11.3547C12.7952 11.6189 12.646 11.8982 12.3818 11.9784C12.1176 12.0587 11.8383 11.9095 11.7581 11.6453C11.3752 10.3845 11.6842 8.93747 12.6824 7.96271Z" fill="white"/>
</svg>
