<svg width="40" height="40" viewBox="0 0 40 40" fill="none" xmlns="http://www.w3.org/2000/svg">
<path d="M7.87502 7.25V28.8038C7.87502 31.5652 7.875 32.25 7.875 32.25H33.875C33.875 32.25 33.875 30.0114 33.875 27.25V7.25H7.87502ZM7.87502 7.25H33.875V14.5499C32.6092 13.8851 31.7324 12.8298 31.1225 11.7535C30.6171 10.8615 30.3026 9.96472 30.1146 9.28805C30.0209 8.95068 29.9593 8.67054 29.9214 8.47646C29.9025 8.37948 29.8895 8.30417 29.8814 8.25416L29.8742 8.20812C29.8522 7.67526 29.4133 7.25 28.875 7.25C28.3368 7.25 27.8979 7.67525 27.8759 8.2081C27.8742 8.2196 27.8718 8.23502 27.8687 8.25416C27.8605 8.30417 27.8476 8.37948 27.8286 8.47646C27.7907 8.67054 27.7292 8.95068 27.6355 9.28805C27.4475 9.96472 27.133 10.8615 26.6275 11.7535C25.6206 13.5303 23.8865 15.25 20.875 15.25C17.8635 15.25 16.1294 13.5303 15.1225 11.7535C14.6171 10.8615 14.3026 9.96472 14.1146 9.28805C14.0209 8.95068 13.9593 8.67054 13.9214 8.47646C13.9025 8.37948 13.8895 8.30417 13.8814 8.25416C13.8783 8.23503 13.8759 8.21961 13.8742 8.2081C13.8522 7.67525 13.4133 7.25 12.875 7.25C12.3368 7.25 11.8978 7.67525 11.8759 8.2081C11.8741 8.2196 11.8718 8.23502 11.8687 8.25416C11.8605 8.30417 11.8476 8.37948 11.8286 8.47646C11.7907 8.67054 11.7292 8.95068 11.6354 9.28805C11.4475 9.96472 11.133 10.8615 10.6275 11.7535C10.0176 12.8298 9.14087 13.8851 7.87502 14.55V7.25ZM32.875 15.1229C33.1847 15.3236 33.5175 15.5041 33.875 15.6588V19.25H32.875V15.1229ZM29.875 21.25H33.875V22.9108C33.5963 23.009 33.3713 23.1389 33.1592 23.2614L33.1559 23.2632C32.9242 23.397 32.7239 23.5113 32.4615 23.5986C32.2024 23.6848 31.8641 23.75 31.375 23.75C30.886 23.75 30.5477 23.6848 30.2886 23.5986C30.1358 23.5478 30.0041 23.4879 29.875 23.4202V21.25ZM27.875 21.25L27.875 22.75C27.0068 22.75 26.4177 23.0446 25.9172 23.2949L25.9014 23.3028C25.4053 23.5508 24.9976 23.75 24.375 23.75C23.7524 23.75 23.3447 23.5508 22.8486 23.3028L22.8328 23.2949C22.3323 23.0446 21.7433 22.75 20.875 22.75C20.0068 22.75 19.4177 23.0446 18.9172 23.2949L18.9014 23.3028C18.4053 23.5508 17.9976 23.75 17.375 23.75C16.7524 23.75 16.3447 23.5508 15.8486 23.3028L15.8328 23.2949C15.3323 23.0446 14.7433 22.75 13.875 22.75L13.875 21.25H27.875ZM15.4014 24.1972L15.4172 24.2051C15.9177 24.4554 16.5068 24.75 17.375 24.75C18.2433 24.75 18.8323 24.4554 19.3328 24.2051L19.3486 24.1972C19.8447 23.9492 20.2524 23.75 20.875 23.75C21.4976 23.75 21.9053 23.9492 22.4014 24.1972L22.4172 24.2051C22.9177 24.4554 23.5068 24.75 24.375 24.75C25.2433 24.75 25.8323 24.4554 26.3328 24.2051L26.3486 24.1972C26.8447 23.9492 27.2524 23.75 27.875 23.75L27.875 27.25H26.875C26.3227 27.25 25.875 27.6977 25.875 28.25V28.5251C25.5173 28.3691 25.0653 28.25 24.375 28.25C23.3032 28.25 22.8058 28.5372 22.3441 28.8038C21.9442 29.0346 21.5712 29.25 20.875 29.25C20.125 29.25 19.625 29 19.125 28.75C18.625 28.5 18.125 28.25 17.375 28.25C16.7494 28.25 16.2978 28.4239 15.875 28.6267V28.25C15.875 27.6977 15.4273 27.25 14.875 27.25H13.875L13.875 23.75C14.4976 23.75 14.9053 23.9492 15.4014 24.1972ZM29.875 27.25V24.5133C29.907 24.525 29.9396 24.5364 29.973 24.5475C30.346 24.6716 30.7923 24.75 31.375 24.75C31.9578 24.75 32.4041 24.6716 32.7771 24.5475C33.1415 24.4263 33.4181 24.2666 33.6462 24.1349L33.6559 24.1293C33.7321 24.0853 33.8041 24.0438 33.875 24.0055V27.25C33.875 27.8252 33.7132 28.3626 33.4325 28.8191L33.4059 28.8038C33.0228 28.5826 32.6151 28.3472 31.875 28.2734V28.25C31.875 27.6977 31.4273 27.25 30.875 27.25H29.875ZM9.87502 28.2897C9.38515 28.3699 9.00508 28.56 8.62502 28.75C8.53621 28.7944 8.44741 28.8388 8.35721 28.8818C8.05219 28.4121 7.87502 29.4055 7.87502 28.8038V23.9509C8.04858 24.0214 8.21903 24.106 8.40141 24.1972L8.41723 24.2051C8.91774 24.4554 9.50677 24.75 10.375 24.75C10.9938 24.75 11.4708 24.6004 11.875 24.4238V27.25H10.875C10.3227 27.25 9.87502 27.6977 9.87502 28.25V28.2897ZM11.875 21.25V23.316C11.3908 23.5579 10.9865 23.75 10.375 23.75C9.75243 23.75 9.3447 23.5508 8.84862 23.3028L8.8328 23.2949C8.55248 23.1547 8.24439 23.0006 7.87502 22.8922V21.25H11.875ZM8.87502 19.25H7.87502V15.6588C8.23252 15.5041 8.56535 15.3236 8.87502 15.1229V19.25ZM27.4975 12.2465C27.6363 12.0016 27.7618 11.7569 27.875 11.5163V19.25H25.875V14.3391C26.5558 13.7027 27.0871 12.9708 27.4975 12.2465ZM24.875 15.1229V19.25H22.875V16.0029C23.6301 15.8055 24.2934 15.4998 24.875 15.1229ZM21.875 16.1915V19.25H19.875V16.1915C20.1941 16.2298 20.5272 16.25 20.875 16.25C21.2228 16.25 21.5559 16.2298 21.875 16.1915ZM18.875 16.0029V19.25H16.875V15.1229C17.4566 15.4998 18.1199 15.8055 18.875 16.0029ZM15.875 14.3391V19.25H13.875V11.5163C13.9883 11.7569 14.1137 12.0016 14.2525 12.2465C14.6629 12.9708 15.1943 13.7027 15.875 14.3391ZM29.875 19.25V11.5163C29.9883 11.7569 30.1137 12.0016 30.2525 12.2465C30.6629 12.9708 31.1943 13.7027 31.875 14.3391V19.25H29.875ZM11.875 19.25H9.87502V14.3391C10.5558 13.7027 11.0871 12.9708 11.4975 12.2465C11.6363 12.0016 11.7618 11.7569 11.875 11.5163V19.25Z" fill="white"/>
<path d="M0.875 0.25V39.375H40V0.25H0.875ZM3.03125 2.375H37.875V37.25H3.03125V2.375Z" fill="white"/>
</svg>
