<svg width="40" height="40" viewBox="0 0 40 40" fill="none" xmlns="http://www.w3.org/2000/svg">
<path d="M0.125 0V39.125H39.25V0H0.125ZM2.28125 2.125H37.125V37H2.28125V2.125ZM18.5625 4.125C18.0728 4.125 17.6875 4.54158 17.6875 5.03125V8.15625C16.2589 8.45507 14.9348 9.04531 13.75 9.8125L11.5 7.5625C11.3269 7.38938 11.0978 7.3125 10.875 7.3125C10.6522 7.3125 10.4231 7.3894 10.25 7.5625L8.09375 9.75C7.74748 10.0962 7.74751 10.6225 8.09375 10.9688L10.3125 13.1875C9.55201 14.3477 8.99731 15.6627 8.6875 17.0625H5.78125C5.29158 17.0625 4.90625 17.4478 4.90625 17.9375V21C4.90624 21.4897 5.29157 21.875 5.78125 21.875H8.65625C8.95646 23.3433 9.5188 24.7232 10.3125 25.9375L8.09375 28.1562C7.74751 28.5025 7.74748 29.06 8.09375 29.4062L10.25 31.5625C10.5962 31.9088 11.1537 31.9087 11.5 31.5625L13.7188 29.3438C14.907 30.1204 16.2528 30.666 17.6875 30.9688V34.125C17.6875 34.6147 18.0728 35 18.5625 35H21.625C22.1147 35 22.5 34.6147 22.5 34.125V30.9688C23.9331 30.666 25.2839 30.1204 26.4688 29.3438L28.6562 31.5312C29.0025 31.8775 29.5913 31.9088 29.9375 31.5625L32.0938 29.4062C32.44 29.06 32.4087 28.5025 32.0626 28.1562L29.8438 25.9375C30.634 24.7232 31.1987 23.3433 31.5001 21.875H34.8751C35.3647 21.875 35.7813 21.4897 35.7813 21V17.9375C35.7813 17.4478 35.3647 17.0625 34.8751 17.0625H31.4688C31.156 15.6706 30.5954 14.3761 29.8438 13.2188L32.0626 11C32.4088 10.6538 32.44 10.065 32.0938 9.71875L29.9375 7.5625C29.7644 7.38937 29.5408 7.30698 29.3125 7.3125C29.0842 7.3185 28.8294 7.42062 28.6562 7.59375L26.4688 9.8125C25.2818 9.03792 23.9359 8.45693 22.5 8.15625V5.03125C22.5 4.54158 22.1147 4.125 21.625 4.125H18.5625ZM20.0938 14.9375C22.6488 14.9375 24.7188 17.0075 24.7188 19.5625C24.7188 22.1175 22.6488 24.1875 20.0938 24.1875C17.5387 24.1875 15.4688 22.1175 15.4688 19.5625C15.4688 17.0075 17.5387 14.9375 20.0938 14.9375Z" fill="white"/>
</svg>
