<svg width="40" height="40" viewBox="0 0 40 40" fill="none" xmlns="http://www.w3.org/2000/svg">
<path d="M0.5 0.25V39.375H39.625V0.25H0.5ZM2.65625 2.375H37.5V37.25H2.65625V2.375Z" fill="white"/>
<path d="M20.8729 20.2556C20.0469 20.2556 19.7818 20.7334 20.0391 21.4375C20.1294 21.7489 20.3801 22.5358 20.6292 23.2074C20.9407 24.0469 21.392 24.2619 22.1368 24.2619H23.8429C24.6688 24.2619 24.7862 23.6813 24.6101 23.2074C24.5631 23.0806 24.5063 22.9268 24.4437 22.7571C24.2724 22.2928 24.0574 21.7099 23.879 21.244C23.6352 20.6076 23.1613 20.2556 22.4166 20.2556H20.8729Z" fill="white"/>
<path d="M30.9645 9.08594C30.9759 9.22311 31.0658 9.46805 31.2405 9.52533C32.5632 9.84042 33.5469 11.0298 33.5469 12.449C33.5469 12.7157 33.5122 12.9743 33.447 13.2205C33.4463 13.2381 33.4417 13.2562 33.4325 13.2745L33.4279 13.289C33.4204 13.315 33.4125 13.3408 33.4043 13.3665C33.3548 13.5387 33.3138 13.776 33.4834 13.9525C34.1401 14.5038 34.5576 15.3309 34.5576 16.2554C34.5576 17.9074 33.2247 19.2481 31.5756 19.2607L31.5678 19.2608L31.5522 19.2608L31.5365 19.2608H30.5044V21.25H32.5C33.6 21.25 34.5 22.1393 34.5 23.2485V31.2423C34.49 32.901 33.15 34.25 31.49 34.25H9.50999C7.84999 34.25 6.5 32.901 6.5 31.2423V23.2485C6.5 22.1493 7.39 21.25 8.5 21.25H11.9798C12.6268 19.6134 13.1401 18.3178 13.2142 18.1392L13.2421 18.0714C13.3235 17.8723 13.4273 17.6186 13.5809 17.426C13.6777 17.3048 13.8026 17.1935 13.9672 17.1157C14.1303 17.0387 14.306 17.007 14.488 17.007H21.5947C21.5329 16.7668 21.5 16.5149 21.5 16.2554C21.5 15.3526 21.8981 14.5427 22.5283 13.9918C22.6274 13.8705 22.6676 13.6985 22.607 13.5554C22.6019 13.5433 22.5987 13.5324 22.5971 13.5227C22.4695 13.1892 22.3997 12.8273 22.3997 12.449C22.3997 10.9962 23.4304 9.78422 24.8005 9.50443C24.9119 9.45055 24.9429 9.3391 24.9597 9.21892C24.9875 7.58312 26.3223 6.26562 27.9647 6.26562C29.5624 6.26562 30.8689 7.5123 30.9645 9.08594ZM14.3025 20.5207C13.0919 23.866 10.9534 29.6196 10.8646 29.8555C10.7739 30.0961 10.6445 30.2318 10.5911 30.2695H14.0409V30.2707H14.3494V20.3794L14.3473 20.3733L14.3025 20.5207ZM17.5369 28.2373C18.093 29.5838 18.3832 30.2369 19.4337 30.2707H30.298C31.0275 30.2707 31.346 29.6773 30.9961 28.7852C30.9635 28.7022 30.8477 28.4117 30.6711 27.9691L30.6667 27.958L30.6662 27.9567C30.4025 27.2959 30.0058 26.3014 29.5499 25.1541C29.5455 25.1446 29.5414 25.1349 29.5375 25.1251L29.4558 24.917C29.4274 24.8455 29.3987 24.7734 29.3699 24.7008C29.241 24.376 29.1083 24.0414 28.9735 23.7008L28.7929 23.2446H28.7989L27.2341 19.2608H27.2291L27.1663 19.0992C27.073 18.8587 26.9823 18.6242 26.8949 18.3974L26.8131 18.1892C26.8078 18.1756 26.8031 18.1619 26.799 18.1481C26.7927 18.1318 26.7865 18.1155 26.7802 18.0992L26.7448 18.007H18.1108L18.1663 18.0147H14.8711C14.349 18.0147 14.151 18.5111 14.0317 18.8105L14.0137 18.8553C13.896 19.1467 13.9353 19.27 14.0137 19.4549C14.0765 19.6028 14.4284 20.5029 14.5965 20.9344H14.5923C15.5279 23.2667 17.1187 27.225 17.5369 28.2373ZM29.5044 22.3055V19.2608H28.3084L29.5044 22.3055Z" fill="white"/>
</svg>
