<svg width="40" height="40" viewBox="0 0 40 40" fill="none" xmlns="http://www.w3.org/2000/svg">
<path d="M0.5 0.375V39.5H39.625V0.375H0.5ZM2.65625 2.5H37.5V37.375H2.65625V2.5Z" fill="white"/>
<rect x="19" y="12.875" width="4" height="2" rx="1" fill="white"/>
<path fill-rule="evenodd" clip-rule="evenodd" d="M12.5 28.375H9.5V25.375H6.5V19.375L7.5 17.375H10C10.6667 15.375 13.7 11.375 20.5 11.375C27.3 11.375 30.6667 15.7083 31.5 17.875L33.5 18.375L34.5 25.875H31.5V28.375H27V25.875H12.5V28.375ZM15 18.375H11.5C12.1667 16.5417 15 12.875 21 12.875C27 12.875 29.5 16.875 30 18.875H27C27 18.2083 25.8 16.875 21 16.875C16.2 16.875 15 17.875 15 18.375ZM15 19.875C13.8954 19.875 13 20.7704 13 21.875C13 22.9796 13.8954 23.875 15 23.875H26C27.1046 23.875 28 22.9796 28 21.875C28 20.7704 27.1046 19.875 26 19.875H15ZM8 21.875C8 20.7704 8.89543 19.875 10 19.875C11.1046 19.875 12 20.7704 12 21.875C12 22.9796 11.1046 23.875 10 23.875C8.89543 23.875 8 22.9796 8 21.875ZM31 19.875C29.8954 19.875 29 20.7704 29 21.875C29 22.9796 29.8954 23.875 31 23.875C32.1046 23.875 33 22.9796 33 21.875C33 20.7704 32.1046 19.875 31 19.875Z" fill="white"/>
</svg>
