<svg width="40" height="40" viewBox="0 0 40 40" fill="none" xmlns="http://www.w3.org/2000/svg">
<path d="M0.375 0V39.125H39.5V0H0.375ZM2.53125 2.125H37.375V37H2.53125V2.125ZM19.8438 6.46875C19.1477 6.28224 16.568 15.7812 15.7188 15.7812C15.5165 15.7812 12.501 17.493 11.9902 17.7375C11.1832 18.1238 8.20934 27.1435 8.5 29.4688L16.1562 29.5C16.1473 29.3348 16.1251 29.1688 16.1251 29C16.1251 25.705 17.8317 23.0312 19.9063 23.0312C21.981 23.0312 23.6563 25.705 23.6563 29C23.6563 29.1793 23.6348 29.356 23.6251 29.5312L31.0939 29.5624C29.7186 21.0577 27.9897 18.4579 26.4376 12.9062C26.3156 12.4696 24.4708 15.8743 24.2814 15.9374C24.092 16.0005 20.5398 6.65526 19.8438 6.46875Z" fill="white"/>
</svg>
