<svg width="40" height="40" viewBox="0 0 40 40" fill="none" xmlns="http://www.w3.org/2000/svg">
<path d="M0.375 0.375V39.5H39.5V0.375H0.375ZM2.53125 2.5H37.375V37.375H2.53125V2.5Z" fill="white"/>
<path d="M30.535 5.375L26.325 6.495L11.625 10.385L10.145 10.785L8.865 11.125L7.375 11.515L8.365 15.245L11.125 14.515L19.8313 12.2021L19.835 12.2051L25.535 10.6951L25.5292 10.6904L30.035 9.49499L31.525 9.105L30.535 5.375ZM12.5864 11.165L17.0912 9.97291L18.8723 11.4219L14.374 12.6153L12.5864 11.165ZM22.7872 8.4657L26.299 7.5367L26.5808 7.46171L26.5821 7.46138L27.2879 7.27362L29.0716 8.71598L24.5683 9.91074L22.7872 8.4657Z" fill="white"/>
<path d="M32.375 31.375V16.375H8.375V31.375C8.375 32.4796 9.27043 33.375 10.375 33.375H30.375C31.4796 33.375 32.375 32.4796 32.375 31.375ZM29.8997 17.375L27.905 20.115H23.255L25.2497 17.375H29.8997ZM14.6997 17.375H19.3597L17.365 20.115H12.705L14.6997 17.375Z" fill="white"/>
</svg>
