<svg width="40" height="40" viewBox="0 0 40 40" fill="none" xmlns="http://www.w3.org/2000/svg">
<path d="M0.25 0.5V39.625H39.375V0.5H0.25ZM2.40625 2.625H37.25V37.5H2.40625V2.625Z" fill="white"/>
<path fill-rule="evenodd" clip-rule="evenodd" d="M33.0226 14.67L20.5026 7.56C20.4226 7.52 20.3426 7.5 20.2526 7.5C20.1726 7.5 20.0826 7.52 20.0026 7.56L7.48261 14.67C7.26261 14.8 7.18261 15.07 7.31261 15.29C7.40261 15.43 7.55261 15.51 7.71261 15.51C7.74516 15.51 7.77772 15.5067 7.81028 15.5001L7.81261 15.5001H8.28259V16.86C8.28259 17.21 8.5626 17.49 8.9126 17.49H9.26257V17.68C9.26257 18.13 9.62257 18.49 10.0726 18.49H10.25V30.48H10.0626C9.61262 30.48 9.25262 30.84 9.25262 31.29V31.47H7.90257C7.55257 31.47 7.27258 31.75 7.27258 32.1V34.47H33.2226V32.1C33.2226 31.75 32.9426 31.47 32.5926 31.47H31.2226V31.29C31.2226 30.84 30.8626 30.48 30.4126 30.48H30.2226V18.49H30.4226C30.8726 18.49 31.2326 18.13 31.2326 17.68V17.49H31.6126C31.9626 17.49 32.2426 17.21 32.2426 16.86V15.5001H32.692C32.7259 15.5067 32.7601 15.51 32.7926 15.51C32.9526 15.51 33.1126 15.43 33.1926 15.29C33.3226 15.07 33.2526 14.79 33.0226 14.67ZM26.2326 31.47V31.29C26.2326 30.84 26.5926 30.48 27.0426 30.48H27.2326V18.49H27.0526C26.6026 18.49 26.2426 18.13 26.2426 17.68V17.49H25.5726V17.68C25.5726 18.13 25.2126 18.49 24.7626 18.49H24.5626V30.48H24.7626C25.2126 30.48 25.5726 30.84 25.5726 31.29V31.47H26.2326ZM20.5826 31.47V31.29C20.5826 30.84 20.9426 30.48 21.3926 30.48H21.5726V18.49H21.3926C20.9426 18.49 20.5826 18.13 20.5826 17.68V17.49H19.9026V17.68C19.9026 18.13 19.5426 18.49 19.0926 18.49H18.9026V30.48H19.0926C19.5426 30.48 19.9026 30.84 19.9026 31.29V31.47H20.5826ZM14.9126 31.47V31.29C14.9126 30.84 15.2726 30.48 15.7226 30.48H15.9126V18.49H15.7226C15.2726 18.49 14.9126 18.13 14.9126 17.68V17.49H14.2526V17.68C14.2526 18.13 13.8926 18.49 13.4426 18.49H13.25V30.48H13.4326C13.8826 30.48 14.2426 30.84 14.2426 31.29V31.47H14.9126Z" fill="white"/>
</svg>
