<svg width="40" height="40" viewBox="0 0 40 40" fill="none" xmlns="http://www.w3.org/2000/svg">
<path d="M0.375 0.5V39.625H39.5V0.5H0.375ZM2.53125 2.625H37.375V37.5H2.53125V2.625Z" fill="white"/>
<path d="M12.2256 34.2093C12.3736 34.6694 12.8665 34.9223 13.3265 34.7744C13.7866 34.6264 14.0395 34.1335 13.8916 33.6735L12.2256 34.2093ZM13.8916 33.6735C12.9594 30.7755 13.4826 28.6925 14.593 26.9234C15.7617 25.0614 17.5357 23.5864 19.2679 21.8543L18.0304 20.6169C16.4568 22.1904 14.4191 23.9085 13.1108 25.9931C11.7441 28.1705 11.1249 30.7875 12.2256 34.2093L13.8916 33.6735Z" fill="white"/>
<path d="M23.5153 16.36C25.203 14.5391 26.7351 12.4146 26.5488 10.3086C26.29 7.3818 22.4388 6.39739 20.8147 8.70653C18.8259 6.25377 14.3323 7.75421 15.1578 11.4024C15.5503 13.1368 16.4287 14.4361 17.6478 15.7697C16.2845 14.5501 14.9575 13.679 13.2072 13.2829C9.55908 12.4574 8.05863 16.9511 10.5114 18.9398C8.20225 20.5639 9.20329 24.269 12.1134 24.674C13.9096 24.9239 15.6123 23.961 17.1358 22.6747C15.8641 24.2128 14.9164 25.9307 15.1663 27.7269C15.5713 30.637 19.2764 31.638 20.9005 29.3289C22.8892 31.7817 27.3829 30.2812 26.5574 26.6331C26.1644 24.8965 25.2851 23.5579 24.0645 22.1899C25.4126 23.4285 26.7207 24.321 28.4729 24.7175C32.1211 25.543 33.6215 21.0494 31.1688 19.0606C33.4779 17.4365 32.4935 13.5853 29.5667 13.3265C27.4607 13.1402 25.3362 14.6723 23.5153 16.36Z" fill="white"/>
</svg>
