<svg width="40" height="40" viewBox="0 0 40 40" fill="none" xmlns="http://www.w3.org/2000/svg">
<path d="M0 0.125V39.25H39.125V0.125H0ZM2.15625 2.25H37V37.125H2.15625V2.25ZM13.2188 6.21875L12.4688 7.21875H10.0625V8.125L13.0625 8.21875L13.7812 7.0625H15.0938V12.5L13.0625 15.1875H12.0625V16.1875H14.0938L14.0625 19.1562L11.0625 21.2812V26.1875H7.0625V25.2188H6.03125V26.1875H6V26.2187H5.03125V27.2187H6V35.2812H8.0625V29.1562H12.0938V35.2812H18V29.1249H21.0625V35.2812H30.0625V31.1874H33.125V35.2812H35.0625V27.2499H33.125V29.2499H30.0312V24.2187H31.7812L33.0625 22.5624V21.3437V21.1874V20.2812L30.9688 18.1874H28.1562L27.9062 17.1249L27.8749 16.9999L27.7812 16.9062L26.9375 16.0312L27.0312 13.0625L28.1249 12.4062L28.2188 12.3438L28.2812 12.25L28.5625 11.8125L29.3125 12.9688L29.4375 13.1562L29.6875 13.1875L30.4062 13.25L31.125 14.125L31.2812 14.3438L31.5312 14.3125L32.875 14.25L32.8125 13.25L31.75 13.3125L31.0625 12.4375L30.9375 12.2812L30.7188 12.2501L30.0312 12.2189L29.1562 10.9064L30.9375 8.15637L31.6562 8.09387L31.5938 7.12512L30.5938 7.18762L30.3438 7.21881L30.2188 7.43756L28.4375 10.2188L26.3438 10.0938L26.2812 11.0938L27.8125 11.1563L27.5312 11.6251L26.2812 12.3438L26.0312 12.5001V12.7813L25.9376 16.2501V16.4688L26.0938 16.6251L26.9688 17.5001L27.1251 18.1876H27.0626V21.1876H25.9688V22.1876H24.1251V18.2188V18.1563H24.0626L20.0313 13.2188H19.0626V10.2501H20.0938V9.15631H21.0626V8.15631H20.0938V7.21881H19.0313L17.0626 9.18756V10.1876H16.1251V8.34381L15.7813 6.21881L13.2188 6.21875ZM15.0625 18.2188H18.0312V26.1875H15.0938L15.0625 18.2188ZM19.0938 18.2188H22.0625V26.1875H19.0938V18.2188ZM26.0312 24.2188H29.0938V29.1875H26.0312V26.5V26.1875V24.2188Z" fill="white"/>
</svg>
