<svg width="40" height="40" viewBox="0 0 40 40" fill="none" xmlns="http://www.w3.org/2000/svg">
<path d="M0.125 0.375V39.5H39.25V0.375H0.125ZM2.28125 2.5H37.125V37.375H2.28125V2.5ZM6.3125 4.8125V6.56244L5.25 7.8125L4.125 7.75V14.875H5.1875V25.8125L4.125 25.9375V34.6874L35.25 35.0625V26.8125H34.375V31.9999H30.3125V30.8125H29.125V28.7499H30.3125V26.8125H29.375V24.8125H30.25L32.1875 22.8749H31.3125H30.125V5.03125H29.375L29.2188 5.59375L28.3438 5.84375L28.0625 6.9375L26.125 8.875V17.8124H24.1875V18.875H25.1562V23.6874L24.125 23.9687L24.375 24.875H25.3125V32.625H22.3125V23.8125H21.25C21.25 23.8125 21.3125 32.625 21.25 32.625H19.1875V24.6562H20.0938L20.3125 23.875H19V19.7812L19.1875 19.75H20.6875V17.875H19V12.9375H18.4375V28.75H16.1875V25.875H15.125V27.875H13.3125V26.8125H12.625V20.8125H9.1875V15.75H12.25V14.6875H9.125V9.75H10.25V7.875L8.125 7.3125V6.0625L6.9375 4.8125H6.3125ZM5.5 9.6875H8.25V14.8125H5.5V9.6875ZM5.125 27.625H8.1875V32.375H8.25V33.7499H6.125V32.9999H5.125V27.625ZM9.25 27.7499H12.0625V33.125H11.1875V33.8749H9.9375V33.125H9.25V27.7499Z" fill="white"/>
</svg>
