<svg width="40" height="40" viewBox="0 0 40 40" fill="none" xmlns="http://www.w3.org/2000/svg">
<path d="M0.25 0.25V39.375H39.375V0.25H0.25ZM2.40625 2.375H37.25V37.25H2.40625V2.375Z" fill="white"/>
<path d="M21.56 5.25H19.02C18.51 5.25 18.1 5.66 18.1 6.17V7.34459C16.6571 7.67254 15.3347 8.3176 14.21 9.2026V8.81C14.21 8.3 13.8 7.89 13.29 7.89H10.75C10.24 7.89 9.83 8.3 9.83 8.81V11.17C9.83 11.71 10.27 12.15 10.81 12.15H11.6925C11.2648 12.9161 10.9365 13.7453 10.725 14.6201L10.71 14.62H8.17C7.66 14.62 7.25 15.03 7.25 15.54V17.91C7.25 18.45 7.69 18.89 8.23 18.89H10.64L10.6432 18.89C10.8182 19.7604 11.108 20.5892 11.4962 21.36H10.75C10.24 21.36 9.83 21.77 9.83 22.28V24.64C9.83 25.18 10.27 25.62 10.81 25.62H13.22C13.7502 25.62 14.1841 25.1958 14.1996 24.6692C14.6606 25.033 15.155 25.3564 15.6774 25.6341L12.9046 31.8748H10.4301C10.0516 31.8748 9.74475 32.1816 9.74475 32.5601C9.74475 32.9385 10.0516 33.2454 10.4301 33.2454H13.3426C13.3474 33.2454 13.3521 33.2454 13.3568 33.2454H27.2133C27.218 33.2454 27.2228 33.2454 27.2276 33.2454H31C31.3785 33.2454 31.6853 32.9385 31.6853 32.5601C31.6853 32.1816 31.3785 31.8748 31 31.8748H27.6658L24.8981 25.6365C25.4148 25.3622 25.9042 25.0431 26.361 24.6845C26.3844 25.204 26.8149 25.62 27.34 25.62H29.75C30.29 25.62 30.73 25.18 30.73 24.64V23.11H30.74V22.28C30.74 21.77 30.33 21.36 29.82 21.36H29.0838C29.472 20.5892 29.7618 19.7604 29.9368 18.89H32.33C32.87 18.89 33.31 18.45 33.31 17.91V16.37H33.32V15.54C33.32 15.04 32.91 14.62 32.4 14.62H29.86L29.8549 14.62C29.6435 13.7452 29.3152 12.9161 28.8875 12.15H29.75C30.29 12.15 30.73 11.71 30.73 11.17V9.64H30.74V8.81C30.74 8.3 30.33 7.89 29.82 7.89H27.28C26.77 7.89 26.36 8.3 26.36 8.81V9.19474C25.2349 8.31173 23.9125 7.66859 22.47 7.34233V7H22.48V6.17C22.48 5.66 22.07 5.25 21.56 5.25ZM26.1663 31.8748H14.4044L16.9296 26.1913C17.3094 26.3293 17.7001 26.4445 18.1 26.5354V28.03C18.1 28.57 18.54 29.01 19.08 29.01H21.49C22.03 29.01 22.47 28.57 22.47 28.03V26.5377C22.8717 26.4468 23.2641 26.3314 23.6456 26.193L26.1663 31.8748ZM28.94 16.44H26.751C26.643 15.0243 26.08 13.7359 25.2081 12.7205L26.42 11.5076C26.558 11.882 26.9186 12.15 27.34 12.15H27.721C28.3269 13.088 28.7601 14.1481 28.9754 15.2853C28.9523 15.3661 28.94 15.4515 28.94 15.54V16.44ZM22.7604 16.44C22.6947 16.1138 22.5661 15.8104 22.3877 15.5431L24.4988 13.4303C25.1923 14.261 25.6444 15.3001 25.7475 16.44H22.7604ZM26.1721 10.3409L24.5003 12.014C23.4864 11.1466 22.2014 10.5867 20.79 10.479V9.50999H21.49C22.03 9.50999 22.47 9.07 22.47 8.53V8.37084C23.8662 8.72496 25.13 9.41135 26.1721 10.3409ZM23.791 12.7239L21.6793 14.8372C21.4138 14.6615 21.1131 14.5346 20.79 14.4696V11.4825C21.9259 11.5852 22.9617 12.0346 23.791 12.7239ZM19.79 9.50999V10.479C18.3761 10.5869 17.0891 11.1486 16.0743 12.0187L14.4026 10.3457C15.4433 9.4159 16.7054 8.72884 18.1 8.37338V8.53C18.1 9.07 18.54 9.50999 19.08 9.50999H19.79ZM19.79 11.4825V14.4696C19.4645 14.5351 19.1617 14.6634 18.8947 14.8412L16.7836 12.7285C17.6137 12.0366 18.6516 11.5855 19.79 11.4825ZM18.1883 15.5491C18.012 15.815 17.8848 16.1163 17.8196 16.44H14.8325C14.9354 15.3026 15.3858 14.2656 16.0767 13.4358L18.1883 15.5491ZM13.829 16.44H11.63V15.54C11.63 15.4605 11.6196 15.383 11.6002 15.309C11.8139 14.1628 12.2489 13.0945 12.859 12.15H13.22C13.6442 12.15 14.0067 11.8785 14.1426 11.5003L15.3673 12.7259C14.498 13.7404 13.9368 15.0268 13.829 16.44ZM11.62 17.44H13.829C13.9368 18.8532 14.498 20.1396 15.3673 21.1541L14.21 22.3123V22.28C14.21 21.77 13.8 21.36 13.29 21.36H12.6326C12.0923 20.4258 11.7179 19.3836 11.5499 18.2737C11.5951 18.1612 11.62 18.0384 11.62 17.91V17.44ZM14.4026 23.5344L16.0743 21.8614C16.3758 22.1199 16.7013 22.3511 17.047 22.5514L16.0846 24.7175C15.4776 24.3886 14.9134 23.9907 14.4026 23.5344ZM16.7836 21.1515L18.3779 19.556L17.4559 21.6312C17.2195 21.4881 16.9948 21.3276 16.7836 21.1515ZM17.3368 25.2747L18.2993 23.1085C18.7746 23.2617 19.2738 23.3616 19.79 23.401V24.74H19.02C18.5612 24.74 18.1834 25.0718 18.1121 25.5097C17.8488 25.443 17.5902 25.3644 17.3368 25.2747ZM18.7082 22.1882L19.79 19.7533V22.3975C19.4174 22.3638 19.0555 22.2928 18.7082 22.1882ZM20.79 24.74V23.401C21.305 23.3617 21.8032 23.2622 22.2775 23.1095L23.2388 25.2762C22.9865 25.3655 22.729 25.4436 22.4668 25.51C22.3927 25.0683 22.0164 24.74 21.56 24.74H20.79ZM20.79 22.3975V19.7567L21.8692 22.189C21.5226 22.2931 21.1617 22.3639 20.79 22.3975ZM24.4914 24.7197L23.5301 22.553C23.8748 22.3536 24.1995 22.1233 24.5003 21.866L26.1721 23.5391C25.6616 23.9945 25.0978 24.3915 24.4914 24.7197ZM23.1217 21.6326L22.207 19.5709L23.791 21.1561C23.5806 21.3309 23.3569 21.4904 23.1217 21.6326ZM22.3877 18.3369C22.5661 18.0696 22.6947 17.7662 22.7604 17.44H25.7475C25.6444 18.5799 25.1923 19.619 24.4988 20.4497L22.3877 18.3369ZM26.751 17.44H28.94V17.91C28.94 18.0517 28.9703 18.1865 29.0247 18.3083C28.8543 19.4053 28.4821 20.4356 27.9474 21.36H27.28C26.77 21.36 26.36 21.77 26.36 22.28V22.3123L25.2081 21.1595C26.08 20.1441 26.643 18.8557 26.751 17.44ZM14.8325 17.44H17.8196C17.8848 17.7638 18.012 18.065 18.1883 18.3309L16.0767 20.4442C15.3858 19.6144 14.9354 18.5774 14.8325 17.44Z" fill="white"/>
</svg>
