<svg width="40" height="40" viewBox="0 0 40 40" fill="none" xmlns="http://www.w3.org/2000/svg">
<path d="M31.75 20.375L27.75 33.875H32.75V20.375H31.75Z" fill="white" stroke="white"/>
<path d="M28.25 20.375L17.25 33.875L24.1773 33.8958L29.75 20.375H28.25Z" fill="white" stroke="white"/>
<path d="M6.25 27.3768V21.1294L7.25 20.875L8.75 20.375C10.75 19.875 13.75 19.375 13.75 19.375C13.75 19.375 16.1295 19.4265 17.25 19.375H20.25L20.75 19.875L17.3867 21.1294L6.25 27.3768Z" fill="white"/>
<path d="M6.25 30.3646V33.875H12.75L20.6462 25.2037L23.043 22.4875L25.25 20.375H23.25L18.7448 22.4875L6.25 30.3646Z" fill="white"/>
<path d="M17.3867 21.1294L6.25 27.3768V21.1294L7.25 20.875L8.75 20.375C10.75 19.875 13.75 19.375 13.75 19.375C13.75 19.375 16.1295 19.4265 17.25 19.375H20.25M17.3867 21.1294L18.8183 20.2522L20.25 19.375M17.3867 21.1294L20.75 19.875L20.25 19.375M6.25 33.875V30.3646L18.7448 22.4875L23.25 20.375H25.25L23.043 22.4875L20.6462 25.2037L12.75 33.875H6.25Z" stroke="white"/>
<path fill-rule="evenodd" clip-rule="evenodd" d="M15.757 5.91825V11.0792H20.103C22.276 11.0792 23.4092 13.0411 23.75 13.875L23.9752 16.2401L26.8936 16.2401C27.3464 14.8819 28.484 13.875 30.25 13.875C32.1936 13.875 32.96 15.6063 33.141 16.2401C33.2117 15.3547 33.0514 14.2946 32.8722 13.109C32.7751 12.4667 32.6723 11.7874 32.5978 11.0792H30.968L30.4248 9.04196V10.5359H25.2639L22.5476 5.375H15.757V5.91825ZM19.25 10.75V5.75H21.5577L24.25 10.75H19.25Z" fill="white"/>
<path d="M15.757 11.0792H15.257V11.5792H15.757V11.0792ZM23.75 13.875L24.2478 13.8276L24.2408 13.7541L24.2129 13.6858L23.75 13.875ZM23.9752 16.2401L23.4775 16.2875L23.5206 16.7401H23.9752V16.2401ZM26.8936 16.2401V16.7401H27.254L27.368 16.3982L26.8936 16.2401ZM30.25 13.875V14.375V13.875ZM33.141 16.2401L32.6603 16.3774L33.6395 16.2798L33.141 16.2401ZM32.8722 13.109L33.3666 13.0343L32.8722 13.109ZM32.5978 11.0792L33.095 11.0268L33.0479 10.5792H32.5978V11.0792ZM30.968 11.0792L30.4849 11.208L30.5839 11.5792H30.968V11.0792ZM30.4248 9.04196L30.9079 8.91313L29.9248 9.04196H30.4248ZM30.4248 10.5359V11.0359H30.9248V10.5359H30.4248ZM25.2639 10.5359L24.8214 10.7688L24.962 11.0359H25.2639V10.5359ZM22.5476 5.375L22.9901 5.14213L22.8495 4.875H22.5476V5.375ZM15.757 5.375V4.875H15.257V5.375H15.757ZM19.25 5.75V5.25H18.75V5.75H19.25ZM19.25 10.75H18.75V11.25H19.25V10.75ZM21.5577 5.75L21.998 5.51295L21.8564 5.25H21.5577V5.75ZM24.25 10.75V11.25H25.0871L24.6903 10.5129L24.25 10.75ZM16.257 11.0792V5.91825H15.257V11.0792H16.257ZM20.103 10.5792H15.757V11.5792H20.103V10.5792ZM24.2129 13.6858C24.0253 13.227 23.6244 12.465 22.9663 11.81C22.3019 11.1487 21.3553 10.5792 20.103 10.5792V11.5792C21.0237 11.5792 21.7301 11.9905 22.2608 12.5187C22.7978 13.0532 23.1339 13.6891 23.2872 14.0642L24.2129 13.6858ZM24.473 16.1927L24.2478 13.8276L23.2523 13.9224L23.4775 16.2875L24.473 16.1927ZM26.8936 15.7401L23.9752 15.7401V16.7401L26.8936 16.7401V15.7401ZM30.25 13.375C28.2533 13.375 26.935 14.5348 26.4193 16.0819L27.368 16.3982C27.7577 15.2291 28.7148 14.375 30.25 14.375V13.375ZM33.6218 16.1027C33.5173 15.7371 33.2511 15.0711 32.7295 14.4869C32.197 13.8905 31.3912 13.375 30.25 13.375V14.375C31.0525 14.375 31.6016 14.7252 31.9835 15.1529C32.3762 15.5927 32.5837 16.1092 32.6603 16.3774L33.6218 16.1027ZM32.3778 13.1838C32.56 14.3887 32.7077 15.3849 32.6426 16.2003L33.6395 16.2798C33.7157 15.3246 33.5429 14.2006 33.3666 13.0343L32.3778 13.1838ZM32.1005 11.1315C32.1765 11.8527 32.2809 12.5428 32.3778 13.1838L33.3666 13.0343C33.2692 12.3905 33.1682 11.7221 33.095 11.0268L32.1005 11.1315ZM30.968 11.5792H32.5978V10.5792H30.968V11.5792ZM29.9417 9.17079L30.4849 11.208L31.4512 10.9503L30.9079 8.91313L29.9417 9.17079ZM30.9248 10.5359V9.04196H29.9248V10.5359H30.9248ZM25.2639 11.0359H30.4248V10.0359H25.2639V11.0359ZM22.1052 5.60787L24.8214 10.7688L25.7063 10.303L22.9901 5.14213L22.1052 5.60787ZM15.757 5.875H22.5476V4.875H15.757V5.875ZM16.257 5.91825V5.375H15.257V5.91825H16.257ZM18.75 5.75V10.75H19.75V5.75H18.75ZM21.5577 5.25H19.25V6.25H21.5577V5.25ZM24.6903 10.5129L21.998 5.51295L21.1175 5.98705L23.8098 10.9871L24.6903 10.5129ZM19.25 11.25H24.25V10.25H19.25V11.25ZM29.9248 7.24515V9.04196H30.9248V7.24515H29.9248Z" fill="white"/>
<circle cx="18.75" cy="15.25" r="2.75" stroke="white" stroke-width="1.5"/>
<circle cx="30.25" cy="16.75" r="1.5" stroke="white"/>
<path d="M0.25 0.375V39.5H39.375V0.375H0.25ZM2.40625 2.5H37.25V37.375H2.40625V2.5Z" fill="white"/>
</svg>
