<svg width="40" height="40" viewBox="0 0 40 40" fill="none" xmlns="http://www.w3.org/2000/svg">
<path d="M0 0.5V39.625H39.125V0.5H0ZM2.15625 2.625H37V37.5H2.15625V2.625Z" fill="white"/>
<path d="M25 20.5C25 17.7386 22.7614 15.5 20 15.5C17.2386 15.5 15 17.7386 15 20.5C15 23.2614 17.2386 25.5 20 25.5C22.7614 25.5 25 23.2614 25 20.5ZM24.5 20.5C24.5 22.9853 22.4853 25 20 25C17.5147 25 15.5 22.9853 15.5 20.5C15.5 18.0147 17.5147 16 20 16C22.4853 16 24.5 18.0147 24.5 20.5Z" fill="white"/>
<path d="M28 20.5C28 24.9183 24.4183 28.5 20 28.5C15.5817 28.5 12 24.9183 12 20.5C12 16.0817 15.5817 12.5 20 12.5C24.4183 12.5 28 16.0817 28 20.5ZM14.5 20.5C14.5 23.5376 16.9624 26 20 26C23.0376 26 25.5 23.5376 25.5 20.5C25.5 17.4624 23.0376 15 20 15C16.9624 15 14.5 17.4624 14.5 20.5Z" fill="white"/>
<path d="M7.69739 28.2893C7.72851 29.0411 8.04105 29.7538 8.573 30.286L10.214 31.923C10.7461 32.4551 11.4587 32.7678 12.2105 32.7991C12.9623 32.8304 13.6985 32.5781 14.273 32.092L15.696 30.892L15.851 32.75C15.9137 33.4997 16.2557 34.1984 16.8093 34.7078C17.3629 35.2171 18.0878 35.4999 18.84 35.5H21.16C21.9124 35.5001 22.6375 35.2175 23.1913 34.7081C23.7451 34.1988 24.0873 33.4998 24.15 32.75L24.304 30.892L25.728 32.092C26.3025 32.5781 27.0386 32.8304 27.7905 32.7991C28.5423 32.7678 29.2549 32.4551 29.787 31.923L31.427 30.283C31.9591 29.7509 32.2718 29.0383 32.3031 28.2865C32.3344 27.5347 32.082 26.7985 31.596 26.224L30.396 24.801L32.254 24.646C33.004 24.5835 33.7031 24.2415 34.2127 23.6876C34.7223 23.1338 35.0051 22.4086 35.005 21.656V19.337C35.0051 18.5844 34.7223 17.8593 34.2127 17.3054C33.7031 16.7516 33.004 16.4095 32.254 16.347L30.396 16.192L31.596 14.769C32.082 14.1946 32.3344 13.4584 32.3031 12.7065C32.2718 11.9547 31.9591 11.242 31.427 10.71L29.787 9.07007C29.2549 8.53797 28.5423 8.22527 27.7905 8.19397C27.0386 8.16267 26.3025 8.41498 25.728 8.901L24.304 10.101L24.15 8.24304C24.0876 7.49303 23.7454 6.79388 23.1916 6.2843C22.6377 5.77472 21.9126 5.49198 21.16 5.49207H18.84C18.0876 5.49223 17.3627 5.77512 16.809 6.28467C16.2554 6.79422 15.9135 7.4932 15.851 8.24304L15.696 10.101L14.273 8.901C13.6985 8.41498 12.9623 8.16267 12.2105 8.19397C11.4587 8.22527 10.7461 8.53797 10.214 9.07007L8.573 10.71C8.04105 11.2422 7.72851 11.955 7.69739 12.7068C7.66627 13.4586 7.91882 14.1947 8.40497 14.769L9.60498 16.192L7.74701 16.347C6.997 16.4095 6.29785 16.7516 5.78827 17.3054C5.27869 17.8593 4.99588 18.5844 4.99597 19.337V21.6591C4.99588 22.4117 5.27869 23.1367 5.78827 23.6906C6.29785 24.2444 6.997 24.5866 7.74701 24.649L9.60498 24.804L8.40497 26.2271C7.91882 26.8014 7.66627 27.5375 7.69739 28.2893ZM18.1607 7.76196C18.346 7.59202 18.5886 7.49816 18.84 7.49902L21.16 7.49304C21.4114 7.49217 21.654 7.58604 21.8393 7.75598C22.0246 7.92592 22.1391 8.15946 22.16 8.41003L22.396 11.235C22.4188 11.5096 22.5167 11.7726 22.6791 11.9952C22.8415 12.2178 23.0621 12.3913 23.3167 12.4968C23.5712 12.6023 23.8499 12.6356 24.1221 12.5931C24.3944 12.5507 24.6497 12.434 24.86 12.256L27.023 10.425C27.2145 10.2627 27.4601 10.1783 27.7109 10.1887C27.9618 10.1991 28.1996 10.3034 28.377 10.481L30.017 12.121C30.1943 12.2984 30.2985 12.536 30.3088 12.7866C30.3192 13.0372 30.235 13.2825 30.073 13.474L28.242 15.6381C28.064 15.8483 27.9474 16.1034 27.9048 16.3756C27.8623 16.6478 27.8956 16.9264 28.0009 17.1809C28.1063 17.4354 28.2797 17.656 28.5021 17.8185C28.7246 17.981 28.9875 18.0791 29.262 18.1021L32.087 18.337C32.3376 18.3579 32.5711 18.4724 32.741 18.6577C32.911 18.843 33.0048 19.0856 33.004 19.337V21.662C33.0048 21.9134 32.911 22.156 32.741 22.3413C32.5711 22.5266 32.3376 22.6411 32.087 22.662L29.262 22.897C28.9875 22.9199 28.7246 23.0181 28.5021 23.1805C28.2797 23.343 28.1063 23.5636 28.0009 23.8181C27.8956 24.0726 27.8623 24.3512 27.9048 24.6234C27.9474 24.8956 28.064 25.1507 28.242 25.361L30.073 27.525C30.235 27.7165 30.3192 27.9618 30.3088 28.2124C30.2985 28.463 30.1943 28.7006 30.017 28.8781L28.377 30.5181C28.1996 30.6957 27.9618 30.7999 27.7109 30.8103C27.4601 30.8207 27.2145 30.7363 27.023 30.574L24.86 28.743C24.6497 28.565 24.3944 28.4484 24.1221 28.4059C23.8499 28.3634 23.5712 28.3967 23.3167 28.5022C23.0621 28.6077 22.8415 28.7812 22.6791 29.0038C22.5167 29.2264 22.4188 29.4894 22.396 29.764L22.16 32.589C22.1389 32.8394 22.0243 33.0727 21.839 33.2424C21.6537 33.4122 21.4113 33.5059 21.16 33.505H18.84C18.5887 33.5059 18.3463 33.4122 18.161 33.2424C17.9757 33.0727 17.8611 32.8394 17.84 32.589L17.604 29.764C17.5811 29.4896 17.4831 29.2268 17.3207 29.0044C17.1584 28.782 16.938 28.6085 16.6836 28.5031C16.4292 28.3976 16.1507 28.3642 15.8786 28.4065C15.6065 28.4488 15.3513 28.5653 15.141 28.743L12.977 30.574C12.7855 30.736 12.5402 30.8203 12.2896 30.8099C12.0389 30.7996 11.8014 30.6954 11.624 30.5181L9.98401 28.8781C9.80655 28.7008 9.70221 28.4633 9.69165 28.2126C9.68109 27.962 9.76508 27.7166 9.927 27.525L11.758 25.361C11.936 25.1507 12.0526 24.8956 12.0952 24.6234C12.1377 24.3512 12.1044 24.0726 11.9991 23.8181C11.8937 23.5636 11.7203 23.343 11.4979 23.1805C11.2754 23.0181 11.0125 22.9199 10.738 22.897L7.91302 22.662C7.66245 22.6411 7.42891 22.5266 7.25897 22.3413C7.08903 22.156 6.9951 21.9134 6.99597 21.662V19.343C6.9951 19.0916 7.08903 18.849 7.25897 18.6637C7.42891 18.4784 7.66245 18.3639 7.91302 18.343L10.738 18.108C11.0125 18.0851 11.2754 17.9871 11.4979 17.8246C11.7203 17.6621 11.8937 17.4414 11.9991 17.1869C12.1044 16.9324 12.1377 16.6538 12.0952 16.3816C12.0526 16.1094 11.936 15.8543 11.758 15.644L9.927 13.48C9.76508 13.2884 9.68109 13.043 9.69165 12.7924C9.70221 12.5417 9.80655 12.3042 9.98401 12.127L11.624 10.4871C11.8014 10.3097 12.0389 10.2056 12.2896 10.1952C12.5402 10.1848 12.7855 10.269 12.977 10.431L15.141 12.262C15.3513 12.4397 15.6065 12.5562 15.8786 12.5985C16.1507 12.6408 16.4292 12.6074 16.6836 12.502C16.938 12.3965 17.1584 12.2232 17.3207 12.0007C17.4831 11.7783 17.5811 11.5154 17.604 11.241L17.84 8.41602C17.8609 8.16544 17.9754 7.9319 18.1607 7.76196Z" fill="white"/>
</svg>
