<svg width="40" height="40" viewBox="0 0 40 40" fill="none" xmlns="http://www.w3.org/2000/svg">
<path d="M0.5 0V39.125H39.625V0H0.5ZM2.65625 2.125H37.5V37H2.65625V2.125ZM23.9688 4.46875C23.2727 4.28224 20.7019 13.7537 19.8526 13.7537C19.6504 13.7537 17.407 14.2362 16.459 14.4902C15.2498 14.8142 12.625 20.8126 12.625 20.8126C12.625 20.8126 13.0065 22.7812 15.4688 22.7812C17.931 22.7812 17.9803 20.0625 19.9375 20.0625C21.8947 20.0625 22.9797 22.5312 25 22.5312C27.0203 22.5312 27.0677 19.8125 29.6562 19.8125C32.2448 19.8125 34.5194 23.9375 35.2188 23.9375C35.9181 23.9375 30.5625 10.9062 30.5625 10.9062C30.1091 10.9062 28.5956 13.8744 28.4062 13.9375C28.2168 14.0006 24.6648 4.65526 23.9688 4.46875ZM29.6562 23.3125C28.8348 23.3125 28.1147 23.6645 27.6562 24.125C27.1978 24.5855 26.9387 25.1072 26.6875 25.5312C26.4363 25.9553 26.2164 26.2756 26 26.4688C25.7836 26.6619 25.611 26.7812 25.1875 26.7812C24.7497 26.7812 24.601 26.6708 24.4062 26.5001C24.2115 26.3293 24.0076 26.0364 23.75 25.625C23.4924 25.2136 23.1819 24.686 22.6562 24.25C22.1306 23.814 21.3527 23.5312 20.4688 23.5312C19.581 23.5312 18.833 23.8315 18.3125 24.2812C17.792 24.731 17.4941 25.2639 17.25 25.6875C17.0059 26.1111 16.799 26.4269 16.625 26.5938C16.4509 26.7606 16.36 26.8438 15.9688 26.8438C15.584 26.8438 15.3899 26.7454 15.125 26.5312C14.8601 26.3171 14.5508 25.9615 14.2188 25.5312C13.8867 25.101 13.5204 24.5799 12.9688 24.1562C12.417 23.7326 11.6546 23.4375 10.7812 23.4375C9.90788 23.4375 9.16757 23.7636 8.65625 24.2188C8.14493 24.6739 7.84893 25.1928 7.59375 25.625C7.33856 26.0572 7.09666 26.3808 6.90625 26.5625C6.71584 26.7442 6.62587 26.8438 6.25 26.8438C5.72169 26.8368 5.23578 27.3154 5.23578 27.8438C5.23578 28.3721 5.72169 28.8512 6.25 28.8438C7.09231 28.8438 7.83294 28.4888 8.3125 28.0312C8.79205 27.5737 9.0644 27.0452 9.3125 26.625C9.56056 26.2048 9.76199 25.9028 9.96875 25.7188C10.1755 25.5347 10.3402 25.4375 10.7812 25.4375C11.2224 25.4375 11.4693 25.5344 11.75 25.75C12.0307 25.9656 12.3304 26.3279 12.6562 26.75C12.982 27.1721 13.3179 27.6374 13.8438 28.0625C14.3696 28.4876 15.1224 28.8438 15.9688 28.8438C16.8087 28.8438 17.5259 28.4858 18 28.0312C18.4741 27.5767 18.7354 27.0925 18.9688 26.6875C19.2021 26.2825 19.4263 25.9529 19.625 25.7812C19.8237 25.6096 19.9833 25.5312 20.4688 25.5312C20.958 25.5312 21.1657 25.6077 21.375 25.7812C21.5843 25.9549 21.7798 26.286 22.0312 26.6875C22.2827 27.089 22.593 27.5611 23.0938 28C23.5945 28.4389 24.331 28.7812 25.1875 28.7812C26.0582 28.7812 26.7993 28.4267 27.3125 27.9688C27.8258 27.5108 28.1432 26.9753 28.4062 26.5312C28.6693 26.0872 28.904 25.7218 29.0938 25.5312C29.2835 25.3407 29.3465 25.3125 29.6562 25.3125C30.2944 25.3125 31.0763 25.862 31.8438 26.6562C32.2275 27.0534 32.5726 27.4754 32.9688 27.8438C33.3649 28.2121 33.8157 28.6562 34.5938 28.6562C35.1174 28.6808 35.6161 28.2268 35.6406 27.7032C35.6652 27.1796 35.2112 26.6808 34.6876 26.6562C34.7133 26.6378 34.5528 26.5693 34.3438 26.375C34.0651 26.1159 33.706 25.7207 33.2813 25.2812C32.432 24.4024 31.2805 23.3125 29.6562 23.3125ZM29.6562 29.5625C28.8348 29.5625 28.1147 29.9145 27.6562 30.375C27.1978 30.8355 26.9387 31.3572 26.6875 31.7812C26.4363 32.2053 26.2164 32.5256 26 32.7188C25.7836 32.9119 25.611 33.0312 25.1875 33.0312C24.7497 33.0312 24.601 32.9207 24.4062 32.75C24.2115 32.5793 23.9764 32.2864 23.7188 31.875C23.4612 31.4636 23.1819 30.936 22.6562 30.5C22.1306 30.064 21.3527 29.7812 20.4688 29.7812C19.581 29.7812 18.833 30.0815 18.3125 30.5312C17.792 30.981 17.4941 31.5139 17.25 31.9375C17.0059 32.3611 16.799 32.6769 16.625 32.8438C16.4509 33.0106 16.36 33.0938 15.9688 33.0938C15.584 33.0938 15.39 32.9955 15.125 32.7813C14.8601 32.5671 14.5508 32.2114 14.2188 31.7812C13.8867 31.351 13.5205 30.8299 12.9688 30.4062C12.417 29.9826 11.6546 29.6875 10.7812 29.6875C9.90788 29.6875 9.16758 30.0136 8.65625 30.4688C8.14492 30.9239 7.84893 31.4428 7.59375 31.875C7.33856 32.3072 7.09667 32.6308 6.90625 32.8125C6.71584 32.9942 6.62585 33.0938 6.25 33.0938C5.72169 33.0868 5.23578 33.5654 5.23578 34.0938C5.23578 34.6221 5.72169 35.1012 6.25 35.0938C7.09231 35.0938 7.83294 34.7388 8.3125 34.2812C8.79205 33.8237 9.0644 33.2952 9.3125 32.875C9.56059 32.4548 9.76199 32.1216 9.96875 31.9375C10.1756 31.7534 10.3402 31.6875 10.7812 31.6875C11.2223 31.6875 11.4693 31.7844 11.75 32C12.0307 32.2156 12.3304 32.5779 12.6562 33C12.982 33.4221 13.3179 33.8875 13.8438 34.3125C14.3696 34.7375 15.1224 35.0938 15.9688 35.0938C16.8087 35.0938 17.5259 34.7358 18 34.2812C18.4741 33.8267 18.7354 33.3425 18.9688 32.9375C19.2021 32.5325 19.4263 32.2029 19.625 32.0312C19.8237 31.8596 19.9833 31.7812 20.4688 31.7812C20.958 31.7812 21.1657 31.8577 21.375 32.0312C21.5843 32.2049 21.7798 32.536 22.0312 32.9375C22.2827 33.339 22.593 33.8111 23.0938 34.25C23.5945 34.6889 24.331 35.0312 25.1875 35.0312C26.0582 35.0312 26.7993 34.6767 27.3125 34.2188C27.8257 33.7608 28.1432 33.2253 28.4062 32.7813C28.6693 32.3373 28.904 31.9718 29.0938 31.7812C29.2835 31.5907 29.3465 31.5625 29.6562 31.5625C30.2944 31.5625 31.0763 32.112 31.8438 32.9062C32.2275 33.3033 32.5726 33.7254 32.9688 34.0938C33.3649 34.4621 33.8157 34.9062 34.5938 34.9062C35.1032 34.8922 35.5589 34.4309 35.5669 33.9213C35.5749 33.4116 35.1339 32.9363 34.6251 32.9062C34.6411 32.9062 34.6475 32.8757 34.6562 32.8751C34.6031 32.8438 34.4831 32.7546 34.3438 32.6251C34.0651 32.366 33.7059 31.9707 33.2812 31.5313C32.4319 30.6524 31.2804 29.5625 29.6562 29.5625Z" fill="white"/>
</svg>
