<svg width="40" height="40" viewBox="0 0 40 40" fill="none" xmlns="http://www.w3.org/2000/svg">
<path d="M20.125 22.5C21.2296 22.5 22.125 21.6046 22.125 20.5C22.125 19.3954 21.2296 18.5 20.125 18.5C19.0204 18.5 18.125 19.3954 18.125 20.5C18.125 21.6046 19.0204 22.5 20.125 22.5Z" fill="white"/>
<path d="M14.5125 10.7787L18.2006 17.1669C18.2962 17.3331 18.2468 17.5425 18.0906 17.6544C17.2912 18.2269 16.7418 19.1269 16.6412 20.1569C16.6225 20.3506 16.4631 20.5 16.2681 20.5H8.89997C8.4656 20.5 8.12247 20.1325 8.15122 19.6987C8.40309 15.8769 10.445 12.5437 13.4462 10.53C13.8056 10.2881 14.2956 10.4031 14.5125 10.7787Z" fill="white"/>
<path d="M25.7376 10.7787L22.0495 17.1669C21.9532 17.3331 22.0026 17.5425 22.1588 17.6544C22.9582 18.2269 23.5076 19.1269 23.6082 20.1569C23.627 20.3506 23.787 20.5 23.9813 20.5H31.3501C31.7845 20.5 32.1276 20.1325 32.0988 19.6987C31.847 15.8769 29.8051 12.5437 26.8045 10.5294C26.4445 10.2881 25.9545 10.4031 25.7376 10.7787Z" fill="white"/>
<path d="M21.5762 23.6837C21.7506 23.6043 21.9574 23.6743 22.0537 23.8406L25.7387 30.2225C25.9549 30.5975 25.8106 31.0787 25.4224 31.27C23.8249 32.0575 22.0268 32.5 20.1249 32.5C18.2231 32.5 16.4249 32.0575 14.8274 31.2706C14.4387 31.0787 14.2949 30.5981 14.5112 30.2231L18.1962 23.8406C18.2924 23.6737 18.4993 23.6037 18.6737 23.6837C19.1162 23.8862 19.6074 24 20.1249 24C20.6424 24 21.1337 23.8862 21.5762 23.6837Z" fill="white"/>
<path d="M5.125 20.5C5.125 12.2177 11.8427 5.5 20.125 5.5C28.4073 5.5 35.125 12.2177 35.125 20.5C35.125 28.7823 28.4073 35.5 20.125 35.5C11.8427 35.5 5.125 28.7823 5.125 20.5ZM20.125 7.5C12.9473 7.5 7.125 13.3223 7.125 20.5C7.125 27.6777 12.9473 33.5 20.125 33.5C27.3027 33.5 33.125 27.6777 33.125 20.5C33.125 13.3223 27.3027 7.5 20.125 7.5Z" fill="white"/>
<path d="M0.125 0.5V39.625H39.25V0.5H0.125ZM2.28125 2.625H37.125V37.5H2.28125V2.625Z" fill="white"/>
</svg>
