<svg width="40" height="40" viewBox="0 0 40 40" fill="none" xmlns="http://www.w3.org/2000/svg">
<path d="M0.25 0.125V39.25H39.375V0.125H0.25ZM2.40625 2.25H37.25V37.125H2.40625V2.25Z" fill="white"/>
<path d="M10.4702 8.13256L13.1001 5.35743C13.5831 4.84771 14.0667 5.35686 14.0667 5.35686L20.9388 12.5915L22.4664 10.6047C23.4284 9.35033 25.0024 8.8813 26.4155 9.24423L25.4351 8.26385C25.1883 8.017 25.1883 7.61308 25.4351 7.35501L25.48 7.31013C25.7269 7.06329 26.1308 7.06329 26.3888 7.31013L27.8578 8.77909C28.3206 8.52012 28.9156 8.58757 29.3096 8.98143L29.3828 9.05456C29.787 9.45864 29.8561 10.0553 29.5971 10.5183L31.0649 11.9862C31.3117 12.233 31.3117 12.6369 31.0649 12.895L31.02 12.9399C30.7731 13.1867 30.3692 13.1867 30.1112 12.9399L29.1295 11.9582C29.4949 13.3724 29.026 14.9437 27.7698 15.9065L25.7811 17.4369L33.0236 24.3083C33.0236 24.3083 33.533 24.7917 33.0236 25.275L30.25 27.9065C30.25 27.9065 29.8477 28.2852 29.25 27.9065L27.536 26.9418C27.5227 26.9357 27.5095 26.929 27.4965 26.9217L21.6828 23.6419L21.6794 23.6452L19.3889 22.3559L12.8867 27.3596L15.1792 31.1823C15.2962 31.3865 15.2669 31.6394 15.1011 31.8047L13.9309 32.9718C13.7261 33.1761 13.4043 33.1761 13.2093 32.9718L9.70869 29.4721L9.21914 29.9617C9.00136 30.1794 8.66379 30.1794 8.44601 29.9617L8.41334 29.929C8.19555 29.7112 8.19555 29.3736 8.41334 29.1559L8.90289 28.6663L5.40318 25.1657C5.19894 24.9707 5.19894 24.6489 5.40318 24.4441L6.57025 23.2739C6.73559 23.1081 6.98845 23.0788 7.19269 23.1959L11.0204 25.4913L16.0236 18.9842L10.4708 9.13256C10.1403 8.58237 10.4702 8.13256 10.4702 8.13256ZM22.4168 22.9078L27.8417 25.9683L28.0464 25.7636C28.2651 25.5449 28.2651 25.1903 28.0464 24.9716L24.5957 21.521C24.377 21.3023 24.0224 21.3023 23.8037 21.521L22.4168 22.9078ZM11.6774 11.273L11.6787 11.2716L14.7375 16.6996L14.7366 16.7005L11.6774 11.273ZM15.4713 15.9649L16.8596 14.5749C17.0782 14.3561 17.078 14.0015 16.8592 13.783L13.4064 10.3343C13.1876 10.1158 12.833 10.116 12.6145 10.3348L12.4126 10.5369L15.4713 15.9649ZM24.4009 11.4332L26.9317 13.9648C27.1434 14.1766 27.4717 14.1766 27.6835 13.9754L27.7576 13.9012C28.4141 13.2339 28.4141 12.1641 27.7576 11.5073L26.8681 10.6175C26.201 9.96082 25.1315 9.96082 24.475 10.6175L24.4009 10.6917C24.1997 10.893 24.1997 11.2319 24.4009 11.4332Z" fill="white"/>
</svg>
