<svg width="40" height="40" viewBox="0 0 40 40" fill="none" xmlns="http://www.w3.org/2000/svg">
<path d="M0 0.25V39.375H39.125V0.25H0ZM2.15625 2.375H37V37.25H2.15625V2.375Z" fill="white"/>
<path d="M28.5 14.5C28.5 16.2949 27.0449 17.75 25.25 17.75C23.4551 17.75 22 16.2949 22 14.5C22 12.7051 23.4551 11.25 25.25 11.25C27.0449 11.25 28.5 12.7051 28.5 14.5Z" fill="white"/>
<path d="M34.5771 10.2565C34.5646 10.2899 34.5536 10.3184 34.5444 10.3417L34.5336 10.3801C34.5159 10.4421 34.4899 10.5319 34.4554 10.6467C34.3865 10.8762 34.2838 11.206 34.1467 11.6147C33.8726 12.4313 33.4598 13.5662 32.9026 14.8458C31.7963 17.3862 30.087 20.5771 27.7071 22.957C25.4094 25.2547 23.677 26.5479 21.9937 27.4692C21.8257 27.5611 21.658 27.6493 21.4904 27.7345L19.8885 32.0863C19.6364 32.7712 18.7591 32.9641 18.243 32.4479L15.7398 29.9448C15.7366 29.9481 15.7334 29.9514 15.7302 29.9547C15.726 29.959 15.7218 29.9633 15.7175 29.9675C15.3855 30.2995 14.9365 30.4434 14.5032 30.399C14.4955 30.4254 14.4881 30.4498 14.481 30.4719C14.4686 30.5111 14.4574 30.5435 14.4483 30.5687L14.4417 30.587C13.9631 31.9965 12.7685 32.8954 11.7703 33.3823C11.2556 33.6334 10.7371 33.8035 10.294 33.8842C10.0756 33.924 9.8425 33.9482 9.62007 33.9357C9.46264 33.9268 9.04455 33.8907 8.72191 33.568C8.69441 33.5405 8.66844 33.512 8.64403 33.4824C8.34449 33.6154 7.94386 33.7583 7.55901 33.8508C7.32814 33.9064 7.0555 33.9556 6.7896 33.958C6.58853 33.9599 6.09234 33.944 5.71634 33.568C5.44117 33.2928 5.31139 32.9335 5.24172 32.6756C5.16374 32.3869 5.11933 32.0619 5.09976 31.7289C5.06049 31.0608 5.11576 30.2629 5.27943 29.4644C5.4427 28.6679 5.72324 27.8248 6.16409 27.0906C6.60492 26.3564 7.24058 25.6767 8.1286 25.3215C8.12988 25.321 8.13189 25.3202 8.13189 25.3202L8.13612 25.3185L8.14738 25.3141L8.18088 25.3015C8.20797 25.2914 8.24456 25.2783 8.28978 25.263C8.38006 25.2324 8.50571 25.1929 8.65977 25.152C8.92042 25.083 9.27135 25.008 9.67609 24.9688C9.74298 24.7277 9.87118 24.5001 10.0607 24.3106C10.0682 24.3031 10.0758 24.2957 10.0834 24.2884L9.31964 23.5246L9.31001 23.5158L7.10548 21.3104C6.58935 20.7943 6.78217 19.917 7.46715 19.6649L11.361 18.2316C11.4167 18.1141 11.4746 17.996 11.5351 17.8772C12.3917 16.1925 13.706 14.4435 16.3196 12.017C18.9837 9.54369 22.1741 7.74813 24.671 6.57583C25.9244 5.98732 27.0147 5.55051 27.794 5.26005C28.1838 5.11474 28.4965 5.00581 28.7135 4.93264C28.822 4.89605 28.9067 4.86839 28.9653 4.84956L29.0332 4.82795L29.0345 4.82753L29.0472 4.82297C29.0722 4.81413 29.106 4.80254 29.1478 4.789C29.2311 4.76195 29.3472 4.72683 29.4894 4.69015C29.7718 4.61731 30.1685 4.53549 30.6255 4.50162C31.5161 4.4356 32.788 4.54314 33.8273 5.44406C34.9453 6.41317 35.0377 7.78307 34.9428 8.70037C34.8936 9.17717 34.7889 9.59703 34.6986 9.89485C34.653 10.0452 34.6099 10.1683 34.5771 10.2565ZM27.2709 7.61446C26.7462 7.83118 26.1557 8.08822 25.521 8.38621C23.1203 9.51338 20.1337 11.205 17.6804 13.4827C15.1765 15.8073 14.0349 17.3735 13.3178 18.7837C12.9542 19.4988 12.6883 20.1963 12.4076 20.9815C12.3549 21.1288 12.3016 21.2796 12.247 21.4342C12.1715 21.6478 12.0935 21.8684 12.0114 22.0965L17.5815 20.0461C18.782 19.6042 19.9492 20.7714 19.5073 21.9719L17.5656 27.247C17.5989 27.2339 17.6321 27.2208 17.6652 27.2078C18.91 26.7183 19.9398 26.3133 21.0336 25.7147C22.5079 24.9079 24.0907 23.745 26.2929 21.5428C28.4129 19.4229 30.0018 16.4978 31.0689 14.0473C31.36 13.3787 31.6098 12.7514 31.8188 12.1935L27.2709 7.61446ZM12.6491 29.0204L10.589 26.9603C10.3978 26.9389 10.2039 26.9366 10.0117 26.9482C9.68073 26.9682 9.3851 27.0289 9.17181 27.0854C9.06633 27.1133 8.98407 27.1394 8.93134 27.1573C8.90506 27.1662 8.88636 27.1729 8.87605 27.1768L8.86789 27.1798C8.50725 27.3252 8.17118 27.6331 7.87875 28.1201C7.58538 28.6087 7.37045 29.2232 7.23869 29.866C7.10734 30.5069 7.06801 31.13 7.09631 31.6115C7.10263 31.7191 7.11206 31.8148 7.12341 31.8984C7.4337 31.8206 7.76032 31.6934 7.92115 31.613C7.99875 31.5742 8.08278 31.5307 8.16798 31.4867L8.16892 31.4862C8.36443 31.3852 8.56627 31.2809 8.71042 31.222C8.82555 31.1749 9.03783 31.0961 9.29197 31.0965C9.60891 31.0969 9.90791 31.2185 10.1361 31.4467C10.2428 31.5534 10.3215 31.6739 10.3755 31.7989C10.536 31.7444 10.7116 31.6734 10.8935 31.5847C11.6607 31.2105 12.318 30.6335 12.5513 29.9337L12.5608 29.9052L12.568 29.8872L12.5699 29.8816L12.5747 29.8671C12.5831 29.8407 12.5968 29.7936 12.6109 29.7294C12.6394 29.5996 12.6674 29.4088 12.6601 29.1825C12.6585 29.1307 12.655 29.0765 12.6491 29.0204ZM9.73281 31.9388C9.70961 31.9375 9.71537 31.9353 9.74111 31.939L9.73281 31.9388Z" fill="white"/>
</svg>
