<svg width="40" height="40" viewBox="0 0 40 40" fill="none" xmlns="http://www.w3.org/2000/svg">
<path d="M0 0V39.125H39.125V0H0ZM2.15625 2.125H37V37H2.15625V2.125ZM19.5625 2.9375C10.3808 2.9375 2.9375 10.3808 2.9375 19.5625C2.9375 28.7442 10.3808 36.1875 19.5625 36.1875C28.7442 36.1875 36.1875 28.7442 36.1875 19.5625C36.1875 10.3808 28.7442 2.9375 19.5625 2.9375ZM18.6562 6.46875L15.1562 13.5625L7.375 14.6875C9.20605 10.1259 13.5289 6.81928 18.6562 6.46875ZM20.4688 6.46875C25.5961 6.81928 29.9189 10.1259 31.75 14.6875L23.9688 13.5625L20.4688 6.46875ZM6.8125 16.5L12.4375 21.9375L11.125 29.5938C8.26652 27.1861 6.4375 23.5924 6.4375 19.5625C6.4375 18.5098 6.57844 17.481 6.8125 16.5ZM32.3125 16.5C32.5466 17.481 32.6875 18.5098 32.6875 19.5625C32.6875 23.5924 30.8585 27.1861 28 29.5938L26.6875 21.9375L32.3125 16.5ZM19.5625 27.125L26.4375 30.7188C24.4364 31.9536 22.0866 32.6875 19.5625 32.6875C17.0384 32.6875 14.6886 31.9536 12.6875 30.7188L19.5625 27.125Z" fill="white"/>
</svg>
