<svg width="40" height="40" viewBox="0 0 40 40" fill="none" xmlns="http://www.w3.org/2000/svg">
<path d="M0.5 0.125V39.25H39.625V0.125H0.5ZM2.65625 2.25H37.5V37.125H2.65625V2.25Z" fill="white"/>
<g clip-path="url(#clip0_856_2656)">
<path d="M13.0978 12.8386L13.0803 12.375H14.7891V13.1614C14.665 13.2503 14.6123 13.4219 14.6265 13.5712C14.6447 13.7616 14.6447 13.8069 14.6447 13.8069C14.6628 13.9791 14.699 14.1422 14.7625 14.2872C14.7625 14.2872 14.7757 14.3599 14.8247 14.477L14.6809 18.2837C14.6719 18.5284 14.4816 18.7187 14.2369 18.7187H13.7475C13.5028 18.7187 13.3125 18.5284 13.3034 18.2837L13.189 15.2518C13.3519 15.2464 13.5055 15.1382 13.5572 14.9759C13.6115 14.7675 13.4937 14.559 13.2943 14.4956L13.2565 14.4846C13.4486 14.5308 13.6505 14.4146 13.7113 14.2237C13.7656 14.0153 13.6478 13.8069 13.4485 13.7434L13.4142 13.7334C13.6094 13.7649 13.7967 13.6496 13.8562 13.4625C13.9106 13.2541 13.7928 13.0456 13.5934 12.9822L13.0978 12.8386Z" fill="white"/>
<path d="M13.0426 5.45311C13.3768 5.23715 13.7667 5.12314 14.1647 5.12499C15.1135 5.12499 15.9047 5.73127 16.8163 7.1713C17.3057 7.91171 17.5873 8.76987 17.632 9.65624C17.632 9.72693 17.6292 9.79671 17.6238 9.86468C17.9267 10.2781 18.1063 10.7689 18.1419 11.2802C18.1775 11.7915 18.0677 12.3024 17.825 12.7538C18.2454 12.8372 18.631 13.0453 18.9315 13.351L19.5659 13.9854L19.6801 13.2695C19.757 12.7687 20.0103 12.3118 20.3944 11.9814C20.7785 11.651 21.268 11.4688 21.7747 11.4675C22.2814 11.4663 22.7718 11.6463 23.1574 11.9749C23.5431 12.3035 23.7986 12.7591 23.8778 13.2595L23.9929 13.9845L24.621 13.3501C24.8176 13.1516 25.0516 12.994 25.3095 12.8865C25.5674 12.779 25.8441 12.7238 26.1235 12.7239C26.4904 12.7254 26.8508 12.8206 27.1705 13.0004C27.4903 13.1803 27.7588 13.4388 27.9505 13.7516C28.1395 14.0578 28.2462 14.4076 28.2605 14.7672C28.2748 15.1268 28.1961 15.484 28.0321 15.8042L27.9125 16.0426C28.0523 16.014 28.1947 15.9997 28.3375 16C28.8035 16.0013 29.2561 16.1558 29.6256 16.4396C29.9952 16.7233 30.2613 17.1207 30.3829 17.5705C30.4847 17.9313 30.488 18.3127 30.3924 18.6752C30.2967 19.0376 30.1057 19.3678 29.8392 19.6313C30.2071 19.8604 30.4962 20.1965 30.6679 20.5945C30.8395 20.9924 30.8855 21.4333 30.7996 21.8582C30.7138 22.283 30.5002 22.6715 30.1875 22.9715C29.8748 23.2716 29.4778 23.469 29.0498 23.5373L27.047 23.8563L27.6814 27.155C29.0172 28.0957 30.8514 29.7061 30.8387 31.4352V32.3415C30.8387 32.8222 30.6478 33.2832 30.3079 33.6231C29.968 33.963 29.507 34.154 29.0262 34.154H27.7756C27.7212 34.1612 27.666 34.1612 27.6107 34.1612H26.206C26.1583 34.1612 26.1111 34.1594 26.0646 34.1558L21.4917 34.1612L11.8039 34.1522C11.565 34.1522 11.3285 34.105 11.1079 34.0133C10.8874 33.9216 10.6871 33.7872 10.5187 33.6178C10.3503 33.4484 10.217 33.2474 10.1265 33.0264C10.036 32.8053 9.99006 32.5686 9.99137 32.3297L9.99953 30.8407C9.9959 30.4033 9.98321 30.0164 9.96146 29.6798C9.90221 28.9148 9.77483 28.1566 9.58084 27.4142C9.50109 27.1151 9.42043 26.7653 9.34975 26.43C9.08725 25.2008 9.05927 23.9331 9.26728 22.6936C9.43352 21.8917 9.78863 21.1411 10.3031 20.5041L11.1169 16.3081C10.8845 16.088 10.7026 15.82 10.5838 15.5228C10.4651 15.2255 10.4123 14.9059 10.4291 14.5862C10.3005 14.2133 10.2742 13.8128 10.353 13.4262C10.3182 13.2165 10.3146 13.0027 10.3421 12.7919C10.0869 12.3363 9.9688 11.8168 10.0019 11.2957C10.035 10.7747 10.218 10.2743 10.5288 9.85471C10.5179 9.74143 10.5125 9.62724 10.5125 9.51305C10.5125 8.9104 10.9719 6.91665 12.2824 6.34118C12.4442 5.97764 12.7084 5.66907 13.0426 5.45311ZM15.2793 8.12468C14.9622 7.62624 14.4456 6.93749 14.1647 6.93749C13.9408 6.93749 13.8257 7.28277 13.7478 7.5193C13.7278 7.58093 13.7097 7.63259 13.6934 7.67155C13.6118 7.86187 13.4215 8.23343 13.3128 8.23343C13.2601 8.23343 13.2241 8.18067 13.1841 8.12192L13.1799 8.11568C13.1399 8.05701 13.0995 7.9978 13.0409 7.9978C12.8143 7.9978 12.325 9.0853 12.325 9.51124C12.318 9.89658 12.4535 10.2709 12.7056 10.5625C12.4685 10.5637 12.2412 10.6577 12.0725 10.8247C11.9017 10.9938 11.8051 11.2239 11.8039 11.4642C11.8027 11.7046 11.897 11.9355 12.0661 12.1064C12.2352 12.2772 12.4652 12.3738 12.7056 12.375V12.7248L12.624 12.7012C12.5916 12.6923 12.558 12.6877 12.5243 12.6876C12.4322 12.6882 12.3432 12.7215 12.2734 12.7816C12.2036 12.8418 12.1574 12.9248 12.1433 13.0158C12.1291 13.1069 12.1478 13.2 12.196 13.2786C12.2443 13.3571 12.3189 13.4159 12.4065 13.4444L12.5533 13.4815H12.5089C12.4154 13.4797 12.3243 13.512 12.2527 13.5723C12.1812 13.6327 12.134 13.7169 12.1199 13.8095C12.1058 13.902 12.1258 13.9965 12.1762 14.0754C12.2266 14.1542 12.304 14.2121 12.3938 14.2382L12.6802 14.3189H12.6258C12.5323 14.3173 12.4415 14.3498 12.3701 14.4102C12.2987 14.4706 12.2517 14.5548 12.2377 14.6473C12.2237 14.7398 12.2438 14.8341 12.2942 14.9129C12.3446 14.9917 12.4219 15.0495 12.5117 15.0756L12.5334 15.082V15.0937C12.5472 15.1032 12.5595 15.1148 12.5697 15.1282L12.5878 15.1481C12.7322 15.3124 12.8393 15.506 12.9019 15.7156C12.9645 15.9252 12.981 16.1459 12.9503 16.3625V16.3697L11.9978 21.256C11.9423 21.7555 11.9519 22.2908 12.0717 22.7357C12.1565 23.0506 12.2881 23.2896 12.4598 23.4474C12.6227 23.5972 12.8528 23.7031 13.2031 23.7031C13.6773 23.7031 13.9939 23.5714 14.2194 23.3874C14.4521 23.1975 14.6233 22.9226 14.7493 22.5827C14.9434 22.0593 15.0006 21.4923 15.0515 20.9878C15.0601 20.9018 15.0686 20.8176 15.0776 20.7358L15.0981 18.3925L18.1522 20.2177V20.2202H18.1944C18.4614 18.7534 19.7343 17.6383 21.2784 17.6222L22.1847 17.6131C23.759 17.5889 25.0743 18.7226 25.3427 20.2197H25.4287L28.4861 18.3925C28.5442 18.3582 28.5896 18.3059 28.6155 18.2435C28.6414 18.1812 28.6463 18.1121 28.6295 18.0467C28.6128 17.9813 28.5753 17.9231 28.5226 17.8809C28.4699 17.8386 28.405 17.8146 28.3375 17.8125C28.3126 17.8143 28.288 17.8189 28.2641 17.8261L25.017 18.5511C24.9529 18.4346 24.8814 18.3223 24.8031 18.2149C24.8094 18.2058 24.8151 18.1965 24.8203 18.1868L26.4153 14.9968C26.4396 14.9482 26.451 14.8942 26.4483 14.84C26.4457 14.7858 26.4292 14.7332 26.4003 14.6872C26.3714 14.6412 26.3312 14.6035 26.2836 14.5775C26.2359 14.5516 26.1823 14.5384 26.1281 14.5391C26.0868 14.5392 26.046 14.5477 26.0082 14.5641C25.9703 14.5805 25.9362 14.6043 25.9078 14.6343L23.4283 17.1401C23.1729 17.0368 22.9051 16.9673 22.6317 16.9334L22.088 13.5468C22.0767 13.4732 22.0394 13.4061 21.9829 13.3576C21.9263 13.3091 21.8543 13.2824 21.7799 13.2824C21.7054 13.2824 21.6334 13.3091 21.5769 13.3576C21.5204 13.4061 21.4831 13.4732 21.4717 13.5468L20.928 16.9416C20.6569 16.9754 20.3913 17.0439 20.1377 17.1455L17.6447 14.6252C17.6161 14.5953 17.5818 14.5715 17.5438 14.5551C17.5058 14.5388 17.4649 14.5303 17.4235 14.5301C17.3692 14.5292 17.3156 14.5424 17.2679 14.5683C17.2202 14.5943 17.18 14.6321 17.1512 14.6781C17.1224 14.7241 17.106 14.7768 17.1035 14.8311C17.1011 14.8853 17.1126 14.9393 17.1372 14.9877L18.7231 18.1868C18.7306 18.2025 18.7407 18.2169 18.753 18.2294C18.6793 18.3309 18.6118 18.4369 18.5509 18.5466L15.3247 17.8216C15.2991 17.8156 15.273 17.8125 15.2467 17.8125C15.1941 17.8131 15.1427 17.8281 15.0981 17.856L15.1162 15.7861C15.1162 15.7861 15.6056 15.7317 15.6056 14.8799V14.5174C15.612 14.4677 15.6089 14.4173 15.5965 14.3687L15.515 14.1694C15.4535 14.0155 15.4138 13.8539 15.3972 13.6891C15.3972 13.6891 15.3881 13.5894 15.37 13.3991C15.3536 13.3146 15.3084 13.2387 15.2422 13.1841V12.375H15.4334C15.6738 12.375 15.9043 12.2795 16.0742 12.1096C16.2442 11.9396 16.3397 11.7091 16.3397 11.4687C16.3397 11.2284 16.2442 10.9979 16.0742 10.8279C15.9043 10.658 15.6738 10.5625 15.4334 10.5625H15.4243C15.6487 10.3095 15.7882 9.99258 15.8231 9.65624C15.7765 9.10748 15.5892 8.57999 15.2793 8.12468ZM15.9691 20.9402C15.9678 20.9534 15.9665 20.9667 15.9651 20.9802C15.9386 21.2467 15.9057 21.5763 15.8474 21.9214L18.1401 22.2864L18.1428 22.2786V20.5944L15.9691 20.9402ZM15.8436 21.9439C15.7889 22.2618 15.7124 22.5921 15.5991 22.8977C15.4381 23.332 15.1901 23.765 14.7923 24.0896C14.3871 24.4202 13.8617 24.6094 13.2031 24.6094C12.6472 24.6094 12.1919 24.4321 11.8465 24.1146C11.5098 23.8051 11.3101 23.3928 11.1966 22.9713C11.1702 22.8732 11.148 22.7729 11.1296 22.6711C11.1078 22.7423 11.089 22.8145 11.0734 22.8877C11.067 22.9147 11.061 22.9419 11.0555 22.9691C11.0525 22.9841 11.0496 22.9993 11.0469 23.0144C11.0181 23.1842 10.9951 23.3545 10.9778 23.5251C10.8916 24.374 10.9458 25.2293 11.1194 26.0594C11.1828 26.3584 11.2553 26.6756 11.3278 26.9475C11.4213 27.3054 11.5014 27.6665 11.5679 28.0301L14.0013 25.2256C14.2641 24.8722 14.8078 24.7272 14.9981 25.0897L15.3788 25.8781C15.3788 26.7119 15.0706 27.5094 14.5088 28.1166L11.8081 31.0891L11.8067 31.0881L11.8026 32.2318L11.8021 32.3388L12.7054 32.3396L20.7075 28.4519C20.8615 28.3703 21.0066 28.5787 20.8797 28.6965L17.2365 32.3397L17.2104 32.3438L21.4899 32.3478L26.197 32.3424L25.2387 29.7297C25.1753 29.5666 25.3928 29.4488 25.5016 29.5847L27.6033 32.3478H27.6071L27.6016 32.3406H29.0208V31.4343C29.0236 31.0512 28.7562 30.6102 28.3876 30.1853C27.6079 28.9995 26.3725 28.438 26.2858 28.3996L26.2839 28.3984C26.2391 28.3685 26.1935 28.3398 26.1472 28.3121C25.6053 27.9854 24.9773 27.8084 24.3416 27.8084H23.5894V25.9995C23.4923 26.0571 23.3977 26.1082 23.3081 26.1535C22.9734 26.3225 22.6526 26.4379 22.4071 26.5117C22.2837 26.5488 22.1746 26.5767 22.0868 26.5963C22.0433 26.606 22.001 26.6145 21.962 26.6212L21.9595 26.6216C21.9399 26.625 21.8576 26.6394 21.7678 26.6394C21.6755 26.6394 21.5916 26.6244 21.5702 26.6206L21.5676 26.6201C21.527 26.613 21.4833 26.6039 21.4389 26.5936C21.3492 26.573 21.2386 26.5436 21.1141 26.5049C20.8662 26.4279 20.5438 26.3083 20.2084 26.1348C19.96 26.0063 19.6742 25.8322 19.4025 25.6034V26.3028C18.7322 25.6655 18.0635 24.888 17.5809 24.1744C17.5594 24.1421 17.5376 24.1096 17.5155 24.0767C17.2634 23.6903 16.9942 23.3153 16.7088 22.9533C16.4531 22.6212 16.193 22.3078 15.9503 22.0531C15.9143 22.0154 15.8787 21.9789 15.8436 21.9439ZM25.4049 20.595H25.3928L25.3928 22.129L25.4185 22.279L28.758 21.7465C28.8316 21.7352 28.8987 21.6979 28.9472 21.6414C28.9957 21.5849 29.0223 21.5129 29.0223 21.4384C29.0223 21.3639 28.9957 21.2919 28.9472 21.2354C28.8987 21.1789 28.8316 21.1416 28.758 21.1303L25.4049 20.595ZM19.3119 23.8934C19.335 23.9859 19.3656 24.0743 19.4025 24.1587C19.9156 25.3309 21.6579 25.7331 21.7678 25.7331C21.8453 25.7331 22.8758 25.5122 23.5894 24.8897C23.877 24.6389 24.1131 24.3228 24.2147 23.9297C24.3664 23.3371 24.4491 22.1739 24.4763 21.4375H23.2359C22.7005 21.4375 22.2054 21.2584 21.8073 20.9571C21.4239 21.2579 20.9411 21.4375 20.4175 21.4375H19.0674C19.0921 22.1687 19.1675 23.3158 19.3119 23.8934ZM22.1847 19.3894L21.8056 19.3932C21.8887 19.7507 22.1038 20.0595 22.396 20.2649C22.6345 20.4325 22.9244 20.5312 23.2359 20.5312H24.4865L24.4866 20.3411C23.9028 19.7459 23.0862 19.3801 22.1847 19.3894ZM21.2784 19.3984C20.4084 19.4075 19.6245 19.7655 19.0581 20.3387V20.5312H20.4175C20.7083 20.5312 20.9782 20.4383 21.1991 20.2806C21.4878 20.0745 21.6928 19.7579 21.751 19.3937L21.2784 19.3984Z" fill="white"/>
</g>
<defs>
<clipPath id="clip0_856_2656">
<rect width="29" height="29" fill="white" transform="translate(5.5 5.125)"/>
</clipPath>
</defs>
</svg>
