<svg width="40" height="40" viewBox="0 0 40 40" fill="none" xmlns="http://www.w3.org/2000/svg">
<path d="M0 0.375V39.5H39.125V0.375H0ZM2.15625 2.5H37V37.375H2.15625V2.5Z" fill="white"/>
<path d="M22.8982 16.375H19.1018C18.4908 16.375 18 16.865 18 17.475V23.275C18 23.885 18.4908 24.375 19.1018 24.375H22.8982C23.5092 24.375 24 23.885 24 23.275V17.475C24 16.875 23.5092 16.375 22.8982 16.375Z" fill="white"/>
<path d="M27.1018 16.375H30.8982C31.5092 16.375 32 16.875 32 17.475V23.275C32 23.885 31.5092 24.375 30.8982 24.375H27.1018C26.4908 24.375 26 23.885 26 23.275V17.475C26 16.865 26.4908 16.375 27.1018 16.375Z" fill="white"/>
<path d="M23 4.375H17C16.2636 4.375 15.6169 4.77834 15.2698 5.375H6.00001V6.375H15C15 7.475 15.9 8.375 17 8.375H6.00001V9.375H19.0026V10.6433C18.4045 10.99 18 11.6376 18 12.375H15.59C15.26 12.375 15 12.645 15 12.965V13.375H7.81065C6.5461 13.375 5.47244 14.2203 5.12675 15.375H5.00001L5 26.8882C4.99997 26.9749 4.99992 27.1064 5.01234 27.2466L5.02231 27.4458L5.02422 27.4666C5.32007 30.6842 7.95645 33.2104 11.2047 33.3639L11.2164 33.3644C11.2403 33.3672 11.3104 33.375 11.3919 33.375H32.3194C33.8678 33.375 35 32.0491 35 30.575V16.155C35 14.6224 33.7516 13.375 32.2194 13.375H25V12.965C25 12.645 24.73 12.375 24.41 12.375H22C22 11.6397 21.5978 10.9937 21.0026 10.6462V9.375H34V8.375H23C24.1 8.375 25 7.475 25 6.375H34V5.375H24.7303C24.3831 4.77834 23.7364 4.375 23 4.375ZM7.00001 26.875V26.375H14.8989C15.5095 26.375 16 25.885 16 25.275V17.475C16 16.865 15.5095 16.375 14.8989 16.375H7.01001V16.175C7.01001 15.7376 7.37224 15.375 7.81065 15.375H32.2194C32.6478 15.375 33 15.7276 33 16.155V27.375H7.02518C7.02249 27.3511 7.01999 27.3272 7.01767 27.3031L7.00751 27.1002L7.00504 27.0755C7.00083 27.0334 7.00001 26.9831 7.00001 26.875ZM7.76192 29.375H33V30.575C33 31.0809 32.6317 31.375 32.3194 31.375H11.4225C11.3989 31.3724 11.3469 31.3669 11.2846 31.3654C9.8175 31.2914 8.53336 30.5193 7.76192 29.375Z" fill="white"/>
</svg>
