<svg width="40" height="40" viewBox="0 0 40 40" fill="none" xmlns="http://www.w3.org/2000/svg">
<path d="M23.0253 18.2375C22.6038 16.8237 22.2376 15.4772 21.9369 14.25H18.0928C17.7571 15.5128 17.3504 16.8475 16.9113 18.2281L16.675 18.2277C16.4129 18.2277 16.2032 18.4206 16.2032 18.6618L16.2033 20.4221C16.1778 20.5006 16.1522 20.5792 16.1266 20.6579L16.0966 20.75C15.935 21.2467 15.7723 21.7471 15.6101 22.25C15.5535 22.4256 15.4969 22.6016 15.4405 22.7778C15.4028 22.8955 15.3652 23.0133 15.3276 23.1312C14.8469 24.6352 14.3093 26.1055 13.7186 27.5416C13.5308 27.9981 13.3376 28.4511 13.1392 28.9007C12.4822 30.389 11.7677 31.8391 11 33.25H10.5093C10.2297 33.25 10 33.4755 10 33.75C10 34.0245 10.2297 34.25 10.5093 34.25H16.4907C16.7703 34.25 17 34.0245 17 33.75C17 33.4755 16.7703 33.25 16.4907 33.25H16.0772C16.447 31.4328 18.0661 30.0624 20.005 30.0624C21.9439 30.0624 23.563 31.4328 23.9328 33.25H23.5093C23.2297 33.25 23 33.4755 23 33.75C23 34.0245 23.2297 34.25 23.5093 34.25H29.4907C29.7703 34.25 30 34.0245 30 33.75C30 33.4755 29.7703 33.25 29.4907 33.25H29C28.2628 31.8944 27.5488 30.4077 26.8709 28.8548C26.6866 28.4327 26.5049 28.0056 26.3262 27.575C25.6795 26.0168 25.071 24.4117 24.5129 22.8216L24.494 22.768C24.4335 22.5951 24.3735 22.4224 24.3141 22.25C24.2076 21.9404 24.103 21.6317 24.0004 21.3242L23.9896 18.6723C24.0001 18.4312 23.7904 18.2383 23.5283 18.2383L23.0253 18.2375ZM20.75 18.234V15.6986C20.9608 16.5102 21.1956 17.3597 21.4518 18.2351L20.75 18.234ZM18.4787 18.2305C18.7532 17.3658 19.0135 16.5165 19.25 15.6886V18.2317L18.4787 18.2305ZM22.9981 20.75H17.2033L17.2033 19.2285L22.9919 19.2374L22.9981 20.75ZM17.6328 22.25H19.25V23.2406L17.6328 22.25ZM16.4444 27.75L19.25 26.0363V27.75H16.4444ZM20.75 26.03L23.5579 27.75H20.75V26.03ZM14.6138 29.25H17.3483C16.326 29.8098 15.4936 30.6857 14.9978 31.7605H13.4486C13.8567 30.931 14.2454 30.0937 14.6138 29.25ZM26.5414 31.7605H24.9922C24.4955 30.6893 23.6608 29.8113 22.6359 29.25H25.3966C25.7689 30.1109 26.1512 30.9513 26.5414 31.7605ZM23.1968 23.6255C23.5081 24.5033 23.8338 25.3833 24.1717 26.2553L21.5353 24.6404L23.1968 23.6255ZM16.7468 23.578L18.4655 24.6307L15.8304 26.2402C16.1589 25.3578 16.4647 24.4699 16.7468 23.578ZM20.75 22.25H22.363L20.75 23.2353V22.25Z" fill="white"/>
<path d="M21.4828 12.25C21.329 11.5056 21.2096 10.8332 21.128 10.25H18.9064C18.8331 10.8826 18.7192 11.5511 18.5728 12.25H21.4828Z" fill="white"/>
<path d="M18.9985 8.25H21.0015L21.0044 7.24301C20.9944 6.70679 20.5547 6.25993 20.005 6.25H19.995C19.4453 6.25 18.9956 6.69686 18.9956 7.24301L18.9985 8.25Z" fill="white"/>
<path d="M0 0.25V39.375H39.125V0.25H0ZM2.15625 2.375H37V37.25H2.15625V2.375Z" fill="white"/>
</svg>
