<svg width="40" height="40" viewBox="0 0 40 40" fill="none" xmlns="http://www.w3.org/2000/svg">
<path d="M0.375 0.25V39.375H39.5V0.25H0.375ZM2.53125 2.375H37.375V37.25H2.53125V2.375Z" fill="white"/>
<g clip-path="url(#clip0_856_2652)">
<path d="M25.375 12.25C25.9273 12.25 26.375 11.8023 26.375 11.25C26.375 10.6977 25.9273 10.25 25.375 10.25C24.8227 10.25 24.375 10.6977 24.375 11.25C24.375 11.8023 24.8227 12.25 25.375 12.25Z" fill="white"/>
<path d="M21.855 6.25C25.9695 6.25 29.305 9.58548 29.305 13.7C29.305 13.835 29.3014 13.9692 29.2943 14.1026C32.5766 15.5602 34.9392 18.3817 35.9141 21.6871L36.087 22.2732L35.6443 22.6945C32.7243 25.4729 28.4587 26.7305 24.2659 25.6059L24.0251 25.5413L24.375 31.25H9.375L14.9075 23.0983L13.8165 22.806C9.61343 21.6816 6.5595 18.4704 5.41584 14.5929L5.24335 14.0081L5.68426 13.5869C8.17397 11.2087 11.6419 9.94311 15.2114 10.3258C16.4417 7.90812 18.9537 6.25 21.855 6.25ZM16.8073 11.6406L27.2553 14.4401C27.2552 14.4401 27.2554 14.4401 27.2553 14.4401C27.2881 14.1985 27.305 13.9515 27.305 13.7C27.305 10.69 24.865 8.25 21.855 8.25C19.5753 8.25 17.6202 9.65014 16.8073 11.6406ZM14.3338 20.8741L24.7838 23.6741C26.2152 24.058 27.6581 24.1087 29.0305 23.8745C30.3697 23.646 31.6418 23.1462 32.771 22.4199L8.04001 15.7915C9.28399 18.214 11.496 20.1149 14.3338 20.8741ZM11.985 13.85C11.985 14.4023 12.4327 14.85 12.985 14.85C13.5373 14.85 13.985 14.4023 13.985 13.85C13.985 13.2977 13.5373 12.85 12.985 12.85C12.4327 12.85 11.985 13.2977 11.985 13.85ZM17.065 15.94C17.6173 15.94 18.065 15.4923 18.065 14.94C18.065 14.3877 17.6173 13.94 17.065 13.94C16.5127 13.94 16.065 14.3877 16.065 14.94C16.065 15.4923 16.5127 15.94 17.065 15.94ZM21.155 17.04C21.7073 17.04 22.155 16.5923 22.155 16.04C22.155 15.4877 21.7073 15.04 21.155 15.04C20.6027 15.04 20.155 15.4877 20.155 16.04C20.155 16.5923 20.6027 17.04 21.155 17.04ZM25.235 18.13C25.7873 18.13 26.235 17.6823 26.235 17.13C26.235 16.5777 25.7873 16.13 25.235 16.13C24.6827 16.13 24.235 16.5777 24.235 17.13C24.235 17.6823 24.6827 18.13 25.235 18.13ZM28.315 18.22C28.315 18.7723 28.7627 19.22 29.315 19.22C29.8673 19.22 30.315 18.7723 30.315 18.22C30.315 17.6677 29.8673 17.22 29.315 17.22C28.7627 17.22 28.315 17.6677 28.315 18.22Z" fill="white"/>
</g>
<defs>
<clipPath id="clip0_856_2652">
<rect width="32" height="32" fill="white" transform="translate(4.375 1.25)"/>
</clipPath>
</defs>
</svg>
