<svg width="32" height="32" viewBox="0 0 32 32" fill="none" xmlns="http://www.w3.org/2000/svg">
<path fill-rule="evenodd" clip-rule="evenodd" d="M28 14.1205V18C28 23.5228 23.5228 28 18 28H14C8.47715 28 4 23.5228 4 18V14.2172V7V4.1172C4 2.8172 5.6 2.2172 6.5 3.1172L10.4605 7H21.5608L25.5155 3.02052C26.4099 2.12052 28 2.72053 28 4.02052V7V14.1205Z" fill="#333333"/>
<path d="M6.5 3.1172L5.79286 3.82435L5.79993 3.83128L6.5 3.1172ZM10.4605 7L9.76038 7.71407L10.052 8H10.4605V7ZM21.5608 7V8H21.9768L22.2701 7.7049L21.5608 7ZM25.5155 3.02052L26.2248 3.72543V3.72543L25.5155 3.02052ZM27 14.1205V18H29V14.1205H27ZM27 18C27 22.9706 22.9706 27 18 27V29C24.0751 29 29 24.0751 29 18H27ZM18 27H14V29H18V27ZM14 27C9.02944 27 5 22.9706 5 18H3C3 24.0751 7.92487 29 14 29V27ZM5 18V14.2172H3V18H5ZM5 14.2172V7H3V14.2172H5ZM5 7V4.1172H3V7H5ZM5 4.1172C5 3.92759 5.10017 3.79241 5.27604 3.72378C5.46087 3.65165 5.65423 3.68565 5.79289 3.82431L7.20711 2.4101C5.72818 0.931176 3 1.85473 3 4.1172H5ZM5.79993 3.83128L9.76038 7.71407L11.1605 6.28593L7.20007 2.40313L5.79993 3.83128ZM10.4605 8H21.5608V6H10.4605V8ZM22.2701 7.7049L26.2248 3.72543L24.8062 2.31562L20.8515 6.2951L22.2701 7.7049ZM26.2248 3.72543C26.3609 3.58849 26.5484 3.55593 26.7277 3.62633C26.8983 3.69335 27 3.82717 27 4.02052H29C29 1.76902 26.2877 0.824848 24.8062 2.31562L26.2248 3.72543ZM27 4.02052V7H29V4.02052H27ZM27 7V14.1205H29V7H27Z" fill="white"/>
<path d="M17.0429 18H14.9571C14.5117 18 14.2886 18.5386 14.6036 18.8536L15.6464 19.8964C15.8417 20.0917 16.1583 20.0917 16.3536 19.8964L17.3964 18.8536C17.7114 18.5386 17.4883 18 17.0429 18Z" fill="white"/>
<path fill-rule="evenodd" clip-rule="evenodd" d="M11.75 14.3438C11.3358 14.3438 11 14.6795 11 15.0938V16.5938C11 17.008 11.3358 17.3438 11.75 17.3438C12.1642 17.3438 12.5 17.008 12.5 16.5938V15.0938C12.5 14.6795 12.1642 14.3438 11.75 14.3438ZM20.25 14.3438C19.8358 14.3438 19.5 14.6795 19.5 15.0938V16.5938C19.5 17.008 19.8358 17.3438 20.25 17.3438C20.6642 17.3438 21 17.008 21 16.5938V15.0938C21 14.6795 20.6642 14.3438 20.25 14.3438Z" fill="white"/>
<path d="M11.5 15.0938C11.5 14.9557 11.6119 14.8438 11.75 14.8438V13.8438C11.0596 13.8438 10.5 14.4034 10.5 15.0938H11.5ZM11.5 16.5938V15.0938H10.5V16.5938H11.5ZM11.75 16.8438C11.6119 16.8438 11.5 16.7318 11.5 16.5938H10.5C10.5 17.2841 11.0596 17.8438 11.75 17.8438V16.8438ZM12 16.5938C12 16.7318 11.8881 16.8438 11.75 16.8438V17.8438C12.4404 17.8438 13 17.2841 13 16.5938H12ZM12 15.0938V16.5938H13V15.0938H12ZM11.75 14.8438C11.8881 14.8438 12 14.9557 12 15.0938H13C13 14.4034 12.4404 13.8438 11.75 13.8438V14.8438ZM20 15.0938C20 14.9557 20.1119 14.8438 20.25 14.8438V13.8438C19.5596 13.8438 19 14.4034 19 15.0938H20ZM20 16.5938V15.0938H19V16.5938H20ZM20.25 16.8438C20.1119 16.8438 20 16.7318 20 16.5938H19C19 17.2841 19.5596 17.8438 20.25 17.8438V16.8438ZM20.5 16.5938C20.5 16.7318 20.3881 16.8438 20.25 16.8438V17.8438C20.9404 17.8438 21.5 17.2841 21.5 16.5938H20.5ZM20.5 15.0938V16.5938H21.5V15.0938H20.5ZM20.25 14.8438C20.3881 14.8438 20.5 14.9557 20.5 15.0938H21.5C21.5 14.4034 20.9404 13.8438 20.25 13.8438V14.8438Z" fill="white"/>
<path d="M16.0156 20.9062C14.5313 22.2344 12.836 22.0234 11.6875 20.9062C11.6537 22.362 12.4719 25.2734 16.0156 25.2734C19.5594 25.2734 20.4297 22.362 20.4219 20.9062C19.2891 22.0469 17.3594 22.1875 16.0156 20.9062Z" fill="white"/>
<path d="M26 10.0818V7.41824C26 6.7355 25.162 6.40785 24.6989 6.90953L23.6261 8.07172C23.2725 8.45478 23.2725 9.04522 23.6261 9.42828L24.6989 10.5905C25.162 11.0921 26 10.7645 26 10.0818Z" fill="white"/>
<path d="M6 10.0818V7.41824C6 6.7355 6.83802 6.40785 7.3011 6.90953L8.3739 8.07172C8.72749 8.45478 8.72749 9.04522 8.3739 9.42828L7.3011 10.5905C6.83802 11.0921 6 10.7645 6 10.0818Z" fill="white"/>
</svg>
