<svg width="32" height="32" viewBox="0 0 32 32" fill="none" xmlns="http://www.w3.org/2000/svg">
<g clip-path="url(#clip0_343_1119)">
<path d="M17.61 16H14.45C14.22 16 14.03 15.81 14.03 15.58V13C14.03 11.9 14.93 11 16.03 11C17.13 11 18.03 11.9 18.03 13V15.58C18.03 15.81 17.84 16 17.61 16Z" fill="white"/>
<path fill-rule="evenodd" clip-rule="evenodd" d="M18.03 22C18.03 20.9 17.13 20 16.03 20C14.93 20 14.03 20.9 14.03 22V28H18.03V22ZM12.03 24.57C12.03 23.7 11.33 23 10.46 23C9.59001 23 8.89001 23.7 8.89001 24.57V28H12.02V24.57H12.03ZM21.59 23C22.46 23 23.17 23.71 23.17 24.58V28H20.01V24.58C20.01 23.71 20.72 23 21.59 23Z" fill="white"/>
<mask id="path-3-outside-1_343_1119" maskUnits="userSpaceOnUse" x="0.77002" y="0" width="31" height="32" fill="black">
<rect fill="white" x="0.77002" width="31" height="32"/>
<path fill-rule="evenodd" clip-rule="evenodd" d="M16 2C15.6784 2 14 4.7202 14 5C14 5.25483 14.4298 5.89837 14.9096 6.44011L9.23003 10.4901C9.01003 10.6501 8.88004 10.9001 8.88004 11.1701C8.89792 11.7783 9.50788 12.1545 10.03 11.948V17.687L3.16002 22.03C2.92002 22.18 2.78001 22.43 2.78001 22.71L2.77002 22.82C2.77002 23.45 3.47002 23.84 4.00002 23.5L4.03003 23.4808V30H28.03V23.2853L28.15 23.36C28.69 23.7 29.38 23.31 29.38 22.68C29.38 22.4 29.23 22.15 29 22L22.03 17.6423V11.948C22.552 12.1545 23.16 11.7783 23.16 11.1701C23.16 10.9001 23.03 10.6501 22.81 10.4901L17.1231 6.43486C17.5884 5.89582 18 5.25747 18 5C18 4.67968 16.2747 2 16 2Z"/>
</mask>
<path fill-rule="evenodd" clip-rule="evenodd" d="M16 2C15.6784 2 14 4.7202 14 5C14 5.25483 14.4298 5.89837 14.9096 6.44011L9.23003 10.4901C9.01003 10.6501 8.88004 10.9001 8.88004 11.1701C8.89792 11.7783 9.50788 12.1545 10.03 11.948V17.687L3.16002 22.03C2.92002 22.18 2.78001 22.43 2.78001 22.71L2.77002 22.82C2.77002 23.45 3.47002 23.84 4.00002 23.5L4.03003 23.4808V30H28.03V23.2853L28.15 23.36C28.69 23.7 29.38 23.31 29.38 22.68C29.38 22.4 29.23 22.15 29 22L22.03 17.6423V11.948C22.552 12.1545 23.16 11.7783 23.16 11.1701C23.16 10.9001 23.03 10.6501 22.81 10.4901L17.1231 6.43486C17.5884 5.89582 18 5.25747 18 5C18 4.67968 16.2747 2 16 2Z" fill="#333333"/>
<path d="M14.9096 6.44011L16.0708 8.06851C16.5325 7.73929 16.8327 7.22956 16.8968 6.66615C16.9609 6.10273 16.7828 5.53859 16.4068 5.11409L14.9096 6.44011ZM9.23003 10.4901L8.06886 8.86166C8.06378 8.86528 8.05872 8.86892 8.05368 8.87259L9.23003 10.4901ZM8.88004 11.1701H6.88004C6.88004 11.1897 6.88032 11.2093 6.8809 11.2289L8.88004 11.1701ZM10.03 11.948H12.03C12.03 11.2858 11.7022 10.6664 11.1545 10.2941C10.6068 9.92173 9.91035 9.84464 9.2945 10.0882L10.03 11.948ZM10.03 17.687L11.0987 19.3775C11.6785 19.011 12.03 18.3729 12.03 17.687H10.03ZM3.16002 22.03L4.22003 23.726L4.22872 23.7205L3.16002 22.03ZM2.78001 22.71L4.77181 22.891C4.77728 22.8308 4.78001 22.7704 4.78001 22.71H2.78001ZM2.77002 22.82L0.778225 22.639C0.772757 22.6992 0.77002 22.7596 0.77002 22.82H2.77002ZM4.00002 23.5L2.92115 21.8159L2.92011 21.8166L4.00002 23.5ZM4.03003 23.4808H6.03003C6.03003 22.7497 5.63116 22.0769 4.98979 21.7261C4.34841 21.3753 3.56673 21.4024 2.95117 21.7967L4.03003 23.4808ZM4.03003 30H2.03003C2.03003 31.1046 2.92546 32 4.03003 32V30ZM28.03 30V32C29.1346 32 30.03 31.1046 30.03 30H28.03ZM28.03 23.2853L29.0868 21.5873C28.4701 21.2035 27.6938 21.1842 27.0588 21.5369C26.4239 21.8897 26.03 22.5589 26.03 23.2853H28.03ZM28.15 23.36L29.2157 21.6675L29.2068 21.662L28.15 23.36ZM29 22L30.0926 20.3248C30.0819 20.3178 30.0711 20.3109 30.0603 20.3042L29 22ZM22.03 17.6423H20.03C20.03 18.3317 20.3852 18.9726 20.9698 19.3381L22.03 17.6423ZM22.03 11.948L22.7657 10.0883C22.1498 9.84465 21.4533 9.92171 20.9056 10.2941C20.3579 10.6664 20.03 11.2858 20.03 11.948H22.03ZM22.81 10.4901L23.9864 8.87259C23.9813 8.86892 23.9763 8.86528 23.9712 8.86166L22.81 10.4901ZM17.1231 6.43486L15.6091 5.12797C15.2415 5.55386 15.0702 6.11491 15.1374 6.67351C15.2045 7.23212 15.5038 7.73661 15.9619 8.06326L17.1231 6.43486ZM16 5C16 5.21301 15.9641 5.37281 15.9502 5.43087C15.9326 5.50469 15.9147 5.55801 15.9063 5.58178C15.8899 5.62868 15.88 5.64781 15.8898 5.62639C15.9075 5.58783 15.9485 5.50614 16.0185 5.37919C16.1551 5.13162 16.3509 4.80443 16.5616 4.47681C16.7753 4.14441 16.9783 3.85216 17.1281 3.66042C17.208 3.55806 17.2365 3.53124 17.2195 3.54786C17.214 3.55323 17.149 3.61795 17.0346 3.69427C16.9754 3.73375 16.8693 3.79919 16.7229 3.85905C16.5837 3.91596 16.3305 4 16 4V0C15.364 0 14.922 0.295222 14.8145 0.366964C14.6402 0.483265 14.5061 0.606699 14.4239 0.687003C14.2535 0.853471 14.0982 1.04136 13.9755 1.19839C13.7201 1.52543 13.4432 1.93071 13.1972 2.31333C12.948 2.70075 12.7042 3.10607 12.516 3.44723C12.4237 3.61464 12.331 3.79138 12.2557 3.95513C12.219 4.03487 12.1727 4.14113 12.1315 4.25862C12.1146 4.30688 12 4.61406 12 5H16ZM16.4068 5.11409C16.2233 4.90687 16.0607 4.69184 15.9573 4.531C15.9043 4.44859 15.8888 4.41432 15.8939 4.42542C15.8968 4.43178 15.9164 4.47477 15.9378 4.54728C15.9489 4.58506 15.9634 4.64056 15.9756 4.71077C15.9875 4.7797 16 4.87864 16 5H12C12 5.5151 12.1843 5.93148 12.2554 6.08726C12.3561 6.30763 12.478 6.51587 12.5925 6.69392C12.8239 7.054 13.1161 7.43161 13.4124 7.76613L16.4068 5.11409ZM10.3912 12.1185L16.0708 8.06851L13.7484 4.81171L8.06886 8.86166L10.3912 12.1185ZM10.88 11.1701C10.88 11.5562 10.6906 11.9008 10.4064 12.1075L8.05368 8.87259C7.32946 9.3993 6.88004 10.244 6.88004 11.1701H10.88ZM9.2945 10.0882C10.0534 9.78808 10.856 10.3245 10.8792 11.1113L6.8809 11.2289C6.93982 13.2321 8.9624 14.521 10.7656 13.8079L9.2945 10.0882ZM12.03 17.687V11.948H8.03003V17.687H12.03ZM4.22872 23.7205L11.0987 19.3775L8.96133 15.9965L2.09132 20.3395L4.22872 23.7205ZM4.78001 22.71C4.78001 23.131 4.55507 23.5166 4.22001 23.726L2.10002 20.334C1.28497 20.8434 0.780014 21.7291 0.780014 22.71H4.78001ZM4.76181 23.001L4.77181 22.891L0.788219 22.529L0.778225 22.639L4.76181 23.001ZM2.92011 21.8166C3.74932 21.2847 4.77002 21.902 4.77002 22.82H0.77002C0.77002 24.998 3.19071 26.3953 5.07993 25.1834L2.92011 21.8166ZM2.95117 21.7967L2.92115 21.8159L5.07888 25.1841L5.10889 25.1648L2.95117 21.7967ZM6.03003 30V23.4808H2.03003V30H6.03003ZM28.03 28H4.03003V32H28.03V28ZM26.03 23.2853V30H30.03V23.2853H26.03ZM29.2068 21.662L29.0868 21.5873L26.9733 24.9833L27.0933 25.058L29.2068 21.662ZM27.38 22.68C27.38 21.7582 28.4052 21.1573 29.2157 21.6675L27.0844 25.0525C28.9749 26.2427 31.38 24.8618 31.38 22.68H27.38ZM27.9075 23.6752C27.6272 23.4924 27.38 23.1399 27.38 22.68H31.38C31.38 21.6601 30.8329 20.8076 30.0926 20.3248L27.9075 23.6752ZM20.9698 19.3381L27.9398 23.6958L30.0603 20.3042L23.0903 15.9464L20.9698 19.3381ZM20.03 11.948V17.6423H24.03V11.948H20.03ZM21.16 11.1701C21.16 10.3154 22.023 9.79447 22.7657 10.0883L21.2944 13.8078C23.081 14.5146 25.16 13.2412 25.16 11.1701H21.16ZM21.6337 12.1075C21.3495 11.9009 21.16 11.5562 21.16 11.1701H25.16C25.16 10.2439 24.7105 9.39925 23.9864 8.87259L21.6337 12.1075ZM15.9619 8.06326L21.6489 12.1185L23.9712 8.86166L18.2843 4.80646L15.9619 8.06326ZM16 5C16 4.88583 16.0111 4.79252 16.022 4.72688C16.033 4.66011 16.0462 4.60717 16.0564 4.57082C16.0761 4.50105 16.0943 4.45959 16.0971 4.45318C16.1019 4.44213 16.0874 4.47559 16.0374 4.55613C15.9395 4.71369 15.7847 4.92454 15.6091 5.12797L18.637 7.74175C18.9268 7.40614 19.2105 7.0283 19.4347 6.66756C19.5457 6.48894 19.6632 6.28085 19.7598 6.06085C19.8304 5.89986 20 5.49615 20 5H16ZM16 4C15.6231 4 15.3426 3.89139 15.2111 3.83241C15.0655 3.76709 14.9621 3.69806 14.9091 3.66041C14.8051 3.58648 14.747 3.52636 14.7465 3.52583C14.7378 3.5171 14.7713 3.5514 14.8529 3.65576C15.0064 3.85196 15.2142 4.14679 15.4306 4.47678C15.6452 4.80388 15.8437 5.12819 15.9814 5.3739C16.0522 5.50008 16.0917 5.57877 16.1077 5.61357C16.1165 5.63269 16.1052 5.6105 16.0878 5.55951C16.0788 5.53327 16.0612 5.47899 16.0444 5.40459C16.03 5.34124 16 5.19428 16 5H20C20 4.63079 19.8975 4.33826 19.8734 4.26753C19.8305 4.1421 19.7819 4.0295 19.7429 3.94468C19.6635 3.77163 19.5661 3.58841 19.4708 3.41832C19.2764 3.07151 19.0265 2.66584 18.7754 2.28298C18.5262 1.90301 18.2512 1.5079 18.0038 1.19165C17.8851 1.03978 17.7388 0.862236 17.5832 0.705705C17.5092 0.631275 17.3858 0.513273 17.2263 0.399933C17.1626 0.354653 16.6918 0 16 0V4Z" fill="white" mask="url(#path-3-outside-1_343_1119)"/>
<path d="M18.03 24C18.03 22.9 17.13 22 16.03 22C14.93 22 14.03 22.9 14.03 24V30H18.03V24Z" fill="white"/>
<path d="M17.61 17H14.45C14.22 17 14.03 16.81 14.03 16.58V14C14.03 12.9 14.93 12 16.03 12C17.13 12 18.03 12.9 18.03 14V16.58C18.03 16.81 17.84 17 17.61 17Z" fill="white"/>
</g>
<defs>
<clipPath id="clip0_343_1119">
<rect width="32" height="32" fill="white"/>
</clipPath>
</defs>
</svg>
