<svg width="32" height="32" viewBox="0 0 32 32" fill="none" xmlns="http://www.w3.org/2000/svg">
<path d="M15.5 28C21.8513 28 27 22.8513 27 16.5C27 10.1487 21.8513 5 15.5 5C9.14873 5 4 10.1487 4 16.5C4 22.8513 9.14873 28 15.5 28Z" fill="#333333"/>
<path d="M17.7726 14.6467L22.2233 22.4666C22.4999 22.9591 21.9586 23.4996 21.4654 23.2234L13.6467 18.7668L17.7726 14.6467Z" fill="#999999"/>
<path d="M13.2457 18.3545L8.7776 10.5334C8.50209 10.0416 9.04114 9.50181 9.53227 9.77771L17.3545 14.24L13.2457 18.3545Z" fill="#999999"/>
<path d="M15.5006 19.5905C17.2071 19.5905 18.5905 18.2071 18.5905 16.5006C18.5905 14.7941 17.2071 13.4107 15.5006 13.4107C13.7941 13.4107 12.4107 14.7941 12.4107 16.5006C12.4107 18.2071 13.7941 19.5905 15.5006 19.5905Z" fill="#999999"/>
<path d="M13.2286 14.6467L8.77792 22.4666C8.50126 22.9591 9.04256 23.4996 9.53574 23.2234L17.3545 18.7668L13.2286 14.6467Z" fill="#999999"/>
<path d="M17.7554 18.3545L22.2236 10.5334C22.4991 10.0416 21.9601 9.50181 21.4689 9.77771L13.6467 14.24L17.7554 18.3545Z" fill="#999999"/>
<path d="M15.5006 19.5905C13.7941 19.5905 12.4107 18.2071 12.4107 16.5006C12.4107 14.7941 13.7941 13.4107 15.5006 13.4107C17.2071 13.4107 18.5905 14.7941 18.5905 16.5006C18.5905 18.2071 17.2071 19.5905 15.5006 19.5905Z" fill="#999999"/>
<path d="M17 16.5L15.7753 6.30583C15.7278 5.89806 15.2722 5.89806 15.2247 6.30583L14 16.5L15.2247 26.6942C15.2722 27.1019 15.7278 27.1019 15.7753 26.6942L17 16.5Z" fill="white"/>
<path d="M15.5 18L25.6942 16.7753C26.1019 16.7278 26.1019 16.2722 25.6942 16.2247L15.5 15L5.30583 16.2247C4.89806 16.2722 4.89806 16.7278 5.30583 16.7753L15.5 18Z" fill="white"/>
<circle cx="15.5" cy="16.5" r="12.5" stroke="white" stroke-width="2"/>
</svg>
