<svg width="32" height="32" viewBox="0 0 32 32" fill="none" xmlns="http://www.w3.org/2000/svg">
<path d="M15.5 28C21.8513 28 27 22.8513 27 16.5C27 10.1487 21.8513 5 15.5 5C9.14873 5 4 10.1487 4 16.5C4 22.8513 9.14873 28 15.5 28Z" fill="#333333"/>
<path d="M17.3382 15L20.9393 21.3271C21.1631 21.7255 20.7252 22.1629 20.3261 21.9394L14 18.3336L17.3382 15Z" fill="#999999"/>
<path d="M13.6756 18L10.0605 11.672C9.83756 11.2741 10.2737 10.8373 10.6711 11.0606L17 14.671L13.6756 18Z" fill="#999999"/>
<path d="M15.5 19C16.8807 19 18 17.8807 18 16.5C18 15.1193 16.8807 14 15.5 14C14.1193 14 13 15.1193 13 16.5C13 17.8807 14.1193 19 15.5 19Z" fill="#999999"/>
<path d="M13.6618 15L10.0607 21.3271C9.83689 21.7255 10.2748 22.1629 10.6739 21.9394L17 18.3336L13.6618 15Z" fill="#999999"/>
<path d="M17.3244 18L20.9395 11.672C21.1624 11.2741 20.7263 10.8373 20.3289 11.0606L14 14.671L17.3244 18Z" fill="#999999"/>
<path d="M15.5 19C14.1193 19 13 17.8807 13 16.5C13 15.1193 14.1193 14 15.5 14C16.8807 14 18 15.1193 18 16.5C18 17.8807 16.8807 19 15.5 19Z" fill="#999999"/>
<path d="M17.078 16.4975L15.788 8.2475C15.738 7.9175 15.258 7.9175 15.208 8.2475L13.918 16.4975L15.208 24.7475C15.258 25.0775 15.738 25.0775 15.788 24.7475L17.078 16.4975Z" fill="white"/>
<path d="M15.4975 18.0775L23.7475 16.7875C24.0775 16.7375 24.0775 16.2575 23.7475 16.2075L15.4975 14.9175L7.2475 16.2075C6.9175 16.2575 6.9175 16.7375 7.2475 16.7875L15.4975 18.0775Z" fill="white"/>
<circle cx="15.5" cy="16.5" r="12.5" stroke="white" stroke-width="2"/>
</svg>
