<svg width="32" height="32" viewBox="0 0 32 32" fill="none" xmlns="http://www.w3.org/2000/svg">
<path d="M8.99135 2.57716L8.99136 2.57715L8.98711 2.57289C8.62251 2.2083 8.12935 2 7.61 2H4.5C3.66772 2 3 2.66772 3 3.5V6.61C3 7.12935 3.2083 7.62251 3.57289 7.98711L3.57288 7.98712L3.57761 7.99179L10.7113 15.0312L9.86414 15.8892C9.63826 15.5055 9.22055 15.24 8.73 15.24H6.61C5.97842 15.24 5.44888 15.6893 5.32219 16.2805L5.31978 16.2917L5.31762 16.3031C4.97455 18.1062 5.25616 19.9684 6.11073 21.5751L4.13803 23.5478C3.31312 23.253 2.35703 23.4414 1.69629 24.0995C0.766379 25.0155 0.77724 26.5014 1.6929 27.4171L3.5929 29.3171C4.5071 30.2313 5.98516 30.2217 6.90034 29.3238C7.57855 28.6584 7.75876 27.6905 7.45483 26.8594L9.42803 24.8862C11.0038 25.7224 12.8253 26.012 14.5966 25.6943L14.6064 25.6925L14.6161 25.6906C15.2122 25.5713 15.68 25.0481 15.68 24.4V22.29C15.68 21.7878 15.422 21.4 15.0633 21.1811L16.0028 20.2529L16.8881 21.1265C16.505 21.3525 16.24 21.7699 16.24 22.26V24.38C16.24 25.0116 16.6893 25.5411 17.2805 25.6678L17.2917 25.6702L17.3031 25.6724C19.1038 26.015 20.9633 25.7346 22.5685 24.8827L24.5452 26.8594C24.2412 27.6905 24.4214 28.6584 25.0997 29.3238C26.0148 30.2217 27.4929 30.2313 28.4071 29.3171L30.3071 27.4171C31.2227 26.5015 31.2336 25.0158 30.304 24.0998C29.6432 23.4414 28.687 23.2529 27.862 23.5478L25.8829 21.5687C26.7377 19.9626 27.0261 18.0995 26.6824 16.2931L26.6824 16.2931L26.6806 16.2839C26.5521 15.6418 25.991 15.23 25.39 15.23H23.27C22.779 15.23 22.361 15.4959 22.1353 15.8802L21.2921 15.0268L28.4163 7.98779C28.7978 7.62225 29 7.11989 29 6.61V3.5C29 2.66772 28.3323 2 27.5 2H24.39C23.8706 2 23.3775 2.2083 23.0129 2.57289L23.0128 2.57288L23.0084 2.57739L16.0022 9.67287L8.99135 2.57716Z" fill="#333333" stroke="white" stroke-width="2"/>
</svg>
