<svg width="32" height="32" viewBox="0 0 32 32" fill="none" xmlns="http://www.w3.org/2000/svg">
<g clip-path="url(#clip0_345_1514)">
<mask id="path-1-outside-1_345_1514" maskUnits="userSpaceOnUse" x="-1" y="-1" width="33" height="33" fill="black">
<rect fill="white" x="-1" y="-1" width="33" height="33"/>
<path d="M9.78982 18.149L9.74884 18.1099H13.1551L12.0513 19.3799C11.7813 19.6499 11.3513 19.6499 11.0813 19.3799L10.1768 18.5178L9.33259 19.3799C9.06259 19.6499 8.63259 19.6499 8.36259 19.3799L7.47034 18.4703L6.59822 19.3799C6.32822 19.6499 5.89822 19.6499 5.62822 19.3799L4.43634 18.188H7.19341L7.15509 18.149H9.78982Z"/>
<path d="M19.577 18.3601H18.9207L19.4576 11.4224H28.5926C29.1726 11.4224 29.4676 11.9674 29.4676 12.5474V13.8599C29.4676 16.1685 27.7003 18.0646 25.0672 18.3287H28.247C28.977 18.3287 29.577 18.7395 29.577 19.4695V23.1208C29.577 26.8758 27.4363 29.2808 25.1082 29.2808H19.577V18.3601Z"/>
<path d="M9.47172 2.03856C8.9577 1.88957 8.42022 2.18548 8.27123 2.69951C8.12223 3.21353 8.41815 3.75101 8.93217 3.9C9.60425 4.09481 9.91604 4.35403 10.0527 4.53649C10.179 4.70516 10.2057 4.87146 10.1754 5.03799C10.0971 5.46836 9.68693 5.7815 9.38945 5.7815C8.92889 5.7815 8.60556 5.63812 8.10315 5.41532C7.93315 5.33993 7.74265 5.25545 7.5194 5.16436C6.66143 4.81429 5.62236 4.56531 4.22316 5.11401C2.30767 5.86518 1.96585 7.75576 2.07082 9.21429C2.1776 10.698 2.74839 12.2027 3.22271 12.9654C3.50533 13.4199 4.10286 13.5592 4.55733 13.2766C5.01181 12.994 5.15113 12.3965 4.86851 11.942C4.55656 11.4403 4.08758 10.2382 4.00388 9.07516C3.91837 7.88698 4.23535 7.19099 4.93072 6.9183C5.71954 6.60896 6.21954 6.72717 6.78723 6.9588C6.88546 6.99888 6.99678 7.04938 7.11986 7.10522C7.67657 7.35781 8.47388 7.71956 9.38945 7.71956C10.7459 7.71956 11.8591 6.61083 12.0822 5.38494C12.2026 4.72335 12.0744 4.00294 11.6039 3.37473C11.1438 2.76032 10.4168 2.31251 9.47172 2.03856Z"/>
<path d="M22.7792 4.35991H27.464C27.6735 4.35991 27.8258 4.58991 27.7401 4.78991L27.5116 5.35991C27.0355 6.56991 25.9119 7.35991 24.6646 7.35991H22.7792C22.5126 7.35991 22.2651 7.52991 22.1508 7.77991L20.7606 11.0099C20.6654 11.2199 20.4654 11.3599 20.2464 11.3599H18.2945C17.8945 11.3599 17.6184 10.9199 17.7803 10.5299L19.3704 6.69991C19.9608 5.27991 21.3034 4.35991 22.7792 4.35991Z"/>
<path d="M13.4657 7.10861C13.6316 6.82448 13.7453 6.62972 13.7644 6.59436C13.866 6.40676 14.4049 5.43827 15.3269 5.43811C15.995 5.438 16.5514 5.43806 16.8613 5.4381C16.9537 5.43811 17.0242 5.43811 17.0691 5.43811C17.6316 5.43811 17.9441 6.00834 17.9441 6.34428C17.9441 6.73491 17.7254 7.35988 17.0691 7.35988H16.2957C16.2332 7.34426 16.0894 7.34738 16.0144 7.48488C15.9807 7.54673 15.8635 7.87433 15.7235 8.28056H26.6C26.85 8.28056 27.02 8.51056 26.97 8.75056L26.64 10.7106C26.34 11.9106 25.26 12.7506 24.03 12.7506H23.32L23.38 12.8206C23.92 13.4206 24.22 14.1906 24.22 15.0006L24.21 22.4206V22.7806L24.17 23.8206C24.16 23.9906 24.14 24.1706 24.12 24.3406L24.06 24.8606C24.0463 24.9842 24.0231 25.1032 24.0002 25.2206C23.9898 25.2742 23.9794 25.3274 23.97 25.3806L23.87 25.8906C23.85 26.0039 23.8211 26.1172 23.7922 26.2306C23.7778 26.2872 23.7633 26.3439 23.75 26.4006C23.49 27.3906 23.13 28.3606 22.68 29.2806H14.4362L15.3572 26.0722C15.9148 25.5544 15.9415 24.8864 15.97 24.1736C15.9777 23.9813 15.9855 23.7857 16.0039 23.589C16.0153 23.4678 15.9223 23.3599 15.8006 23.3599H7.06C5.42 23.3599 3.99 22.1306 4 20.8806C4 20.5506 4.26686 20.3937 4.59686 20.3937H10.1485C10.6402 20.3937 11.3212 20.0775 11.6712 19.7275L13 18.2806H3.74C2.78 18.2806 2 17.5006 2 16.5406V12.7406C2.02 11.3806 3.13 10.2806 4.5 10.2806C5.1 10.2806 5.83563 10.4206 6.26563 10.7806C6.29369 10.8039 6.32217 10.828 6.35106 10.8524C6.63099 11.0891 6.94992 11.3587 7.3125 11.3587L10.35 11.2506C10.85 11.2506 11.29 10.9506 11.48 10.5006L11.92 9.78056C11.9468 9.73437 11.9748 9.68906 12.0038 9.64467C12.4213 8.89785 13.0827 7.76486 13.4657 7.10861Z"/>
<path d="M14.537 29.2806C15.244 28.8398 16.475 26.9372 17.1707 25.2214C17.7332 23.8341 16.7697 23.4024 16.2176 23.36H14.1238L14.058 23.4016C14.1637 23.4183 14.2399 23.5176 14.2245 23.6274C14.0955 24.5483 13.9654 25.4147 13.2574 26.0722C12.3275 26.9489 10.5935 27.5148 9.36674 27.9151C9.27814 27.944 9.19219 27.9721 9.10938 27.9993C9.01484 28.0457 8.91775 28.0894 8.82201 28.1325C8.38098 28.331 7.96875 28.5166 7.96875 28.8899C7.96875 29.2405 8.19518 29.248 8.55687 29.2598C8.66393 29.2634 8.78285 29.2673 8.91126 29.2806H14.537Z"/>
</mask>
<path d="M9.78982 18.149L9.74884 18.1099H13.1551L12.0513 19.3799C11.7813 19.6499 11.3513 19.6499 11.0813 19.3799L10.1768 18.5178L9.33259 19.3799C9.06259 19.6499 8.63259 19.6499 8.36259 19.3799L7.47034 18.4703L6.59822 19.3799C6.32822 19.6499 5.89822 19.6499 5.62822 19.3799L4.43634 18.188H7.19341L7.15509 18.149H9.78982Z" fill="#333333"/>
<path d="M19.577 18.3601H18.9207L19.4576 11.4224H28.5926C29.1726 11.4224 29.4676 11.9674 29.4676 12.5474V13.8599C29.4676 16.1685 27.7003 18.0646 25.0672 18.3287H28.247C28.977 18.3287 29.577 18.7395 29.577 19.4695V23.1208C29.577 26.8758 27.4363 29.2808 25.1082 29.2808H19.577V18.3601Z" fill="#333333"/>
<path d="M9.47172 2.03856C8.9577 1.88957 8.42022 2.18548 8.27123 2.69951C8.12223 3.21353 8.41815 3.75101 8.93217 3.9C9.60425 4.09481 9.91604 4.35403 10.0527 4.53649C10.179 4.70516 10.2057 4.87146 10.1754 5.03799C10.0971 5.46836 9.68693 5.7815 9.38945 5.7815C8.92889 5.7815 8.60556 5.63812 8.10315 5.41532C7.93315 5.33993 7.74265 5.25545 7.5194 5.16436C6.66143 4.81429 5.62236 4.56531 4.22316 5.11401C2.30767 5.86518 1.96585 7.75576 2.07082 9.21429C2.1776 10.698 2.74839 12.2027 3.22271 12.9654C3.50533 13.4199 4.10286 13.5592 4.55733 13.2766C5.01181 12.994 5.15113 12.3965 4.86851 11.942C4.55656 11.4403 4.08758 10.2382 4.00388 9.07516C3.91837 7.88698 4.23535 7.19099 4.93072 6.9183C5.71954 6.60896 6.21954 6.72717 6.78723 6.9588C6.88546 6.99888 6.99678 7.04938 7.11986 7.10522C7.67657 7.35781 8.47388 7.71956 9.38945 7.71956C10.7459 7.71956 11.8591 6.61083 12.0822 5.38494C12.2026 4.72335 12.0744 4.00294 11.6039 3.37473C11.1438 2.76032 10.4168 2.31251 9.47172 2.03856Z" fill="#333333"/>
<path d="M22.7792 4.35991H27.464C27.6735 4.35991 27.8258 4.58991 27.7401 4.78991L27.5116 5.35991C27.0355 6.56991 25.9119 7.35991 24.6646 7.35991H22.7792C22.5126 7.35991 22.2651 7.52991 22.1508 7.77991L20.7606 11.0099C20.6654 11.2199 20.4654 11.3599 20.2464 11.3599H18.2945C17.8945 11.3599 17.6184 10.9199 17.7803 10.5299L19.3704 6.69991C19.9608 5.27991 21.3034 4.35991 22.7792 4.35991Z" fill="#333333"/>
<path d="M13.4657 7.10861C13.6316 6.82448 13.7453 6.62972 13.7644 6.59436C13.866 6.40676 14.4049 5.43827 15.3269 5.43811C15.995 5.438 16.5514 5.43806 16.8613 5.4381C16.9537 5.43811 17.0242 5.43811 17.0691 5.43811C17.6316 5.43811 17.9441 6.00834 17.9441 6.34428C17.9441 6.73491 17.7254 7.35988 17.0691 7.35988H16.2957C16.2332 7.34426 16.0894 7.34738 16.0144 7.48488C15.9807 7.54673 15.8635 7.87433 15.7235 8.28056H26.6C26.85 8.28056 27.02 8.51056 26.97 8.75056L26.64 10.7106C26.34 11.9106 25.26 12.7506 24.03 12.7506H23.32L23.38 12.8206C23.92 13.4206 24.22 14.1906 24.22 15.0006L24.21 22.4206V22.7806L24.17 23.8206C24.16 23.9906 24.14 24.1706 24.12 24.3406L24.06 24.8606C24.0463 24.9842 24.0231 25.1032 24.0002 25.2206C23.9898 25.2742 23.9794 25.3274 23.97 25.3806L23.87 25.8906C23.85 26.0039 23.8211 26.1172 23.7922 26.2306C23.7778 26.2872 23.7633 26.3439 23.75 26.4006C23.49 27.3906 23.13 28.3606 22.68 29.2806H14.4362L15.3572 26.0722C15.9148 25.5544 15.9415 24.8864 15.97 24.1736C15.9777 23.9813 15.9855 23.7857 16.0039 23.589C16.0153 23.4678 15.9223 23.3599 15.8006 23.3599H7.06C5.42 23.3599 3.99 22.1306 4 20.8806C4 20.5506 4.26686 20.3937 4.59686 20.3937H10.1485C10.6402 20.3937 11.3212 20.0775 11.6712 19.7275L13 18.2806H3.74C2.78 18.2806 2 17.5006 2 16.5406V12.7406C2.02 11.3806 3.13 10.2806 4.5 10.2806C5.1 10.2806 5.83563 10.4206 6.26563 10.7806C6.29369 10.8039 6.32217 10.828 6.35106 10.8524C6.63099 11.0891 6.94992 11.3587 7.3125 11.3587L10.35 11.2506C10.85 11.2506 11.29 10.9506 11.48 10.5006L11.92 9.78056C11.9468 9.73437 11.9748 9.68906 12.0038 9.64467C12.4213 8.89785 13.0827 7.76486 13.4657 7.10861Z" fill="#333333"/>
<path d="M14.537 29.2806C15.244 28.8398 16.475 26.9372 17.1707 25.2214C17.7332 23.8341 16.7697 23.4024 16.2176 23.36H14.1238L14.058 23.4016C14.1637 23.4183 14.2399 23.5176 14.2245 23.6274C14.0955 24.5483 13.9654 25.4147 13.2574 26.0722C12.3275 26.9489 10.5935 27.5148 9.36674 27.9151C9.27814 27.944 9.19219 27.9721 9.10938 27.9993C9.01484 28.0457 8.91775 28.0894 8.82201 28.1325C8.38098 28.331 7.96875 28.5166 7.96875 28.8899C7.96875 29.2405 8.19518 29.248 8.55687 29.2598C8.66393 29.2634 8.78285 29.2673 8.91126 29.2806H14.537Z" fill="#333333"/>
<path d="M9.78982 18.149L9.74884 18.1099H13.1551L12.0513 19.3799C11.7813 19.6499 11.3513 19.6499 11.0813 19.3799L10.1768 18.5178L9.33259 19.3799C9.06259 19.6499 8.63259 19.6499 8.36259 19.3799L7.47034 18.4703L6.59822 19.3799C6.32822 19.6499 5.89822 19.6499 5.62822 19.3799L4.43634 18.188H7.19341L7.15509 18.149H9.78982Z" stroke="white" stroke-width="4" mask="url(#path-1-outside-1_345_1514)"/>
<path d="M19.577 18.3601H18.9207L19.4576 11.4224H28.5926C29.1726 11.4224 29.4676 11.9674 29.4676 12.5474V13.8599C29.4676 16.1685 27.7003 18.0646 25.0672 18.3287H28.247C28.977 18.3287 29.577 18.7395 29.577 19.4695V23.1208C29.577 26.8758 27.4363 29.2808 25.1082 29.2808H19.577V18.3601Z" stroke="white" stroke-width="4" mask="url(#path-1-outside-1_345_1514)"/>
<path d="M9.47172 2.03856C8.9577 1.88957 8.42022 2.18548 8.27123 2.69951C8.12223 3.21353 8.41815 3.75101 8.93217 3.9C9.60425 4.09481 9.91604 4.35403 10.0527 4.53649C10.179 4.70516 10.2057 4.87146 10.1754 5.03799C10.0971 5.46836 9.68693 5.7815 9.38945 5.7815C8.92889 5.7815 8.60556 5.63812 8.10315 5.41532C7.93315 5.33993 7.74265 5.25545 7.5194 5.16436C6.66143 4.81429 5.62236 4.56531 4.22316 5.11401C2.30767 5.86518 1.96585 7.75576 2.07082 9.21429C2.1776 10.698 2.74839 12.2027 3.22271 12.9654C3.50533 13.4199 4.10286 13.5592 4.55733 13.2766C5.01181 12.994 5.15113 12.3965 4.86851 11.942C4.55656 11.4403 4.08758 10.2382 4.00388 9.07516C3.91837 7.88698 4.23535 7.19099 4.93072 6.9183C5.71954 6.60896 6.21954 6.72717 6.78723 6.9588C6.88546 6.99888 6.99678 7.04938 7.11986 7.10522C7.67657 7.35781 8.47388 7.71956 9.38945 7.71956C10.7459 7.71956 11.8591 6.61083 12.0822 5.38494C12.2026 4.72335 12.0744 4.00294 11.6039 3.37473C11.1438 2.76032 10.4168 2.31251 9.47172 2.03856Z" stroke="white" stroke-width="4" mask="url(#path-1-outside-1_345_1514)"/>
<path d="M22.7792 4.35991H27.464C27.6735 4.35991 27.8258 4.58991 27.7401 4.78991L27.5116 5.35991C27.0355 6.56991 25.9119 7.35991 24.6646 7.35991H22.7792C22.5126 7.35991 22.2651 7.52991 22.1508 7.77991L20.7606 11.0099C20.6654 11.2199 20.4654 11.3599 20.2464 11.3599H18.2945C17.8945 11.3599 17.6184 10.9199 17.7803 10.5299L19.3704 6.69991C19.9608 5.27991 21.3034 4.35991 22.7792 4.35991Z" stroke="white" stroke-width="4" mask="url(#path-1-outside-1_345_1514)"/>
<path d="M13.4657 7.10861C13.6316 6.82448 13.7453 6.62972 13.7644 6.59436C13.866 6.40676 14.4049 5.43827 15.3269 5.43811C15.995 5.438 16.5514 5.43806 16.8613 5.4381C16.9537 5.43811 17.0242 5.43811 17.0691 5.43811C17.6316 5.43811 17.9441 6.00834 17.9441 6.34428C17.9441 6.73491 17.7254 7.35988 17.0691 7.35988H16.2957C16.2332 7.34426 16.0894 7.34738 16.0144 7.48488C15.9807 7.54673 15.8635 7.87433 15.7235 8.28056H26.6C26.85 8.28056 27.02 8.51056 26.97 8.75056L26.64 10.7106C26.34 11.9106 25.26 12.7506 24.03 12.7506H23.32L23.38 12.8206C23.92 13.4206 24.22 14.1906 24.22 15.0006L24.21 22.4206V22.7806L24.17 23.8206C24.16 23.9906 24.14 24.1706 24.12 24.3406L24.06 24.8606C24.0463 24.9842 24.0231 25.1032 24.0002 25.2206C23.9898 25.2742 23.9794 25.3274 23.97 25.3806L23.87 25.8906C23.85 26.0039 23.8211 26.1172 23.7922 26.2306C23.7778 26.2872 23.7633 26.3439 23.75 26.4006C23.49 27.3906 23.13 28.3606 22.68 29.2806H14.4362L15.3572 26.0722C15.9148 25.5544 15.9415 24.8864 15.97 24.1736C15.9777 23.9813 15.9855 23.7857 16.0039 23.589C16.0153 23.4678 15.9223 23.3599 15.8006 23.3599H7.06C5.42 23.3599 3.99 22.1306 4 20.8806C4 20.5506 4.26686 20.3937 4.59686 20.3937H10.1485C10.6402 20.3937 11.3212 20.0775 11.6712 19.7275L13 18.2806H3.74C2.78 18.2806 2 17.5006 2 16.5406V12.7406C2.02 11.3806 3.13 10.2806 4.5 10.2806C5.1 10.2806 5.83563 10.4206 6.26563 10.7806C6.29369 10.8039 6.32217 10.828 6.35106 10.8524C6.63099 11.0891 6.94992 11.3587 7.3125 11.3587L10.35 11.2506C10.85 11.2506 11.29 10.9506 11.48 10.5006L11.92 9.78056C11.9468 9.73437 11.9748 9.68906 12.0038 9.64467C12.4213 8.89785 13.0827 7.76486 13.4657 7.10861Z" stroke="white" stroke-width="4" mask="url(#path-1-outside-1_345_1514)"/>
<path d="M14.537 29.2806C15.244 28.8398 16.475 26.9372 17.1707 25.2214C17.7332 23.8341 16.7697 23.4024 16.2176 23.36H14.1238L14.058 23.4016C14.1637 23.4183 14.2399 23.5176 14.2245 23.6274C14.0955 24.5483 13.9654 25.4147 13.2574 26.0722C12.3275 26.9489 10.5935 27.5148 9.36674 27.9151C9.27814 27.944 9.19219 27.9721 9.10938 27.9993C9.01484 28.0457 8.91775 28.0894 8.82201 28.1325C8.38098 28.331 7.96875 28.5166 7.96875 28.8899C7.96875 29.2405 8.19518 29.248 8.55687 29.2598C8.66393 29.2634 8.78285 29.2673 8.91126 29.2806H14.537Z" stroke="white" stroke-width="4" mask="url(#path-1-outside-1_345_1514)"/>
<path d="M13.9207 13.3599C13.9207 12.8076 14.3684 12.3599 14.9207 12.3599C15.473 12.3599 15.9207 12.8076 15.9207 13.3599V15.3599C15.9207 15.9122 15.473 16.3599 14.9207 16.3599C14.3684 16.3599 13.9207 15.9122 13.9207 15.3599V13.3599Z" fill="white"/>
</g>
<defs>
<clipPath id="clip0_345_1514">
<rect width="32" height="32" fill="white"/>
</clipPath>
</defs>
</svg>
