<svg width="32" height="32" viewBox="0 0 32 32" fill="none" xmlns="http://www.w3.org/2000/svg">
<path d="M4.44721 24.1056C4.786 23.428 5.47852 23 6.23607 23H25.7639C26.5215 23 27.214 23.428 27.5528 24.1056L30.2764 29.5528C30.6088 30.2177 30.1253 31 29.382 31H2.61803C1.87465 31 1.39116 30.2177 1.72361 29.5528L4.44721 24.1056Z" fill="white"/>
<path d="M17.4901 27.1431L17.4895 27.1442C16.8868 28.2814 15.2288 28.2901 14.6129 27.1414C14.6127 27.1411 14.6126 27.1408 14.6124 27.1405L8.21047 15.1127L8.20154 15.0959L8.19198 15.0794C4.81555 9.27872 9.02491 2.0025 15.8218 2.0025L16.0319 2.0025C22.9393 2.0025 27.2273 9.4084 23.7825 15.3083L23.7725 15.3255L23.7631 15.3431L17.4901 27.1431Z" fill="#333333" stroke="white" stroke-width="2"/>
<circle cx="16" cy="11" r="4" fill="white"/>
</svg>
