<svg width="32" height="32" viewBox="0 0 32 32" fill="none" xmlns="http://www.w3.org/2000/svg">
<g clip-path="url(#clip0_343_984)">
<path d="M25.6346 17.3861C25.3231 16.7341 24.5956 16.5213 24.0126 16.7477L24.0126 15.4177C24.0126 14.9518 23.8361 14.5339 23.5787 14.2171C23.5732 14.2103 23.5675 14.2035 23.5618 14.1969C22.339 12.7703 20.8361 11.5675 19.1064 10.6866L19.1064 10.6866L19.0998 10.6832C18.5153 10.391 17.4605 9.82923 16.8762 9.51691C16.3131 9.2132 15.6528 9.24816 15.1287 9.55389L15.1136 9.56288L14.0126 10.2314L14.0126 8.90766C14.0126 8.30684 13.6972 7.72669 13.1679 7.41068C10.242 5.65118 7.31109 3.62936 4.87502 1.44748C4.54349 1.14354 4.11508 0.990906 3.69597 0.987717C2.7637 0.970007 2.01257 1.72516 2.01257 2.63766L2.01257 6.80766C2.01257 12.3446 3.97668 17.6935 7.54933 21.9138L7.54966 21.9142C11.3498 26.3986 16.9389 28.9877 22.8226 28.9877L26 28.9877C26.5457 28.9877 26.9906 28.5502 26.9999 28.0046L27.0724 23.7246L27.0726 23.7077C27.0726 21.4763 26.5682 19.329 25.6346 17.3861Z" fill="white" stroke="#333333" stroke-width="2" stroke-linejoin="round"/>
<path d="M5.04416 6.50244L5.04415 6.50242L5.04081 6.50409C4.68009 6.68445 4.52962 7.11915 4.69498 7.48106C6.77758 12.1088 9.6649 16.2735 13.2756 19.8942L13.2758 19.8945C17.1185 23.7371 21.5954 26.7553 26.575 28.8678L26.5755 28.8681C27.7925 29.381 29.0198 29.8337 30.2676 30.2262L30.2676 30.2262L30.2708 30.2271C30.6938 30.354 31.169 30.1185 31.2487 29.6519C31.3222 29.2615 31.0809 28.9037 30.7253 28.7985C29.5236 28.421 28.3319 27.984 27.1602 27.4875L27.1599 27.4874C22.3597 25.46 18.0368 22.5482 14.3396 18.8412L14.3394 18.8409C10.8508 15.3523 8.07829 11.3376 6.07081 6.87559C5.89274 6.47572 5.4397 6.31199 5.04416 6.50244Z" fill="#999999" stroke="#999999" stroke-width="0.5"/>
</g>
<defs>
<clipPath id="clip0_343_984">
<rect width="32" height="32" fill="white"/>
</clipPath>
</defs>
</svg>
