<svg width="32" height="32" viewBox="0 0 32 32" fill="none" xmlns="http://www.w3.org/2000/svg">
<path d="M18.5356 27.4418C18.5186 27.2799 18.4808 27.0449 18.3941 26.7819C20.6525 26.2937 22.6165 25.0155 23.9828 23.2509C24.1302 23.9344 24.5257 24.5329 24.9528 25.0002C25.5094 25.6092 26.2304 26.1204 26.9436 26.469C27.6294 26.8043 28.4474 27.0573 29.182 26.978C29.5674 26.9364 30.0082 26.7929 30.3532 26.434C30.7081 26.0648 30.8438 25.5909 30.8438 25.1254V20.6252C30.8438 20.0698 30.6202 19.5345 30.3698 19.1041C30.1081 18.6543 29.7568 18.2163 29.373 17.833C29.2021 17.6623 29.0199 17.4975 28.83 17.3439C29.0199 17.1902 29.2021 17.0255 29.373 16.8547C29.7568 16.4714 30.1081 16.0335 30.3698 15.5836C30.6202 15.1533 30.8438 14.6179 30.8438 14.0625V9.56234C30.8438 9.09683 30.7081 8.62291 30.3532 8.25375C30.0082 7.8948 29.5674 7.75132 29.182 7.70974C28.4474 7.63047 27.6294 7.88342 26.9436 8.21871C26.2304 8.56737 25.5094 9.07851 24.9528 9.68756C24.5258 10.1548 24.1303 10.7531 23.9828 11.4365C23.1751 10.3934 22.1584 9.52032 20.9954 8.8799C21.4676 8.57137 21.8518 8.20487 22.1601 7.80388C22.9372 6.79318 23.1457 5.67452 23.2133 5.03143C23.2785 4.41073 23.1838 3.79895 22.7784 3.35171C22.4048 2.93962 21.9159 2.83145 21.5353 2.86579H16.4063C14.694 2.86579 13.4502 3.69192 12.6672 4.8533C12.1003 5.69404 11.7789 6.69717 11.642 7.68751C7.51321 7.69346 3.99391 10.29 2.61842 13.937C1.69321 14.1371 1 14.9602 1 15.9453C1 16.3087 1.09421 16.6496 1.25936 16.9453C1.09421 17.241 1 17.582 1 17.9453C1 18.8265 1.55476 19.5782 2.3341 19.8701C3.44492 23.9778 7.19667 27 11.6563 27H12.5924C12.6859 27.3231 12.8264 27.6422 13.0271 27.931C13.4573 28.5504 14.1495 28.9973 15.071 28.9973H17.2314C17.5362 29.0159 17.9144 28.9225 18.2049 28.602C18.5313 28.2419 18.5721 27.7889 18.5356 27.4418Z" fill="white" stroke="#333333" stroke-width="2" stroke-linejoin="round"/>
<path d="M11.7262 11.8039C11.9035 11.5922 12.2189 11.5644 12.4305 11.7418C15.4796 14.2969 15.6411 18.7905 12.4726 22.1405C12.2829 22.3411 11.9664 22.3499 11.7658 22.1601C11.5652 21.9704 11.5564 21.6539 11.7461 21.4533C14.5777 18.4595 14.3329 14.6406 11.7882 12.5082C11.5766 12.3309 11.5488 12.0155 11.7262 11.8039Z" fill="#999999" stroke="#999999" stroke-width="0.5"/>
<path d="M8.46875 16.3594C8.94337 16.3594 9.32812 15.9746 9.32812 15.5C9.32812 15.0254 8.94337 14.6406 8.46875 14.6406C7.99413 14.6406 7.60938 15.0254 7.60938 15.5C7.60938 15.9746 7.99413 16.3594 8.46875 16.3594Z" fill="#999999" stroke="#999999" stroke-width="0.5"/>
</svg>
