<svg width="32" height="32" viewBox="0 0 32 32" fill="none" xmlns="http://www.w3.org/2000/svg">
<path d="M3.75 3.625C3.19772 3.625 2.75 4.07272 2.75 4.625V27.375C2.75 27.9273 3.19772 28.375 3.75 28.375H7.82042C7.87163 28.4149 7.92328 28.4544 7.97538 28.4935C10.0646 30.0604 12.9051 31 16 31C19.0949 31 21.9354 30.0604 24.0246 28.4935C24.0767 28.4544 24.1284 28.4149 24.1796 28.375H28.25C28.8023 28.375 29.25 27.9273 29.25 27.375V4.625C29.25 4.07272 28.8023 3.625 28.25 3.625H24.1796C24.1284 3.5851 24.0767 3.54561 24.0246 3.50653C21.9354 1.9396 19.0949 1 16 1C12.9051 1 10.0646 1.9396 7.97538 3.50653C7.92328 3.54561 7.87163 3.5851 7.82042 3.625H3.75Z" fill="#333333" stroke="white" stroke-width="2" stroke-linejoin="round"/>
<path d="M22.3757 7.2857C22.686 6.97546 22.663 6.45135 22.3178 6.10618C21.9792 5.76752 21.4551 5.74456 21.1513 6.06131L17.3867 9.8259C16.6437 10.5689 16.3725 11.6153 16.5583 12.6293C16.7612 13.5124 15.5464 14.7272 15.5464 14.7272L7.30725 22.9664C6.88366 23.3899 6.91536 24.1137 7.37776 24.5761L7.58617 24.7845C8.04857 25.2469 8.77234 25.2786 9.19593 24.855L17.4291 16.6219C17.4291 16.6219 18.6207 15.4303 19.5416 15.6126C20.551 15.7932 21.591 15.5209 22.3304 14.7815L26.101 11.0109C26.4172 10.6947 26.3872 10.1516 26.03 9.81841C25.6919 9.49222 25.163 9.50019 24.8527 9.81043L22.6691 11.994C22.5081 12.1551 22.2335 12.1431 22.0577 11.9672C21.8818 11.7914 21.8698 11.5169 22.0309 11.3558L24.2383 9.14832C24.5545 8.83212 24.5245 8.28902 24.1674 7.95578C23.8293 7.6296 23.3003 7.63757 22.9901 7.9478L20.8065 10.1314C20.6454 10.2925 20.3709 10.2804 20.1951 10.1046C20.0192 9.92876 20.0072 9.65423 20.1683 9.49314L22.3757 7.2857Z" fill="white"/>
<path d="M12.1559 16.306L12.1567 16.3059C12.6605 16.2493 13.1503 16.4155 13.4943 16.7584L22.2534 25.4913C22.8802 26.1162 23.9144 26.169 24.5877 25.5398L24.5881 25.5394C25.2753 24.8956 25.3016 23.8099 24.6336 23.1439L15.8544 14.3912C15.5115 14.0492 15.3467 13.5645 15.4019 13.0589L15.4021 13.0566C15.5663 11.4851 14.882 9.70988 13.513 8.34498C12.4635 7.29862 11.1787 6.66119 9.934 6.493C8.6889 6.32476 7.45292 6.62607 6.57844 7.50319C5.70396 8.3803 5.40636 9.61718 5.57834 10.8618C5.75027 12.106 6.39156 13.3888 7.44108 14.4352C8.80977 15.7997 10.5876 16.4795 12.1559 16.306Z" fill="white" stroke="#333333"/>
</svg>
