<svg width="32" height="32" viewBox="0 0 32 32" fill="none" xmlns="http://www.w3.org/2000/svg">
<g clip-path="url(#clip0_343_977)">
<path d="M6.216 9.42715C9.91624 9.09994 13.6667 13.4294 16.121 15.8836C12.8487 19.1559 10.9105 21.6228 7.46199 22.4031C3.30624 23.3434 1.59704 18.2246 4.39106 15.9592C1.76064 14.1091 2.88202 9.72197 6.216 9.42715Z" fill="white" stroke="#333333" stroke-width="2"/>
<path d="M9.65382 5.98938C9.32661 9.68962 13.656 13.4401 16.1103 15.8944C19.3826 12.6221 21.8494 10.6839 22.6298 7.23537C23.5701 3.07962 18.4513 1.37041 16.1858 4.16444C14.3357 1.53401 9.94864 2.65539 9.65382 5.98938Z" fill="white" stroke="#333333" stroke-width="2"/>
<path d="M26.0578 22.3934C22.0992 22.9443 18.4746 18.3883 16.0203 15.934C19.2926 12.6617 21.3633 10.1978 24.8118 9.41744C28.9676 8.47709 30.6768 13.5959 27.8828 15.8614C30.5132 17.7115 29.3729 21.9321 26.0578 22.3934Z" fill="white" stroke="#333333" stroke-width="2"/>
<path d="M22.5802 25.871C23.131 21.9125 18.5102 18.3526 16.056 15.8984C12.7837 19.1706 10.3845 21.1765 9.60423 24.625C8.66388 28.7808 13.7827 30.49 16.0482 27.696C17.8982 30.3264 22.1188 29.1861 22.5802 25.871Z" fill="white" stroke="#333333" stroke-width="2"/>
</g>
<defs>
<clipPath id="clip0_343_977">
<rect width="32" height="32" fill="white"/>
</clipPath>
</defs>
</svg>
