<svg width="32" height="32" viewBox="0 0 32 32" fill="none" xmlns="http://www.w3.org/2000/svg">
<path d="M24.9598 9.87864L24.9617 9.88123L25.996 11.2519L25.9977 11.2542L26.355 11.7307C26.7705 12.2846 27.1585 12.8019 27.4699 13.2173L15.9747 25.3878L4.48366 13.2288L8.52279 7.8999H23.4767L24.9598 9.87864Z" fill="white" stroke="#333333" stroke-width="2"/>
<path d="M15.6444 5.75L10.3319 13.125L15.9569 27.375" stroke="#333333"/>
<path d="M16.2694 5.75L21.5819 13.125L15.9569 27.375" stroke="#333333"/>
<path d="M3 13.3125H28.75" stroke="#333333"/>
<path d="M15.942 29.0669C15.6002 29.0628 15.2703 28.941 15.008 28.7219C14.974 28.6929 14.885 28.6099 14.856 28.5779L1.42897 14.3659C1.18771 14.131 1.03776 13.8181 1.00589 13.4829C0.974018 13.1477 1.0623 12.812 1.25497 12.5359C1.27797 12.4999 1.35497 12.3899 1.38297 12.3579L6.57297 5.5059C6.71441 5.32101 6.89581 5.17048 7.1036 5.06554C7.31139 4.96061 7.54022 4.90398 7.77297 4.8999H24.21C24.4443 4.9005 24.6753 4.95491 24.8853 5.05894C25.0953 5.16297 25.2785 5.31384 25.421 5.4999C25.4585 5.53841 25.492 5.58063 25.521 5.6259C25.579 5.7059 26.398 6.7979 27.359 8.0799L28.392 9.4549C29.528 10.9709 30.573 12.3649 30.616 12.4269C30.7664 12.6244 30.8626 12.8578 30.895 13.1039V13.1119C30.9053 13.1861 30.9107 13.261 30.911 13.3359C30.9109 13.6941 30.7845 14.0407 30.554 14.3149L17.076 28.5859C16.8119 28.8664 16.4514 29.0365 16.067 29.0619C16.026 29.0649 15.984 29.0669 15.942 29.0669ZM3.17497 13.2999L15.975 26.8439L28.775 13.2919C28.408 12.8009 27.627 11.7599 26.796 10.6519L25.76 9.2789L23.977 6.8999H8.02597L3.17497 13.2999Z" fill="white"/>
</svg>
