<svg width="32" height="32" viewBox="0 0 32 32" fill="none" xmlns="http://www.w3.org/2000/svg">
<mask id="path-1-outside-1_317_1430" maskUnits="userSpaceOnUse" x="5" y="1" width="22" height="31" fill="black">
<rect fill="white" x="5" y="1" width="22" height="31"/>
<path fill-rule="evenodd" clip-rule="evenodd" d="M13.6493 9.99691C14.4777 9.26404 15 8.19302 15 7C15 4.79086 13.2091 3 11 3C8.79086 3 7 4.79086 7 7C7 8.21459 7.54135 9.30275 8.39593 10.0363C8.55769 10.2186 9.20521 10.993 9.29872 11.8106L9.25002 21.9916L9.25 22C9.25 23.8062 9.70658 25.2772 10.4814 26.4395C11.2489 27.5908 12.2598 28.3364 13.2174 28.8153C14.1681 29.2906 15.0977 29.5196 15.7748 29.6324C16.1175 29.6896 16.4069 29.7188 16.6175 29.7338C16.649 29.7361 16.6711 29.7382 16.6906 29.7401C16.7364 29.7445 16.7679 29.7476 16.8743 29.7476C16.9062 29.75 16.9336 29.75 17 29.75C18.8062 29.75 20.2772 29.2934 21.4395 28.5186C22.5908 27.7511 23.3364 26.7402 23.8152 25.7826C24.2906 24.8319 24.5196 23.9023 24.6324 23.2252C24.6731 22.9813 24.6996 22.2581 24.7169 21.7853C24.724 21.5937 24.7295 21.4432 24.7338 21.3825L24.75 21V16L19 21H21.2494L21.2495 21.0086C21.2495 21.0069 21.2492 21.0135 21.2486 21.0252C21.2475 21.0493 21.2455 21.0947 21.2427 21.1331C21.2403 21.1677 21.237 21.2938 21.2327 21.4604C21.2223 21.8608 21.2059 22.4946 21.1801 22.6498C21.1054 23.0977 20.9594 23.6681 20.6848 24.2174C20.4136 24.7598 20.0342 25.2489 19.498 25.6064C18.9741 25.9557 18.1978 26.2485 17.0092 26.25L16.9909 26.2495C16.9676 26.2487 16.9253 26.2469 16.8669 26.2427C16.7493 26.2343 16.57 26.2167 16.3502 26.1801C15.9023 26.1054 15.3319 25.9594 14.7826 25.6848C14.2402 25.4136 13.7511 25.0342 13.3936 24.498C13.0438 23.9734 12.7506 23.1955 12.75 22.004L12.75 22L12.7978 12.0039H12.81C12.81 11.0166 13.6225 10.0292 13.6493 9.99691ZM13 7C13 8.10457 12.1046 9 11 9C9.89543 9 9 8.10457 9 7C9 5.89543 9.89543 5 11 5C12.1046 5 13 5.89543 13 7Z"/>
</mask>
<path fill-rule="evenodd" clip-rule="evenodd" d="M13.6493 9.99691C14.4777 9.26404 15 8.19302 15 7C15 4.79086 13.2091 3 11 3C8.79086 3 7 4.79086 7 7C7 8.21459 7.54135 9.30275 8.39593 10.0363C8.55769 10.2186 9.20521 10.993 9.29872 11.8106L9.25002 21.9916L9.25 22C9.25 23.8062 9.70658 25.2772 10.4814 26.4395C11.2489 27.5908 12.2598 28.3364 13.2174 28.8153C14.1681 29.2906 15.0977 29.5196 15.7748 29.6324C16.1175 29.6896 16.4069 29.7188 16.6175 29.7338C16.649 29.7361 16.6711 29.7382 16.6906 29.7401C16.7364 29.7445 16.7679 29.7476 16.8743 29.7476C16.9062 29.75 16.9336 29.75 17 29.75C18.8062 29.75 20.2772 29.2934 21.4395 28.5186C22.5908 27.7511 23.3364 26.7402 23.8152 25.7826C24.2906 24.8319 24.5196 23.9023 24.6324 23.2252C24.6731 22.9813 24.6996 22.2581 24.7169 21.7853C24.724 21.5937 24.7295 21.4432 24.7338 21.3825L24.75 21V16L19 21H21.2494L21.2495 21.0086C21.2495 21.0069 21.2492 21.0135 21.2486 21.0252C21.2475 21.0493 21.2455 21.0947 21.2427 21.1331C21.2403 21.1677 21.237 21.2938 21.2327 21.4604C21.2223 21.8608 21.2059 22.4946 21.1801 22.6498C21.1054 23.0977 20.9594 23.6681 20.6848 24.2174C20.4136 24.7598 20.0342 25.2489 19.498 25.6064C18.9741 25.9557 18.1978 26.2485 17.0092 26.25L16.9909 26.2495C16.9676 26.2487 16.9253 26.2469 16.8669 26.2427C16.7493 26.2343 16.57 26.2167 16.3502 26.1801C15.9023 26.1054 15.3319 25.9594 14.7826 25.6848C14.2402 25.4136 13.7511 25.0342 13.3936 24.498C13.0438 23.9734 12.7506 23.1955 12.75 22.004L12.75 22L12.7978 12.0039H12.81C12.81 11.0166 13.6225 10.0292 13.6493 9.99691ZM13 7C13 8.10457 12.1046 9 11 9C9.89543 9 9 8.10457 9 7C9 5.89543 9.89543 5 11 5C12.1046 5 13 5.89543 13 7Z" fill="white"/>
<path d="M13.6493 9.99691L12.3241 8.49897C12.2472 8.56698 12.1757 8.6408 12.1102 8.71979L13.6493 9.99691ZM8.39593 10.0363L9.89172 8.70871C9.83172 8.64112 9.76722 8.57767 9.69864 8.5188L8.39593 10.0363ZM9.29872 11.8106L11.2987 11.8202C11.2991 11.741 11.2948 11.6619 11.2858 11.5833L9.29872 11.8106ZM9.25002 21.9916L7.25004 21.9821L7.25003 21.9868L9.25002 21.9916ZM9.25 22L7.25 21.9952V22H9.25ZM10.4814 26.4395L8.81731 27.5489L8.81731 27.5489L10.4814 26.4395ZM13.2174 28.8153L14.1118 27.0264H14.1118L13.2174 28.8153ZM15.7748 29.6324L15.446 31.6052L15.446 31.6052L15.7748 29.6324ZM16.6175 29.7338L16.475 31.7288L16.4751 31.7288L16.6175 29.7338ZM16.6906 29.7401L16.8828 27.7494L16.8827 27.7493L16.6906 29.7401ZM16.8743 29.7476L17.0265 27.7534C16.9759 27.7495 16.9251 27.7476 16.8743 27.7476V29.7476ZM21.4395 28.5186L20.3301 26.8545L20.3301 26.8545L21.4395 28.5186ZM23.8152 25.7826L22.0264 24.8882L22.0264 24.8882L23.8152 25.7826ZM24.6324 23.2252L22.6597 22.8964L22.6596 22.8964L24.6324 23.2252ZM24.7169 21.7853L22.7183 21.712V21.712L24.7169 21.7853ZM24.7338 21.3825L26.7288 21.525C26.7301 21.5056 26.7312 21.4863 26.732 21.467L24.7338 21.3825ZM24.75 21L26.7482 21.0845C26.7494 21.0563 26.75 21.0282 26.75 21H24.75ZM24.75 16H26.75C26.75 15.2164 26.2923 14.5049 25.5792 14.18C24.8661 13.8551 24.029 13.9766 23.4376 14.4908L24.75 16ZM19 21L17.6876 19.4908C17.058 20.0383 16.8345 20.9191 17.1267 21.7006C17.419 22.482 18.1657 23 19 23V21ZM21.2494 21L23.2494 20.9836C23.2403 19.8855 22.3476 19 21.2494 19V21ZM21.2495 21.0086L19.25 21.0533C19.2746 22.1521 20.1811 23.0252 21.2801 23.0084C22.379 22.9916 23.2585 22.0912 23.2494 20.9922L21.2495 21.0086ZM21.2486 21.0252L23.2466 21.116V21.116L21.2486 21.0252ZM21.2427 21.1331L19.2478 20.9906L19.2478 20.9906L21.2427 21.1331ZM21.2327 21.4604L23.232 21.5121L21.2327 21.4604ZM21.1801 22.6498L19.2073 22.321L19.2073 22.321L21.1801 22.6498ZM20.6848 24.2174L22.4736 25.1118L22.4736 25.1118L20.6848 24.2174ZM19.498 25.6064L18.3886 23.9423L18.3886 23.9423L19.498 25.6064ZM17.0092 26.25L16.9556 28.2493C16.9743 28.2498 16.993 28.25 17.0117 28.25L17.0092 26.25ZM16.9909 26.2495L16.9245 28.2484L16.9374 28.2488L16.9909 26.2495ZM16.8669 26.2427L16.7244 28.2376L16.7245 28.2377L16.8669 26.2427ZM16.3502 26.1801L16.0214 28.1529L16.0214 28.1529L16.3502 26.1801ZM14.7826 25.6848L15.6771 23.8959L15.677 23.8959L14.7826 25.6848ZM12.75 22.004L10.75 22.0044L10.75 22.0051L12.75 22.004ZM12.75 22L10.75 21.9904L10.75 22.0005L12.75 22ZM12.7978 12.0039V10.0039C11.697 10.0039 10.8031 10.8935 10.7979 11.9943L12.7978 12.0039ZM12.81 12.0039V14.0039C13.9146 14.0039 14.81 13.1085 14.81 12.0039H12.81ZM14.9745 11.4949C16.2138 10.3985 17 8.78979 17 7H13C13 7.59624 12.7416 8.12962 12.3241 8.49897L14.9745 11.4949ZM17 7C17 3.68629 14.3137 1 11 1V5C12.1046 5 13 5.89543 13 7H17ZM11 1C7.68629 1 5 3.68629 5 7H9C9 5.89543 9.89543 5 11 5V1ZM5 7C5 8.82236 5.8149 10.4565 7.09322 11.5539L9.69864 8.5188C9.2678 8.14895 9 7.60683 9 7H5ZM11.2858 11.5833C11.1921 10.764 10.8446 10.0782 10.5816 9.64584C10.3044 9.19015 10.0194 8.85257 9.89172 8.70871L6.90014 11.364C6.93421 11.4024 7.05382 11.5431 7.16421 11.7246C7.21796 11.813 7.25829 11.8928 7.28473 11.9587C7.31194 12.0265 7.31329 12.052 7.31168 12.0379L11.2858 11.5833ZM11.25 22.0012L11.2987 11.8202L7.29875 11.801L7.25004 21.9821L11.25 22.0012ZM11.25 22.0048L11.25 21.9964L7.25003 21.9868L7.25001 21.9952L11.25 22.0048ZM12.1455 25.3301C11.6135 24.5321 11.25 23.4566 11.25 22H7.25C7.25 24.1559 7.79966 26.0224 8.81731 27.5489L12.1455 25.3301ZM14.1118 27.0264C13.3911 26.666 12.6785 26.1296 12.1455 25.3301L8.81731 27.5489C9.81934 29.0519 11.1285 30.0069 12.3229 30.6041L14.1118 27.0264ZM16.1036 27.6597C15.5575 27.5686 14.8332 27.3871 14.1118 27.0264L12.3229 30.6041C13.5031 31.1942 14.6379 31.4705 15.446 31.6052L16.1036 27.6597ZM16.76 27.7389C16.6026 27.7277 16.3761 27.7051 16.1036 27.6597L15.446 31.6052C15.8589 31.6741 16.2113 31.7099 16.475 31.7288L16.76 27.7389ZM16.8827 27.7493C16.8598 27.7471 16.8174 27.743 16.76 27.7389L16.4751 31.7288C16.4788 31.729 16.481 31.7292 16.4828 31.7294C16.4855 31.7296 16.4883 31.7299 16.4985 31.7309L16.8827 27.7493ZM16.8743 27.7476C16.8568 27.7476 16.848 27.7474 16.8452 27.7474C16.8429 27.7473 16.8477 27.7474 16.8573 27.7479C16.8621 27.7481 16.8674 27.7484 16.873 27.7488C16.8785 27.7491 16.8834 27.7495 16.8872 27.7498C16.8908 27.7501 16.8928 27.7503 16.8922 27.7503C16.891 27.7501 16.8892 27.75 16.8828 27.7494L16.4984 31.7308C16.6063 31.7413 16.702 31.7476 16.8743 31.7476V27.7476ZM17 27.75C16.9825 27.75 16.9717 27.75 16.963 27.75C16.9544 27.7499 16.9534 27.7499 16.9561 27.75C16.9595 27.75 16.9691 27.7502 16.9827 27.7508C16.9971 27.7514 17.012 27.7523 17.0265 27.7534L16.7221 31.7418C16.8465 31.7513 16.9591 31.75 17 31.75V27.75ZM20.3301 26.8545C19.5321 27.3865 18.4566 27.75 17 27.75V31.75C19.1559 31.75 21.0224 31.2003 22.5489 30.1827L20.3301 26.8545ZM22.0264 24.8882C21.666 25.6089 21.1296 26.3215 20.3301 26.8545L22.5489 30.1827C24.0519 29.1807 25.0069 27.8715 25.6041 26.6771L22.0264 24.8882ZM22.6596 22.8964C22.5686 23.4425 22.3871 24.1668 22.0264 24.8882L25.6041 26.6771C26.1942 25.4969 26.4705 24.3621 26.6052 23.554L22.6596 22.8964ZM22.7183 21.712C22.7095 21.9511 22.6991 22.2353 22.6861 22.4886C22.6796 22.6152 22.6729 22.7242 22.6663 22.8095C22.6585 22.9109 22.6544 22.9277 22.6597 22.8964L26.6052 23.554C26.6733 23.1453 26.7019 22.2335 26.7156 21.8586L22.7183 21.712ZM22.7389 21.24C22.7314 21.3457 22.7243 21.5473 22.7183 21.712L26.7156 21.8586C26.7192 21.7615 26.7221 21.6803 26.7248 21.6158C26.7261 21.5837 26.7271 21.5589 26.728 21.5405C26.729 21.5194 26.7293 21.5168 26.7288 21.525L22.7389 21.24ZM22.7518 20.9155L22.7356 21.298L26.732 21.467L26.7482 21.0845L22.7518 20.9155ZM22.75 16V21H26.75V16H22.75ZM20.3124 22.5092L26.0624 17.5092L23.4376 14.4908L17.6876 19.4908L20.3124 22.5092ZM21.2494 19H19V23H21.2494V19ZM23.2494 20.9922L23.2494 20.9836L19.2495 21.0164L19.2496 21.025L23.2494 20.9922ZM23.2466 21.116C23.247 21.1075 23.2469 21.1092 23.2467 21.1125C23.2466 21.114 23.2465 21.1177 23.2462 21.1227C23.246 21.1255 23.2453 21.1391 23.2439 21.1568C23.2434 21.1639 23.2417 21.1863 23.2388 21.2149C23.2374 21.2282 23.2342 21.2584 23.2286 21.2966C23.2258 21.3158 23.2208 21.3485 23.2129 21.3888C23.2071 21.4191 23.1903 21.5039 23.1571 21.6093C23.1409 21.6604 23.1069 21.7622 23.0477 21.8838C23.01 21.9612 22.8601 22.2693 22.5307 22.5441C22.3456 22.6985 22.0378 22.8973 21.6095 22.9757C21.1516 23.0595 20.7141 22.9761 20.3575 22.7984C19.7612 22.5013 19.5155 22.0104 19.4681 21.9175C19.3263 21.6397 19.2863 21.3905 19.2836 21.3759C19.2698 21.3023 19.2632 21.2436 19.2604 21.2169C19.2544 21.1599 19.2523 21.1152 19.2516 21.1002C19.2507 21.0795 19.2502 21.0629 19.25 21.0533L23.249 20.9639C23.2488 20.9542 23.2483 20.9375 23.2474 20.9167C23.2467 20.9016 23.2446 20.8569 23.2386 20.7999C23.2358 20.7731 23.2292 20.7144 23.2154 20.6408C23.2127 20.6261 23.1727 20.377 23.0309 20.0992C22.9835 20.0063 22.7378 19.5154 22.1415 19.2183C21.7848 19.0405 21.3474 18.9572 20.8895 19.041C20.4611 19.1194 20.1534 19.3182 19.9683 19.4726C19.6389 19.7474 19.489 20.0554 19.4513 20.1328C19.3921 20.2544 19.358 20.3562 19.3419 20.4074C19.3087 20.5128 19.2919 20.5976 19.286 20.6279C19.2782 20.6682 19.2731 20.7009 19.2703 20.7201C19.2648 20.7584 19.2615 20.7887 19.2601 20.802C19.2571 20.8308 19.2555 20.8534 19.2549 20.8609C19.2536 20.8791 19.2527 20.8935 19.2525 20.8973C19.2522 20.9034 19.2519 20.9084 19.2518 20.9112C19.2513 20.9204 19.2508 20.9313 19.2507 20.9344L23.2466 21.116ZM23.2376 21.2757C23.2425 21.2071 23.2457 21.1359 23.2466 21.116L19.2507 20.9344C19.2501 20.9465 19.2496 20.958 19.249 20.97C19.2487 20.9758 19.2484 20.9807 19.2482 20.9848C19.2479 20.9889 19.2478 20.9908 19.2478 20.9906L23.2376 21.2757ZM23.232 21.5121C23.2342 21.4275 23.236 21.3583 23.2375 21.3059C23.2383 21.2796 23.2389 21.2615 23.2393 21.25C23.2395 21.2443 23.2396 21.2429 23.2395 21.2444C23.2395 21.2453 23.2394 21.2482 23.2391 21.2526C23.2389 21.2566 23.2384 21.2648 23.2376 21.2756L19.2478 20.9906C19.2411 21.0849 19.2366 21.2849 19.2334 21.4086L23.232 21.5121ZM23.1528 22.9786C23.1919 22.7444 23.2043 22.3926 23.2108 22.2227C23.2199 21.9807 23.2269 21.7099 23.232 21.5121L19.2334 21.4086C19.2281 21.6112 19.2217 21.8575 19.2136 22.0714C19.2096 22.1787 19.2054 22.2677 19.2015 22.333C19.1995 22.3658 19.198 22.3848 19.1973 22.3926C19.1958 22.4095 19.198 22.3769 19.2073 22.321L23.1528 22.9786ZM22.4736 25.1118C22.863 24.3331 23.0564 23.5574 23.1528 22.9786L19.2073 22.321C19.1544 22.638 19.0558 23.0032 18.8959 23.323L22.4736 25.1118ZM20.6074 27.2705C21.4945 26.6791 22.0834 25.8922 22.4736 25.1118L18.8959 23.323C18.7437 23.6273 18.5739 23.8188 18.3886 23.9423L20.6074 27.2705ZM17.0117 28.25C18.5504 28.2481 19.721 27.8615 20.6074 27.2705L18.3886 23.9423C18.2272 24.0499 17.8451 24.2489 17.0066 24.25L17.0117 28.25ZM16.9374 28.2488L16.9556 28.2493L17.0627 24.2507L17.0444 24.2502L16.9374 28.2488ZM16.7245 28.2377C16.8097 28.2437 16.8774 28.2468 16.9245 28.2484L17.0573 24.2506C17.0579 24.2506 17.041 24.2501 17.0093 24.2478L16.7245 28.2377ZM16.0214 28.1529C16.3114 28.2012 16.5537 28.2255 16.7244 28.2376L17.0094 24.2478C16.945 24.2432 16.8286 24.2322 16.679 24.2073L16.0214 28.1529ZM13.8882 27.4736C14.6669 27.863 15.4426 28.0564 16.0214 28.1529L16.679 24.2073C16.362 24.1544 15.9968 24.0558 15.6771 23.8959L13.8882 27.4736ZM11.7295 25.6074C12.3209 26.4945 13.1078 27.0834 13.8882 27.4736L15.677 23.8959C15.3727 23.7437 15.1812 23.5739 15.0577 23.3886L11.7295 25.6074ZM10.75 22.0051C10.7508 23.547 11.1376 24.7197 11.7295 25.6074L15.0577 23.3886C14.95 23.227 14.7505 22.844 14.75 22.0029L10.75 22.0051ZM10.75 22.0005L10.75 22.0044L14.75 22.0035L14.75 21.9995L10.75 22.0005ZM10.7979 11.9943L10.75 21.9904L14.75 22.0096L14.7978 12.0135L10.7979 11.9943ZM12.81 10.0039H12.7978V14.0039H12.81V10.0039ZM12.1102 8.71979C12.0528 8.78892 11.758 9.15118 11.4684 9.67623C11.1992 10.1641 10.81 11.0122 10.81 12.0039H14.81C14.81 12.0248 14.8071 11.9945 14.8365 11.9055C14.8649 11.8196 14.9106 11.7174 14.9708 11.6083C15.0941 11.3848 15.219 11.2372 15.1885 11.274L12.1102 8.71979ZM11 11C13.2091 11 15 9.20914 15 7H11V11ZM7 7C7 9.20914 8.79086 11 11 11V7H7ZM11 3C8.79086 3 7 4.79086 7 7H11V3ZM15 7C15 4.79086 13.2091 3 11 3V7H15Z" fill="#333333" mask="url(#path-1-outside-1_317_1430)"/>
</svg>
