<svg width="32" height="32" viewBox="0 0 32 32" fill="none" xmlns="http://www.w3.org/2000/svg">
<path d="M16.0051 9.38489C9.37388 9.38489 4 14.6849 4 21.2249C4 26.0549 7.97465 29.9749 12.872 29.9749H19.128C24.0253 29.9749 28 26.0549 28 21.2249C28.0101 14.6849 22.6362 9.38489 16.0051 9.38489Z" fill="#333333" stroke="white" stroke-width="2"/>
<path fill-rule="evenodd" clip-rule="evenodd" d="M18.963 3.925C18.5491 4.215 17.9838 4.145 17.6506 3.765L16.7723 2.725C16.3887 2.265 15.6719 2.265 15.2883 2.725L14.41 3.765C14.0869 4.145 13.5216 4.225 13.1076 3.935L13.037 3.885C12.2293 3.315 11.1794 4.175 11.5933 5.065L14.6898 8.38H17.3372L20.4067 5.095C20.8206 4.215 19.7707 3.355 18.963 3.925Z" fill="#333333"/>
<path d="M13.6146 3.0687L13.6136 3.06799C12.0116 1.93738 9.81862 3.62042 10.6866 5.4867L10.7538 5.63117L10.8625 5.74761L13.959 9.06261L14.2554 9.38H14.6898H17.3372H17.7714L18.0678 9.06274L21.1373 5.77773L21.2447 5.66288L21.3116 5.52063C22.1929 3.64683 19.981 1.99808 18.3979 3.09996L17.538 2.08174C16.7548 1.14609 15.3058 1.14609 14.5226 2.08173L13.6612 3.1017L13.6146 3.0687Z" stroke="white" stroke-width="2"/>
<path d="M17.5667 18.0293C17.7159 18.3832 17.9684 18.6638 18.3013 18.8224L19.6901 19.4814C20.1033 19.6888 20.1033 20.3112 19.6901 20.5186L18.3128 21.1775C17.9799 21.3362 17.7159 21.6168 17.5782 21.9707L16.4878 24.6797C16.2927 25.1068 15.7073 25.1068 15.5122 24.6797L14.4218 21.9707C14.2726 21.6168 14.0201 21.3362 13.6872 21.1775L12.3099 20.5186C11.8967 20.3112 11.8967 19.6888 12.3099 19.4814L13.6872 18.8224C14.0201 18.6638 14.2841 18.3832 14.4218 18.0293L15.5122 15.3203C15.7073 14.8932 16.2927 14.8932 16.4878 15.3203L17.5667 18.0293Z" fill="white"/>
<path d="M14.0293 18.4333C14.3832 18.2841 14.6638 18.0316 14.8224 17.6987L15.4814 16.3099C15.6888 15.8967 16.3112 15.8967 16.5186 16.3099L17.1775 17.6872C17.3362 18.0201 17.6168 18.2841 17.9707 18.4218L20.6797 19.5122C21.1068 19.7073 21.1068 20.2927 20.6797 20.4878L17.9707 21.5782C17.6168 21.7274 17.3362 21.9799 17.1775 22.3128L16.5186 23.6901C16.3112 24.1033 15.6888 24.1033 15.4814 23.6901L14.8224 22.3128C14.6638 21.9799 14.3832 21.7159 14.0293 21.5782L11.3203 20.4878C10.8932 20.2927 10.8932 19.7073 11.3203 19.5122L14.0293 18.4333Z" fill="white"/>
</svg>
