<svg width="32" height="32" viewBox="0 0 32 32" fill="none" xmlns="http://www.w3.org/2000/svg">
<path d="M28.4989 27H3.50107C2.67048 27 2 26.3321 2 25.5047V9.49528C2 8.66789 2.67048 8 3.50107 8H28.4989C29.3295 8 30 8.66789 30 9.49528V25.4948C30 26.3221 29.3295 27 28.4989 27Z" fill="white"/>
<path d="M16 24C16 24.4443 16.2932 24.8353 16.7197 24.9599C17.1462 25.0845 17.6037 24.9127 17.8428 24.5382C17.8427 24.5384 17.8431 24.5379 17.844 24.537C17.8705 24.5082 18.3394 24 19.5543 24H26C27.1046 24 28 23.1046 28 22V7C28 5.89543 27.1046 5 26 5H19.5C17.567 5 16 6.567 16 8.5C16 6.567 14.433 5 12.5 5H6C4.89543 5 4 5.89543 4 7V22C4 23.1046 4.89543 24 6 24H12.4457C13.6606 24 14.1295 24.5082 14.156 24.537C14.1569 24.5379 14.1573 24.5384 14.1572 24.5382C14.3963 24.9127 14.8538 25.0845 15.2803 24.9599C15.7068 24.8353 16 24.4443 16 24Z" fill="#333333" stroke="white" stroke-width="2" stroke-linejoin="round"/>
</svg>
