<svg width="32" height="32" viewBox="0 0 32 32" fill="none" xmlns="http://www.w3.org/2000/svg">
<mask id="path-1-outside-1_345_1323" maskUnits="userSpaceOnUse" x="0" y="2.28858" width="32" height="28" fill="black">
<rect fill="white" y="2.28858" width="32" height="28"/>
<path fill-rule="evenodd" clip-rule="evenodd" d="M15.3043 7.67969C15.3043 4.66519 13.1087 4.28832 11.884 4.28858C10.8261 4.28867 8.72463 4.68838 8.72463 7.67969C8.72463 10.671 10.6377 11.8536 11.884 11.8536C13.1304 11.8536 15.3043 10.6942 15.3043 7.67969ZM8.57971 11.4623C8.57971 8.4478 6.38406 8.07093 5.15942 8.07119C4.10145 8.07127 2 8.47099 2 11.4623C2 14.4536 3.91304 15.6362 5.15942 15.6362C6.4058 15.6362 8.57971 14.4768 8.57971 11.4623ZM20 4.28858C21.2247 4.28832 23.4203 4.66519 23.4203 7.67969C23.4203 10.6942 21.2464 11.8536 20 11.8536C18.7536 11.8536 16.8406 10.671 16.8406 7.67969C16.8406 4.68838 18.942 4.28867 20 4.28858ZM30 11.4623C30 8.4478 27.8044 8.07093 26.5797 8.07119C25.5217 8.07127 23.4203 8.47099 23.4203 11.4623C23.4203 14.4536 25.3333 15.6362 26.5797 15.6362C27.8261 15.6362 30 14.4768 30 11.4623ZM16 12.7379C21.7391 12.7379 25.2464 17.4335 25.2464 22.8538C25.2464 27.3176 20.087 27.4625 16 27.4625H15.9862C12.305 27.4625 6.81159 27.4625 6.81159 22.8538C6.81159 17.3176 10.2609 12.7379 16 12.7379Z"/>
</mask>
<path fill-rule="evenodd" clip-rule="evenodd" d="M15.3043 7.67969C15.3043 4.66519 13.1087 4.28832 11.884 4.28858C10.8261 4.28867 8.72463 4.68838 8.72463 7.67969C8.72463 10.671 10.6377 11.8536 11.884 11.8536C13.1304 11.8536 15.3043 10.6942 15.3043 7.67969ZM8.57971 11.4623C8.57971 8.4478 6.38406 8.07093 5.15942 8.07119C4.10145 8.07127 2 8.47099 2 11.4623C2 14.4536 3.91304 15.6362 5.15942 15.6362C6.4058 15.6362 8.57971 14.4768 8.57971 11.4623ZM20 4.28858C21.2247 4.28832 23.4203 4.66519 23.4203 7.67969C23.4203 10.6942 21.2464 11.8536 20 11.8536C18.7536 11.8536 16.8406 10.671 16.8406 7.67969C16.8406 4.68838 18.942 4.28867 20 4.28858ZM30 11.4623C30 8.4478 27.8044 8.07093 26.5797 8.07119C25.5217 8.07127 23.4203 8.47099 23.4203 11.4623C23.4203 14.4536 25.3333 15.6362 26.5797 15.6362C27.8261 15.6362 30 14.4768 30 11.4623ZM16 12.7379C21.7391 12.7379 25.2464 17.4335 25.2464 22.8538C25.2464 27.3176 20.087 27.4625 16 27.4625H15.9862C12.305 27.4625 6.81159 27.4625 6.81159 22.8538C6.81159 17.3176 10.2609 12.7379 16 12.7379Z" fill="#333333"/>
<path d="M11.884 4.28858L11.8842 6.28858H11.8845L11.884 4.28858ZM5.15942 8.07119L5.15959 10.0712H5.15984L5.15942 8.07119ZM20 4.28858L20.0002 6.28858H20.0004L20 4.28858ZM26.5797 8.07119L26.5799 10.0712H26.5801L26.5797 8.07119ZM15.9862 27.4625V25.4625H15.9862L15.9862 27.4625ZM11.8845 6.28858C12.3546 6.28848 12.7288 6.37331 12.9391 6.51442C13.0168 6.56657 13.0854 6.63398 13.1461 6.75792C13.2119 6.89221 13.3043 7.16861 13.3043 7.67969H17.3043C17.3043 5.6131 16.5068 4.09122 15.1677 3.19279C13.9741 2.3919 12.6382 2.28842 11.8836 2.28858L11.8845 6.28858ZM10.7246 7.67969C10.7246 7.16548 10.8145 6.87815 10.8823 6.73284C10.9454 6.59747 11.0138 6.53045 11.0768 6.48506C11.2464 6.36288 11.5463 6.28861 11.8842 6.28858L11.8839 2.28858C11.1639 2.28864 9.88404 2.41427 8.73838 3.2398C7.4724 4.15202 6.72463 5.65596 6.72463 7.67969H10.7246ZM11.884 9.8536C11.8847 9.8536 11.8642 9.85345 11.8248 9.84468C11.7862 9.83608 11.7356 9.82057 11.6768 9.79445C11.5594 9.74225 11.4219 9.65336 11.2891 9.5132C11.0474 9.25797 10.7246 8.72603 10.7246 7.67969H6.72463C6.72463 11.6715 9.43182 13.8536 11.884 13.8536V9.8536ZM13.3043 7.67969C13.3043 8.66239 12.9689 9.17551 12.6815 9.44952C12.3349 9.77997 11.9673 9.8536 11.884 9.8536V13.8536C14.1439 13.8536 17.3043 11.8877 17.3043 7.67969H13.3043ZM5.15984 10.0712C5.62994 10.0711 6.00417 10.1559 6.21449 10.297C6.29222 10.3492 6.36073 10.4166 6.42145 10.5405C6.48723 10.6748 6.57971 10.9512 6.57971 11.4623H10.5797C10.5797 9.39571 9.78218 7.87383 8.44312 6.9754C7.24945 6.17451 5.91354 6.07103 5.159 6.07119L5.15984 10.0712ZM4 11.4623C4 10.9481 4.0899 10.6608 4.15763 10.5154C4.22072 10.3801 4.28919 10.3131 4.35219 10.2677C4.52175 10.1455 4.82163 10.0712 5.15959 10.0712L5.15926 6.07119C4.43924 6.07125 3.15941 6.19688 2.01375 7.02241C0.747778 7.93463 0 9.43857 0 11.4623H4ZM5.15942 13.6362C5.16005 13.6362 5.13962 13.6361 5.1002 13.6273C5.06153 13.6187 5.01099 13.6032 4.95222 13.5771C4.83475 13.5249 4.69724 13.436 4.56451 13.2958C4.32282 13.0406 4 12.5086 4 11.4623H0C0 15.4541 2.70719 17.6362 5.15942 17.6362V13.6362ZM6.57971 11.4623C6.57971 12.445 6.24431 12.9581 5.9569 13.2321C5.61028 13.5626 5.24263 13.6362 5.15942 13.6362V17.6362C7.41929 17.6362 10.5797 15.6703 10.5797 11.4623H6.57971ZM25.4203 7.67969C25.4203 5.6131 24.6228 4.09122 23.2837 3.19279C22.09 2.3919 20.7541 2.28842 19.9996 2.28858L20.0004 6.28858C20.4705 6.28848 20.8448 6.37331 21.0551 6.51442C21.1328 6.56657 21.2013 6.63398 21.262 6.75792C21.3278 6.89221 21.4203 7.16861 21.4203 7.67969H25.4203ZM20 13.8536C22.2599 13.8536 25.4203 11.8877 25.4203 7.67969H21.4203C21.4203 8.66239 21.0849 9.17551 20.7975 9.44952C20.4509 9.77997 20.0832 9.8536 20 9.8536V13.8536ZM14.8406 7.67969C14.8406 11.6715 17.5478 13.8536 20 13.8536V9.8536C20.0006 9.8536 19.9802 9.85345 19.9408 9.84468C19.9021 9.83608 19.8516 9.82057 19.7928 9.79445C19.6753 9.74225 19.5378 9.65336 19.4051 9.5132C19.1634 9.25797 18.8406 8.72603 18.8406 7.67969H14.8406ZM19.9998 2.28858C19.2798 2.28864 18 2.41427 16.8543 3.2398C15.5884 4.15202 14.8406 5.65596 14.8406 7.67969H18.8406C18.8406 7.16548 18.9305 6.87815 18.9982 6.73284C19.0613 6.59747 19.1298 6.53045 19.1928 6.48506C19.3623 6.36288 19.6622 6.28861 20.0002 6.28858L19.9998 2.28858ZM26.5801 10.0712C27.0502 10.0711 27.4245 10.1559 27.6348 10.297C27.7125 10.3492 27.781 10.4166 27.8417 10.5405C27.9075 10.6748 28 10.9512 28 11.4623H32C32 9.39571 31.2025 7.87383 29.8634 6.9754C28.6697 6.17451 27.3338 6.07103 26.5793 6.07119L26.5801 10.0712ZM25.4203 11.4623C25.4203 10.9481 25.5102 10.6608 25.5779 10.5154C25.641 10.3801 25.7095 10.3131 25.7725 10.2677C25.942 10.1455 26.2419 10.0712 26.5799 10.0712L26.5795 6.07119C25.8595 6.07125 24.5797 6.19688 23.434 7.02241C22.1681 7.93463 21.4203 9.43857 21.4203 11.4623H25.4203ZM26.5797 13.6362C26.5803 13.6362 26.5599 13.6361 26.5205 13.6273C26.4818 13.6187 26.4313 13.6032 26.3725 13.5771C26.255 13.5249 26.1175 13.436 25.9848 13.2958C25.7431 13.0406 25.4203 12.5086 25.4203 11.4623H21.4203C21.4203 15.4541 24.1275 17.6362 26.5797 17.6362V13.6362ZM28 11.4623C28 12.445 27.6646 12.9581 27.3772 13.2321C27.0306 13.5626 26.6629 13.6362 26.5797 13.6362V17.6362C28.8396 17.6362 32 15.6703 32 11.4623H28ZM27.2464 22.8538C27.2464 16.6202 23.114 10.7379 16 10.7379V14.7379C20.3643 14.7379 23.2464 18.2468 23.2464 22.8538H27.2464ZM16 29.4625C17.9836 29.4625 20.6246 29.4434 22.7825 28.7313C23.8959 28.3639 25.0347 27.7661 25.8974 26.7557C26.7908 25.7093 27.2464 24.386 27.2464 22.8538H23.2464C23.2464 23.5535 23.057 23.9222 22.8553 24.1584C22.6229 24.4306 22.2164 24.706 21.5291 24.9328C20.0855 25.4091 18.1033 25.4625 16 25.4625V29.4625ZM15.9862 29.4625H16V25.4625H15.9862V29.4625ZM4.81159 22.8538C4.81159 24.4381 5.29816 25.7891 6.22856 26.8423C7.12352 27.8554 8.29457 28.4412 9.41895 28.7944C11.6016 29.4802 14.2248 29.4625 15.9862 29.4625L15.9862 25.4625C14.0664 25.4625 12.1023 25.4448 10.618 24.9784C9.90884 24.7556 9.47646 24.4772 9.22636 24.1941C9.0117 23.9511 8.81159 23.5738 8.81159 22.8538H4.81159ZM16 10.7379C12.5541 10.7379 9.70101 12.1321 7.73722 14.4157C5.7996 16.6688 4.81159 19.6826 4.81159 22.8538H8.81159C8.81159 20.4888 9.54821 18.4446 10.77 17.0238C11.9656 15.6335 13.7068 14.7379 16 14.7379V10.7379Z" fill="white" mask="url(#path-1-outside-1_345_1323)"/>
</svg>
