<svg width="32" height="32" viewBox="0 0 32 32" fill="none" xmlns="http://www.w3.org/2000/svg">
<g clip-path="url(#clip0_316_1039)">
<path d="M12.6177 9.6977L13.3248 8.99059L12.6177 8.28348L11.1377 6.80348C10.4972 6.16296 9.45401 6.16296 8.81348 6.80348L6.80348 8.81348C6.16296 9.45401 6.16296 10.4972 6.80348 11.1377L8.28348 12.6177L8.99059 13.3248L9.6977 12.6177L12.6177 9.6977Z" fill="white" stroke="#333333" stroke-width="2"/>
<path d="M21.7483 1.04794L21.7483 1.04791L21.7408 1.04976C17.4495 2.1096 12.3827 4.67389 8.53253 8.53444C4.6849 12.3924 2.11007 17.4476 1.04975 21.7408L1.04873 21.745C0.648331 23.3967 2.66334 24.5075 3.86036 23.335L3.8604 23.335L3.86769 23.3277L11.1377 16.0577L13.1715 14.0239L16.0677 11.1277L23.3377 3.8577L23.3377 3.85774L23.3451 3.85022C24.5191 2.65125 23.3911 0.655644 21.7483 1.04794Z" fill="white" stroke="#333333" stroke-width="2"/>
<path d="M30.4277 28.8777L30.4278 28.8778L30.4371 28.8682C31.1851 28.1 31.1851 26.8712 30.4371 26.103L30.4371 26.1029L30.4277 26.0935L16.5177 12.1835L15.8106 11.4764L15.1035 12.1835L12.1835 15.1035L11.4764 15.8106L12.1835 16.5177L26.0935 30.4277C26.864 31.1982 28.1072 31.1982 28.8777 30.4277L30.4277 28.8777Z" fill="white" stroke="#333333" stroke-width="2"/>
</g>
<defs>
<clipPath id="clip0_316_1039">
<rect width="32" height="32" fill="white"/>
</clipPath>
</defs>
</svg>
