<svg width="32" height="32" viewBox="0 0 32 32" fill="none" xmlns="http://www.w3.org/2000/svg">
<g clip-path="url(#clip0_316_1416)">
<path d="M21.5415 29.0131C20.6015 27.9431 20.6015 26.3031 21.5415 25.2231C21.7315 25.0131 21.7315 24.6931 21.5315 24.4931L15.6415 18.5531L18.6215 15.6031L24.5115 21.5431C24.7115 21.7431 25.0315 21.7531 25.2415 21.5631C26.3215 20.6331 27.9615 20.6431 29.0315 21.5931C30.2815 22.7031 30.3215 24.6331 29.1515 25.7931C28.6015 26.3431 27.8715 26.6231 27.1515 26.6331C26.8515 26.6331 26.6015 26.8831 26.6015 27.1831C26.5915 27.9031 26.3015 28.6331 25.7515 29.1831C24.5715 30.3231 22.6415 30.2731 21.5415 29.0131Z" fill="white" stroke="#333333" stroke-width="2"/>
<path d="M11.0502 11.0503C8.31658 13.7839 5.15075 15.0503 3.97918 13.8787C2.80761 12.7071 4.07394 9.54129 6.80761 6.80762C9.54128 4.07395 12.7071 2.80762 13.8787 3.97919C15.0502 5.15076 13.7839 8.31659 11.0502 11.0503Z" fill="#999999"/>
<path d="M9.63605 9.63604C8.855 10.4171 7.90525 10.7337 7.51473 10.3432C7.1242 9.95263 7.44079 9.00288 8.22183 8.22183C9.00288 7.44078 9.95263 7.1242 10.3432 7.51472C10.7337 7.90525 10.4171 8.855 9.63605 9.63604Z" fill="white"/>
<path d="M21.5415 29.0131C20.6015 27.9431 20.6015 26.3031 21.5415 25.2231C21.7315 25.0131 21.7315 24.6931 21.5315 24.4931L15.6415 18.5531L18.6215 15.6031L24.5115 21.5431C24.7115 21.7431 25.0315 21.7531 25.2415 21.5631C26.3215 20.6331 27.9615 20.6431 29.0315 21.5931C30.2815 22.7031 30.3215 24.6331 29.1515 25.7931C28.6015 26.3431 27.8715 26.6231 27.1515 26.6331C26.8515 26.6331 26.6015 26.8831 26.6015 27.1831C26.5915 27.9031 26.3015 28.6331 25.7515 29.1831C24.5715 30.3231 22.6415 30.2731 21.5415 29.0131Z" fill="white" stroke="#333333" stroke-width="2"/>
<path d="M5.0805 17.8084C4.68535 17.4099 2.88562 15.6481 2.56497 15.2929C1.83364 14.61 0.0603594 10.7264 5.74695 5.03984C11.1024 -0.315603 14.5962 1.84749 15.2929 2.56497C15.9896 3.28244 17.4117 4.68614 17.8084 5.08049C21.6569 8.92893 22.1328 11.7145 21.6028 14.4845C21.2057 16.6216 21.2926 16.3643 22.0615 17.1332C22.9915 18.0632 22.9815 19.5732 22.0515 20.4932L20.5115 22.0232C19.5815 22.9532 18.0715 22.9432 17.1515 22.0132C16.3976 21.2593 16.6379 21.1444 14.4828 21.5345C11.7228 22.0145 8.92893 21.6569 5.0805 17.8084Z" fill="white" stroke="#333333" stroke-width="2"/>
<path d="M11.0502 11.0503C8.31658 13.7839 5.15075 15.0503 3.97918 13.8787C2.80761 12.7071 4.07394 9.54129 6.80761 6.80762C9.54128 4.07395 12.7071 2.80762 13.8787 3.97919C15.0502 5.15076 13.7839 8.31659 11.0502 11.0503Z" fill="#999999"/>
<path d="M9.63605 9.63604C8.855 10.4171 7.90525 10.7337 7.51473 10.3432C7.1242 9.95263 7.44079 9.00288 8.22183 8.22183C9.00288 7.44078 9.95263 7.1242 10.3432 7.51472C10.7337 7.90525 10.4171 8.855 9.63605 9.63604Z" fill="white"/>
</g>
<defs>
<clipPath id="clip0_316_1416">
<rect width="32" height="32" fill="white" transform="matrix(-4.37114e-08 -1 -1 4.37114e-08 32 32)"/>
</clipPath>
</defs>
</svg>
