<svg width="32" height="32" viewBox="0 0 32 32" fill="none" xmlns="http://www.w3.org/2000/svg">
<g clip-path="url(#clip0_344_1235)">
<path d="M26.1561 14.334L18.0896 5.26265L18.0791 5.25067C17.9026 5.04565 17.5085 4.7997 17.0522 4.72119C16.6246 4.64762 16.2678 4.73654 16.0029 5.00141C15.7159 5.28843 15.5996 5.59381 15.5516 5.82721C15.5484 5.84309 15.5454 5.85861 15.5428 5.87372L19.2673 9.90204C19.6422 10.3076 19.6174 10.9402 19.2119 11.3152C18.8064 11.6901 18.1737 11.6653 17.7988 11.2598L13.9406 7.08694C13.8985 7.05638 13.8585 7.02225 13.8208 6.98463L12.4619 5.62566C12.3238 5.4876 12.0822 5.38527 11.7757 5.39252C11.4685 5.3998 11.2015 5.51597 11.0421 5.67538C10.5021 6.21542 10.4273 6.60041 10.4176 6.76172C10.4147 6.809 10.4168 6.8486 10.4205 6.87981C10.453 6.9175 10.4871 6.95437 10.5229 6.99014L10.5386 7.00585L14.8294 11.6958C15.2022 12.1033 15.1741 12.7358 14.7666 13.1086C14.3591 13.4814 13.7266 13.4533 13.3538 13.0458L9.09187 8.38746C9.01336 8.30799 8.93719 8.22414 8.86406 8.13634C8.85755 8.13037 8.8511 8.12431 8.84472 8.11814C8.34322 7.63364 7.7971 7.22912 7.30133 7.06724C7.068 6.99105 6.87969 6.97992 6.72398 7.01091C6.57637 7.04029 6.39365 7.11979 6.18078 7.33266C5.70599 7.80744 5.6325 8.22876 5.69842 8.59053C5.75123 8.88033 5.9094 9.20435 6.17726 9.52715L6.2835 9.62965C6.36809 9.71108 6.45252 9.79236 6.53071 9.87019L12.2174 15.116C12.6233 15.4905 12.6488 16.1232 12.2744 16.5291C11.8999 16.935 11.2672 16.9606 10.8613 16.5861L5.50184 11.6421C5.18987 11.6043 4.97003 11.6723 4.81345 11.7669C4.6091 11.8902 4.42685 12.1122 4.31582 12.4256C4.08328 13.0819 4.24312 13.8765 4.78888 14.3323C4.79963 14.3412 4.81019 14.3505 4.82055 14.3599L4.89216 14.425L11.8064 20.0588C11.8327 20.0802 11.8577 20.1027 11.8812 20.1261C12.1386 20.3756 12.253 20.7556 12.1461 21.1238C11.9921 21.6542 11.4373 21.9593 10.907 21.8053C10.2793 21.6231 9.14363 21.2973 8.12261 21.0252C7.72966 21.0264 7.3427 21.0652 7.00639 21.1567C6.63733 21.2572 6.40549 21.4005 6.27245 21.5512C6.15828 21.6805 6.04971 21.8887 6.06419 22.2894C6.09481 23.1377 6.72094 23.7831 7.21707 23.8711C7.8059 23.9755 8.45036 24.0833 9.11351 24.1943C10.1591 24.3693 11.2514 24.5522 12.2463 24.7416C13.0693 24.8983 13.8564 25.0649 14.5383 25.2446C15.2048 25.4201 15.833 25.6236 16.3031 25.8712C19.6538 27.6358 23.4738 26.828 25.5694 24.7325C28.1713 22.1306 28.882 17.4868 26.1561 14.334Z" fill="white"/>
<path fill-rule="evenodd" clip-rule="evenodd" d="M26.1561 14.334L26.1606 14.339L26.152 14.3292L26.1561 14.334Z" fill="white"/>
<path d="M4.76656 5.91844C3.86725 6.81775 3.53747 7.88799 3.73083 8.94908C3.79219 9.28583 3.90336 9.60691 4.05225 9.90929C3.95903 9.95283 3.86814 10.0013 3.77975 10.0547C3.11489 10.4561 2.66902 11.0849 2.43064 11.7577C1.96648 13.0678 2.21829 14.7775 3.48944 15.8527L7.06531 19.1038C6.86762 19.1345 6.67199 19.175 6.48109 19.2269C5.87801 19.3911 5.24783 19.6899 4.77317 20.2275C4.27964 20.7865 4.03483 21.5129 4.0655 22.3616C4.12404 23.9835 5.28704 25.56 6.8679 25.8404C7.49991 25.9524 8.16023 26.0628 8.82821 26.1745C9.84957 26.3453 10.8889 26.5191 11.8722 26.7063C12.6755 26.8593 13.4114 27.016 14.0289 27.1786C14.6618 27.3453 15.1095 27.503 15.3712 27.6408C19.4893 29.8095 24.2619 28.8684 26.9836 26.1467C30.1919 22.9384 31.2011 17.1038 27.6638 13.0198L19.5889 3.93892C19.0799 3.3517 18.2561 2.89894 17.3913 2.75015C16.4944 2.59583 15.4232 2.75274 14.5887 3.5872C14.3433 3.83264 14.1531 4.08866 14.0061 4.34143L13.8761 4.21144C13.28 3.61536 12.4717 3.37548 11.7283 3.39308C10.9856 3.41067 10.2027 3.68642 9.62792 4.26116C9.20118 4.68791 8.90782 5.1119 8.71677 5.51865C8.4646 5.3779 8.19867 5.25632 7.92212 5.16602C7.44206 5.00927 6.89947 4.93675 6.33356 5.04939C5.75955 5.16364 5.22994 5.45507 4.76656 5.91844ZM18.0896 5.26265L26.1561 14.334C28.882 17.4868 28.1713 22.1306 25.5694 24.7325C23.4738 26.828 19.6538 27.6358 16.3031 25.8712C15.833 25.6236 15.2048 25.4201 14.5383 25.2446C13.8564 25.0649 13.0693 24.8983 12.2463 24.7416C11.2514 24.5522 10.1591 24.3693 9.11351 24.1943C8.45036 24.0833 7.8059 23.9755 7.21707 23.8711C6.72094 23.7831 6.09481 23.1377 6.06419 22.2894C6.04971 21.8887 6.15828 21.6805 6.27245 21.5512C6.40549 21.4005 6.63733 21.2572 7.00639 21.1567C7.3427 21.0652 7.72966 21.0264 8.12261 21.0252C9.14363 21.2973 10.2793 21.6231 10.907 21.8053C11.4373 21.9593 11.9921 21.6542 12.1461 21.1238C12.253 20.7556 12.1386 20.3756 11.8812 20.1261C11.8577 20.1027 11.8327 20.0802 11.8064 20.0588L4.89216 14.425L4.82055 14.3599C4.81019 14.3505 4.79963 14.3412 4.78888 14.3323C4.24312 13.8765 4.08328 13.0819 4.31582 12.4256C4.42685 12.1122 4.6091 11.8902 4.81345 11.7669C4.97003 11.6723 5.18987 11.6043 5.50184 11.6421L10.8613 16.5861C11.2672 16.9606 11.8999 16.935 12.2744 16.5291C12.6488 16.1232 12.6233 15.4905 12.2174 15.116L6.53071 9.87019C6.45252 9.79236 6.36809 9.71108 6.2835 9.62965L6.17726 9.52715C5.9094 9.20435 5.75123 8.88033 5.69842 8.59053C5.6325 8.22876 5.70599 7.80744 6.18078 7.33266C6.39365 7.11979 6.57637 7.04029 6.72398 7.01091C6.87969 6.97992 7.068 6.99105 7.30133 7.06724C7.7971 7.22912 8.34322 7.63364 8.84472 8.11814C8.8511 8.12431 8.85755 8.13037 8.86406 8.13634C8.93719 8.22414 9.01336 8.30799 9.09187 8.38746L13.3538 13.0458C13.7266 13.4533 14.3591 13.4814 14.7666 13.1086C15.1741 12.7358 15.2022 12.1033 14.8294 11.6958L10.5386 7.00585L10.5229 6.99014C10.4871 6.95437 10.453 6.9175 10.4205 6.87981C10.4168 6.8486 10.4147 6.809 10.4176 6.76172C10.4273 6.60041 10.5021 6.21542 11.0421 5.67538C11.2015 5.51597 11.4685 5.3998 11.7757 5.39252C12.0822 5.38527 12.3238 5.4876 12.4619 5.62566L13.8208 6.98463C13.8585 7.02225 13.8985 7.05638 13.9406 7.08694L17.7988 11.2598C18.1737 11.6653 18.8064 11.6901 19.2119 11.3152C19.6174 10.9402 19.6422 10.3076 19.2673 9.90204L15.5428 5.87372C15.5454 5.85861 15.5484 5.84309 15.5516 5.82721C15.5996 5.59381 15.7159 5.28843 16.0029 5.00141C16.2678 4.73654 16.6246 4.64762 17.0522 4.72119C17.5085 4.7997 17.9026 5.04565 18.0791 5.25067L18.0896 5.26265ZM26.1561 14.334L26.1606 14.339L26.152 14.3292L26.1561 14.334Z" fill="#333333"/>
</g>
<defs>
<clipPath id="clip0_344_1235">
<rect width="32" height="32" fill="white"/>
</clipPath>
</defs>
</svg>
