<svg width="32" height="32" viewBox="0 0 32 32" fill="none" xmlns="http://www.w3.org/2000/svg">
<path d="M25.74 21.2349C25.74 26.8649 21.17 28.0349 15.54 28.0349C9.90997 28.0349 5.33997 26.8649 5.33997 21.2349C5.33997 15.6049 9.90997 11.0349 15.54 11.0349C21.17 11.0349 25.74 15.6049 25.74 21.2349Z" fill="#333333" stroke="white" stroke-width="2"/>
<path d="M22.62 10.1548C22.62 14.0648 19.41 14.0048 15.49 14.0048C11.57 14.0048 8.44995 14.0748 8.44995 10.1548C8.44995 6.23483 11.62 3.07483 15.53 3.07483C19.44 3.07483 22.62 6.24483 22.62 10.1548Z" fill="#333333" stroke="white" stroke-width="2"/>
<mask id="path-3-outside-1_343_896" maskUnits="userSpaceOnUse" x="15.51" y="15.0349" width="8" height="9" fill="black">
<rect fill="white" x="15.51" y="15.0349" width="8" height="9"/>
<path fill-rule="evenodd" clip-rule="evenodd" d="M20.56 22.0349H19.5301V22.5349C19.5301 22.7949 19.3101 23.0249 19.0401 23.0249C18.7701 23.0249 18.5501 22.8049 18.5501 22.5349V22.0349H17.49V22.5249C17.49 22.7949 17.27 23.0149 17 23.0149C16.73 23.0149 16.51 22.7949 16.51 22.5249V21.5049C16.51 21.4861 16.5111 21.4675 16.5132 21.4492C16.5111 21.4281 16.51 21.4066 16.51 21.3849V16.0349H21.54V21.3849C21.54 21.4067 21.539 21.4282 21.5369 21.4494C21.539 21.4676 21.54 21.4861 21.54 21.5049V22.5349C21.54 22.7949 21.32 23.0249 21.05 23.0249C20.78 23.0249 20.56 22.8049 20.56 22.5349V22.0349Z"/>
</mask>
<path fill-rule="evenodd" clip-rule="evenodd" d="M20.56 22.0349H19.5301V22.5349C19.5301 22.7949 19.3101 23.0249 19.0401 23.0249C18.7701 23.0249 18.5501 22.8049 18.5501 22.5349V22.0349H17.49V22.5249C17.49 22.7949 17.27 23.0149 17 23.0149C16.73 23.0149 16.51 22.7949 16.51 22.5249V21.5049C16.51 21.4861 16.5111 21.4675 16.5132 21.4492C16.5111 21.4281 16.51 21.4066 16.51 21.3849V16.0349H21.54V21.3849C21.54 21.4067 21.539 21.4282 21.5369 21.4494C21.539 21.4676 21.54 21.4861 21.54 21.5049V22.5349C21.54 22.7949 21.32 23.0249 21.05 23.0249C20.78 23.0249 20.56 22.8049 20.56 22.5349V22.0349Z" fill="#333333"/>
<path d="M20.56 22.0349H21.56V21.0349H20.56V22.0349ZM19.5301 22.0349V21.0349H18.5301V22.0349H19.5301ZM18.5501 22.0349H19.5501V21.0349H18.5501V22.0349ZM17.49 22.0349V21.0349H16.49V22.0349H17.49ZM16.5132 21.4492L17.5067 21.5623L17.5187 21.4574L17.5084 21.3522L16.5132 21.4492ZM16.51 16.0349V15.0349H15.51V16.0349H16.51ZM21.54 16.0349H22.54V15.0349H21.54V16.0349ZM21.5369 21.4494L20.5416 21.3521L20.5314 21.4572L20.5433 21.5621L21.5369 21.4494ZM20.56 21.0349H19.5301V23.0349H20.56V21.0349ZM18.5301 22.0349V22.5349H20.5301V22.0349H18.5301ZM18.5301 22.5349C18.5301 22.3813 18.5937 22.257 18.6743 22.1752C18.7568 22.0915 18.8847 22.0249 19.0401 22.0249V24.0249C19.8755 24.0249 20.5301 23.3339 20.5301 22.5349H18.5301ZM19.0401 22.0249C19.3224 22.0249 19.5501 22.2526 19.5501 22.5349H17.5501C17.5501 23.3572 18.2178 24.0249 19.0401 24.0249V22.0249ZM19.5501 22.5349V22.0349H17.5501V22.5349H19.5501ZM18.5501 21.0349H17.49V23.0349H18.5501V21.0349ZM16.49 22.0349V22.5249H18.49V22.0349H16.49ZM16.49 22.5249C16.49 22.2426 16.7177 22.0149 17 22.0149V24.0149C17.8223 24.0149 18.49 23.3472 18.49 22.5249H16.49ZM17 22.0149C17.2823 22.0149 17.51 22.2426 17.51 22.5249H15.51C15.51 23.3472 16.1777 24.0149 17 24.0149V22.0149ZM17.51 22.5249V21.5049H15.51V22.5249H17.51ZM17.51 21.5049C17.51 21.524 17.5089 21.5431 17.5067 21.5623L15.5196 21.3362C15.5132 21.3919 15.51 21.4482 15.51 21.5049H17.51ZM17.5084 21.3522C17.5095 21.3633 17.51 21.3742 17.51 21.3849H15.51C15.51 21.439 15.5127 21.4929 15.5179 21.5462L17.5084 21.3522ZM17.51 21.3849V16.0349H15.51V21.3849H17.51ZM16.51 17.0349H21.54V15.0349H16.51V17.0349ZM20.54 16.0349V21.3849H22.54V16.0349H20.54ZM20.54 21.3849C20.54 21.3742 20.5406 21.3632 20.5416 21.3521L22.5322 21.5467C22.5374 21.4932 22.54 21.4392 22.54 21.3849H20.54ZM22.54 21.5049C22.54 21.4484 22.5368 21.3923 22.5305 21.3368L20.5433 21.5621C20.5411 21.543 20.54 21.5239 20.54 21.5049H22.54ZM22.54 22.5349V21.5049H20.54V22.5349H22.54ZM21.05 24.0249C21.8855 24.0249 22.54 23.3339 22.54 22.5349H20.54C20.54 22.3813 20.6036 22.257 20.6842 22.1752C20.7668 22.0915 20.8946 22.0249 21.05 22.0249V24.0249ZM19.56 22.5349C19.56 23.3572 20.2277 24.0249 21.05 24.0249V22.0249C21.3323 22.0249 21.56 22.2526 21.56 22.5349H19.56ZM19.56 22.0349V22.5349H21.56V22.0349H19.56Z" fill="white" mask="url(#path-3-outside-1_343_896)"/>
<path d="M19.6899 9.13484L15.6299 8.71484C15.1799 8.71484 14.8199 9.07484 14.8199 9.52484C14.8199 9.97484 15.1799 10.3348 15.6299 10.3348L19.6899 9.91484C19.9099 9.91484 20.0899 9.73484 20.0899 9.51484C20.0899 9.29484 19.9099 9.13484 19.6899 9.13484Z" fill="white"/>
<path fill-rule="evenodd" clip-rule="evenodd" d="M8.81551 11.3155C8.55932 11.6021 8.42004 12.1081 8.42004 12.9293C8.42004 16.8593 11.61 17.3193 15.54 17.3193C19.47 17.3193 22.66 16.8593 22.66 12.9293C22.66 12.0931 22.5156 11.5838 22.2504 11.3C21.3172 13.2405 18.7207 13.2399 15.6651 13.2392C15.6069 13.2392 15.5485 13.2391 15.49 13.2391C15.4221 13.2391 15.3545 13.2392 15.2872 13.2392C12.2521 13.2401 9.728 13.2409 8.81551 11.3155Z" fill="#333333"/>
<path d="M8.81551 11.3155L9.26734 11.1014L8.94475 10.4207L8.44274 10.9823L8.81551 11.3155ZM22.2504 11.3L22.6157 10.9586L22.1166 10.4247L21.7998 11.0833L22.2504 11.3ZM15.6651 13.2392L15.6649 13.7392H15.6649L15.6651 13.2392ZM15.2872 13.2392L15.287 12.7392L15.2872 13.2392ZM8.92004 12.9293C8.92004 12.1344 9.06122 11.7909 9.18829 11.6488L8.44274 10.9823C8.05741 11.4134 7.92004 12.0818 7.92004 12.9293H8.92004ZM15.54 16.8193C13.5674 16.8193 11.8942 16.6983 10.7191 16.1456C10.1469 15.8764 9.70821 15.511 9.40768 15.0143C9.10544 14.5148 8.92004 13.8444 8.92004 12.9293H7.92004C7.92004 13.9791 8.1334 14.84 8.55209 15.532C8.9725 16.2268 9.57692 16.7134 10.2935 17.0504C11.6959 17.7102 13.5827 17.8193 15.54 17.8193V16.8193ZM22.16 12.9293C22.16 13.8444 21.9746 14.5148 21.6724 15.0143C21.3719 15.511 20.9332 15.8764 20.361 16.1456C19.1859 16.6983 17.5127 16.8193 15.54 16.8193V17.8193C17.4974 17.8193 19.3842 17.7102 20.7866 17.0504C21.5032 16.7134 22.1076 16.2268 22.528 15.532C22.9467 14.84 23.16 13.9791 23.16 12.9293H22.16ZM21.8852 11.6415C22.0133 11.7786 22.16 12.1188 22.16 12.9293H23.16C23.16 12.0674 23.0179 11.3889 22.6157 10.9586L21.8852 11.6415ZM21.7998 11.0833C21.4272 11.8581 20.7192 12.2826 19.6503 12.5083C18.5647 12.7375 17.2101 12.7395 15.6652 12.7392L15.6649 13.7392C17.1757 13.7395 18.6471 13.7422 19.8569 13.4867C21.0835 13.2278 22.1404 12.6824 22.701 11.5168L21.7998 11.0833ZM15.6652 12.7392C15.607 12.7392 15.5485 12.7391 15.49 12.7391V13.7391C15.5484 13.7391 15.6067 13.7392 15.6649 13.7392L15.6652 12.7392ZM15.49 12.7391C15.422 12.7391 15.3543 12.7392 15.287 12.7392L15.2873 13.7392C15.3547 13.7392 15.4222 13.7391 15.49 13.7391V12.7391ZM15.287 12.7392C13.7519 12.7397 12.4215 12.7377 11.3599 12.5108C10.3176 12.288 9.63127 11.8693 9.26734 11.1014L8.36369 11.5297C8.91224 12.6871 9.94422 13.2308 11.1508 13.4887C12.3382 13.7425 13.7873 13.7396 15.2873 13.7392L15.287 12.7392Z" fill="white"/>
<path fill-rule="evenodd" clip-rule="evenodd" d="M14.5 6C14.2239 6 14 6.22386 14 6.5V7.5C14 7.77614 14.2239 8 14.5 8C14.7761 8 15 7.77614 15 7.5V6.5C15 6.22386 14.7761 6 14.5 6ZM17.5 6C17.2239 6 17 6.22386 17 6.5V7.5C17 7.77614 17.2239 8 17.5 8C17.7761 8 18 7.77614 18 7.5V6.5C18 6.22386 17.7761 6 17.5 6Z" fill="white"/>
</svg>
