<svg width="32" height="32" viewBox="0 0 32 32" fill="none" xmlns="http://www.w3.org/2000/svg">
<path d="M27.6254 13.7952L21.1321 10.9339C21.1316 10.9336 21.1311 10.9334 21.1306 10.9332C21.1156 10.9265 21.1008 10.9197 21.0859 10.9128C21.0806 10.901 21.0753 10.8891 21.0702 10.8772L21.0702 10.8772L21.0675 10.8711L18.2048 4.37458L18.1939 4.34972L18.1816 4.32548C17.2852 2.55817 14.7148 2.55817 13.8184 4.32548L13.8061 4.34972L13.7952 4.37458L10.9339 10.8679C10.9337 10.8684 10.9334 10.8689 10.9332 10.8693C10.9266 10.8843 10.9198 10.8992 10.9128 10.9141C10.901 10.9194 10.8891 10.9246 10.8772 10.9298L10.8772 10.9298L10.8711 10.9324L4.37458 13.7952L4.34972 13.8061L4.32548 13.8184C2.55817 14.7148 2.55817 17.2852 4.32548 18.1816L4.34972 18.1939L4.37458 18.2048L10.8679 21.0661C10.8684 21.0664 10.8689 21.0666 10.8694 21.0668C10.8844 21.0735 10.8992 21.0803 10.9141 21.0872C10.9194 21.099 10.9246 21.1109 10.9298 21.1228L10.9298 21.1228L10.9324 21.1289L13.7952 27.6254L13.8061 27.6503L13.8184 27.6745C14.7148 29.4418 17.2852 29.4418 18.1816 27.6745L18.1939 27.6503L18.2048 27.6254L21.0661 21.1321C21.0664 21.1316 21.0666 21.1311 21.0668 21.1306C21.0735 21.1156 21.0803 21.1008 21.0872 21.086C21.099 21.0806 21.1109 21.0754 21.1228 21.0702L21.1228 21.0702L21.1289 21.0676L27.6254 18.2048L27.6503 18.1939L27.6745 18.1816C29.4418 17.2852 29.4418 14.7148 27.6745 13.8184L27.6503 13.8061L27.6254 13.7952Z" fill="white" stroke="#333333" stroke-width="2"/>
</svg>
