<svg width="32" height="32" viewBox="0 0 32 32" fill="none" xmlns="http://www.w3.org/2000/svg">
<path d="M16 4L28.1244 25H3.87564L16 4Z" fill="#333333" stroke="white" stroke-width="2" stroke-linejoin="round"/>
<path d="M15.6415 28.8659L15.1152 27.9719C14.398 26.7537 12.4926 25.801 10.0563 25.4424L8.26815 25.1792C7.91061 25.1266 7.91061 24.8734 8.26815 24.8208L10.0562 24.5576C12.4926 24.199 14.398 23.2463 15.1152 22.0281L15.6415 21.1341C15.7468 20.9553 16.2532 20.9553 16.3585 21.1341L16.8848 22.0281C17.602 23.2463 19.5074 24.199 21.9438 24.5576L23.7318 24.8208C24.0894 24.8734 24.0894 25.1266 23.7318 25.1792L21.9437 25.4424C19.5074 25.801 17.602 26.7537 16.8848 27.9719L16.3585 28.8659C16.2532 29.0447 15.7468 29.0447 15.6415 28.8659Z" fill="white"/>
<path d="M12.8046 17.2434L11.7672 17.2522C10.3536 17.2643 8.57587 18.438 7.04715 20.3686L5.92517 21.7856C5.70083 22.0689 5.48153 21.9423 5.61473 21.6064L6.28085 19.9262C7.18846 17.637 7.3161 15.5105 6.61973 14.2804L6.10865 13.3775C6.00646 13.1969 6.25968 12.7584 6.46712 12.7566L7.50457 12.7478C8.91814 12.7357 10.6959 11.562 12.2246 9.63135L13.3466 8.2144C13.5709 7.93108 13.7902 8.05769 13.657 8.39364L12.9909 10.0738C12.0833 12.363 11.9557 14.4894 12.652 15.7196L13.1631 16.6225C13.2653 16.803 13.0121 17.2416 12.8046 17.2434Z" fill="white"/>
<path d="M19.1954 17.2434L20.2328 17.2522C21.6464 17.2643 23.4241 18.438 24.9529 20.3686L26.0748 21.7856C26.2992 22.0689 26.5185 21.9423 26.3853 21.6064L25.7192 19.9262C24.8115 17.637 24.6839 15.5105 25.3803 14.2804L25.8913 13.3775C25.9935 13.1969 25.7403 12.7584 25.5329 12.7566L24.4954 12.7478C23.0819 12.7357 21.3041 11.562 19.7754 9.63135L18.6534 8.2144C18.4291 7.93108 18.2098 8.05769 18.343 8.39364L19.0091 10.0738C19.9167 12.363 20.0443 14.4894 19.348 15.7196L18.8369 16.6225C18.7347 16.803 18.9879 17.2416 19.1954 17.2434Z" fill="white"/>
</svg>
