<svg width="32" height="32" viewBox="0 0 32 32" fill="none" xmlns="http://www.w3.org/2000/svg">
<g clip-path="url(#clip0_352_1683)">
<path d="M24.1556 8.56716L22.8837 10.9003C21.1507 14.0793 21.1507 17.9207 22.8837 21.0997L24.1556 23.4328C24.4099 23.8994 23.8994 24.4099 23.4328 24.1556L21.0997 22.8837C17.9207 21.1507 14.0792 21.1507 10.9003 22.8837L8.56716 24.1556C8.10063 24.4099 7.59011 23.8994 7.84443 23.4328L9.11633 21.0997C10.8493 17.9208 10.8493 14.0793 9.11633 10.9003L7.84443 8.56716C7.5901 8.10064 8.10062 7.59011 8.56715 7.84443L10.9003 9.11633C14.0793 10.8493 17.9207 10.8493 21.0997 9.11633L23.4328 7.84443C23.8994 7.59011 24.4099 8.10063 24.1556 8.56716Z" fill="#A67AFF"/>
<path d="M15.1896 4.3949L16 1.642L16.8104 4.3949C18.3407 9.59355 22.4065 13.6593 27.6051 15.1896L30.358 16L27.6051 16.8104C22.4065 18.3408 18.3407 22.4065 16.8104 27.6051L16 30.358L15.1896 27.6051C13.6593 22.4065 9.59355 18.3408 4.39489 16.8104L1.642 16L4.3949 15.1896C9.59355 13.6593 13.6593 9.59355 15.1896 4.3949ZM0.818703 15.7577C0.818825 15.7577 0.818947 15.7577 0.819069 15.7578L0.818705 15.7577L0.74736 16L0.818703 15.7577Z" fill="#5E468B" stroke="#C1A1FF" stroke-width="2" stroke-miterlimit="10" stroke-linecap="round" stroke-linejoin="round"/>
<mask id="mask0_352_1683" style="mask-type:alpha" maskUnits="userSpaceOnUse" x="0" y="0" width="32" height="32">
<path d="M15.1896 4.3949L16 1.642L16.8104 4.3949C18.3407 9.59355 22.4065 13.6593 27.6051 15.1896L30.358 16L27.6051 16.8104C22.4065 18.3408 18.3407 22.4065 16.8104 27.6051L16 30.358L15.1896 27.6051C13.6593 22.4065 9.59355 18.3408 4.39489 16.8104L1.642 16L4.3949 15.1896C9.59355 13.6593 13.6593 9.59355 15.1896 4.3949ZM0.818703 15.7577C0.818825 15.7577 0.818947 15.7577 0.819069 15.7578L0.818705 15.7577L0.74736 16L0.818703 15.7577Z" fill="#5E468B" stroke="#C1A1FF" stroke-width="2" stroke-miterlimit="10" stroke-linecap="round" stroke-linejoin="round"/>
</mask>
<g mask="url(#mask0_352_1683)">
<path d="M8.41421 23L16 15.4142L23.5858 23L16 30.5858L8.41421 23Z" fill="white" stroke="#A67AFF" stroke-width="2" stroke-linejoin="round"/>
<path d="M15.1896 4.3949L16 1.642L16.8104 4.3949C18.3407 9.59355 22.4065 13.6593 27.6051 15.1896L30.358 16L27.6051 16.8104C22.4065 18.3408 18.3407 22.4065 16.8104 27.6051L16 30.358L15.1896 27.6051C13.6593 22.4065 9.59355 18.3408 4.39489 16.8104L1.642 16L4.3949 15.1896C9.59355 13.6593 13.6593 9.59355 15.1896 4.3949ZM0.818703 15.7577C0.818825 15.7577 0.818947 15.7577 0.819069 15.7578L0.818705 15.7577L0.74736 16L0.818703 15.7577Z" stroke="#C1A1FF" stroke-width="2" stroke-miterlimit="10" stroke-linecap="round" stroke-linejoin="round"/>
</g>
</g>
<defs>
<clipPath id="clip0_352_1683">
<rect width="32" height="32" fill="white"/>
</clipPath>
</defs>
</svg>
