<svg width="32" height="32" viewBox="0 0 32 32" fill="none" xmlns="http://www.w3.org/2000/svg">
<path d="M6.2525 23.6H11.4634L14.0601 27.9156C14.9301 29.3615 17.0699 29.3615 17.9399 27.9156L20.5365 23.6H25.7475C27.4141 23.6 28.6074 21.8134 27.6874 20.2845L25.1095 16L27.6874 11.7155C28.6074 10.1866 27.4141 8.39996 25.7475 8.39997H20.5366L17.9399 4.08444C17.0699 2.63852 14.9301 2.63852 14.0601 4.08444L11.4635 8.39997H6.25247C4.58588 8.39997 3.39261 10.1866 4.31256 11.7155L5.11683 11.2316L4.31256 11.7155L6.89053 16L4.3126 20.2845C3.39265 21.8134 4.58591 23.6 6.2525 23.6Z" fill="white" stroke="#333333" stroke-width="2"/>
</svg>
