<svg width="32" height="32" viewBox="0 0 32 32" fill="none" xmlns="http://www.w3.org/2000/svg">
<path d="M26.1344 14.0124C26.1785 14.0042 26.2239 14 26.27 14C26.6677 14 27 14.3323 27 14.73C27 15.3579 26.8204 15.9461 26.51 16.4458C26.4748 15.6099 26.3468 14.7943 26.1344 14.0124ZM24.6762 10.278L24.3875 9.58556C24.7676 9.26386 25.01 8.78379 25.01 8.25C25.01 7.28772 24.2223 6.5 23.26 6.5H22.0001C20.8744 5.48009 19.5069 4.72242 17.9944 4.32186C17.908 3.02508 16.8287 2 15.51 2C14.1913 2 13.1121 3.02508 13.0256 4.32186C11.5132 4.72241 10.1456 5.48009 9.01991 6.5H7.75C6.78772 6.5 6 7.28772 6 8.25C6 8.3711 6.01248 8.48944 6.0362 8.60379C5.75617 8.23728 5.31475 8 4.82 8H2.53C1.68771 8 1 8.68772 1 9.53V14.59C1 17.0627 2.01151 19.4352 3.81116 21.1449C3.81119 21.1449 3.81122 21.145 3.81125 21.145L7.48135 24.6325C7.69277 24.8505 7.91309 25.0599 8.14173 25.26L9.28093 26.3425C8.39862 27.3771 9.13785 29 10.52 29H20.43C21.8994 29 22.5668 27.2326 21.5671 26.2329L21.5615 26.2273L21.5559 26.2219L21.5193 26.1864C23.1677 25.1032 24.5093 23.5918 25.3864 21.8101C28.6018 21.0596 31 18.1725 31 14.73C31 12.1177 28.8823 10 26.27 10C25.7179 10 25.1798 10.0968 24.6762 10.278ZM6.52889 9.50043L6.35 9.93065V9.53C6.35 9.43979 6.34211 9.35135 6.32699 9.26534C6.38734 9.34953 6.45496 9.42821 6.52889 9.50043Z" fill="#333333" stroke="white" stroke-width="2"/>
<path d="M24.26 9H6.75C6.34 9 6 9.34 6 9.75C6 10.16 6.34 10.5 6.75 10.5H24.26C24.67 10.5 25.01 10.16 25.01 9.75C25.01 9.34 24.67 9 24.26 9Z" fill="white"/>
<path d="M15.5 23L20 18.5L15 13.5L10.5 18L13 20.5L15 18.5" stroke="#8FF6FF" stroke-width="2" stroke-linecap="round" stroke-linejoin="round"/>
<path d="M22.5 23L21.5 22C21.5 22 21.281 22.219 20.5 23L19.5 22" stroke="#1DADF0" stroke-linecap="round" stroke-linejoin="round"/>
<path d="M8.5 23C9.28105 22.219 9.5 22 9.5 22L10.5 23" stroke="#1DADF0" stroke-linecap="round" stroke-linejoin="round"/>
<path d="M11.8536 22.3536C12.0488 22.1583 12.0488 21.8417 11.8536 21.6464C11.6583 21.4512 11.3417 21.4512 11.1464 21.6464L11.8536 22.3536ZM10.8536 23.3536L11.8536 22.3536L11.1464 21.6464L10.1464 22.6464L10.8536 23.3536Z" fill="#1DADF0"/>
</svg>
